# Blender 5.0.1
# www.blender.org
mtllib barrel.mtl
o Cylinder
v 1.783465 -0.004562 -0.650000
v 1.783465 1.995438 -0.650000
v 2.243085 -0.004562 -0.459619
v 2.243085 1.995438 -0.459619
v 2.433465 -0.004562 0.000000
v 2.433465 1.995438 0.000000
v 2.243085 -0.004562 0.459619
v 2.243085 1.995438 0.459619
v 1.783465 -0.004562 0.650000
v 1.783465 1.995438 0.650000
v 1.323846 -0.004562 0.459619
v 1.323846 1.995438 0.459619
v 1.133465 -0.004562 0.000000
v 1.133465 1.995438 0.000000
v 1.323846 -0.004562 -0.459619
v 1.323846 1.995438 -0.459619
v 1.783465 0.662104 -0.650000
v 1.783465 1.328771 -0.650000
v 2.243085 1.328771 -0.459619
v 2.243085 0.662104 -0.459619
v 2.433465 1.328771 0.000000
v 2.433465 0.662104 0.000000
v 2.243085 1.328771 0.459619
v 2.243085 0.662104 0.459619
v 1.783465 1.328771 0.650000
v 1.783465 0.662104 0.650000
v 1.323846 1.328771 0.459619
v 1.323846 0.662104 0.459619
v 1.133465 1.328771 0.000000
v 1.133465 0.662104 0.000000
v 1.323846 1.328771 -0.459619
v 1.323846 0.662104 -0.459619
v 1.783465 1.258923 -0.650000
v 2.243085 1.258923 -0.459619
v 2.433465 1.258923 0.000000
v 2.243085 1.258923 0.459619
v 1.783465 1.258923 0.650000
v 1.323846 1.258923 0.459619
v 1.133465 1.258923 0.000000
v 1.323846 1.258923 -0.459619
v 2.243085 0.741060 -0.459619
v 2.433465 0.741060 0.000000
v 2.243085 0.741060 0.459619
v 1.783465 0.741060 0.650000
v 1.323846 0.741060 0.459619
v 1.133465 0.741060 0.000000
v 1.323846 0.741060 -0.459619
v 1.783465 0.741060 -0.650000
v 1.783465 1.258923 -0.514975
v 1.783465 1.328771 -0.514975
v 2.147608 0.741060 -0.364143
v 2.147608 0.662104 -0.364143
v 2.298441 0.741060 0.000000
v 2.298441 0.662104 0.000000
v 2.147608 0.741060 0.364143
v 2.147608 0.662104 0.364143
v 1.783465 0.741060 0.514975
v 1.783465 0.662104 0.514975
v 1.419323 0.741060 0.364143
v 1.419323 0.662104 0.364143
v 1.268490 0.741060 0.000000
v 1.268490 0.662104 0.000000
v 1.419323 0.741060 -0.364143
v 1.419323 0.662104 -0.364143
v 1.783465 0.662104 -0.514975
v 1.419323 1.328771 -0.364143
v 1.268490 1.328771 0.000000
v 1.419323 1.328771 0.364143
v 1.783465 1.328771 0.514975
v 2.147608 1.328771 0.364143
v 2.298441 1.328771 0.000000
v 2.147608 1.328771 -0.364143
v 2.147608 1.258923 -0.364143
v 2.298441 1.258923 0.000000
v 2.147608 1.258923 0.364143
v 1.783465 1.258923 0.514975
v 1.419323 1.258923 0.364143
v 1.268490 1.258923 0.000000
v 1.419323 1.258923 -0.364143
v 1.783465 0.741060 -0.514975
v 2.160651 1.995438 -0.377186
v 1.783465 1.995438 -0.533422
v 2.316887 1.995438 -0.000000
v 2.160651 1.995438 0.377186
v 1.783465 1.995438 0.533422
v 1.406279 1.995438 0.377186
v 1.250044 1.995438 -0.000000
v 1.406279 1.995438 -0.377186
v 2.160651 1.914671 -0.377186
v 1.783465 1.914671 -0.533422
v 2.316887 1.914671 -0.000000
v 2.160651 1.914671 0.377186
v 1.783465 1.914671 0.533422
v 1.406279 1.914671 0.377186
v 1.250044 1.914671 -0.000000
v 1.406279 1.914671 -0.377186
vn 0.3827 -0.0000 -0.9239
vn 0.9239 -0.0000 -0.3827
vn 0.9239 -0.0000 0.3827
vn 0.3827 -0.0000 0.9239
vn -0.3827 -0.0000 0.9239
vn -0.9239 -0.0000 0.3827
vn -0.0000 1.0000 -0.0000
vn -0.9239 -0.0000 -0.3827
vn -0.3827 -0.0000 -0.9239
vn -0.0000 -1.0000 -0.0000
vt 0.287026 0.192212
vt 0.228646 0.192212
vt 0.228646 0.148646
vt 0.287026 0.148646
vt 0.228646 0.117841
vt 0.287026 0.117841
vt 0.181850 0.328194
vt 0.123469 0.328194
vt 0.123469 0.297389
vt 0.181850 0.297389
vt 0.123469 0.253823
vt 0.181850 0.253823
vt 0.123469 0.223017
vt 0.181850 0.223017
vt 0.073201 0.287287
vt 0.014820 0.287287
vt 0.014820 0.243722
vt 0.073201 0.243722
vt 0.116413 0.043692
vt 0.116413 0.084608
vt 0.107555 0.080939
vt 0.107555 0.047361
vt 0.014820 0.212916
vt 0.073201 0.212916
vt 0.287026 0.223017
vt 0.228646 0.223017
vt 0.123017 0.085283
vt 0.123017 0.041717
vt 0.153822 0.010911
vt 0.197388 0.010911
vt 0.228193 0.041717
vt 0.228193 0.085283
vt 0.197388 0.116088
vt 0.153822 0.116088
vt 0.240230 0.328194
vt 0.181850 0.328194
vt 0.181850 0.297389
vt 0.240230 0.297389
vt 0.045898 0.114909
vt 0.016164 0.085175
vt 0.026708 0.080808
vt 0.050266 0.104365
vt 0.144702 0.160762
vt 0.086322 0.160762
vt 0.086322 0.129957
vt 0.144702 0.129957
vt 0.120063 0.041717
vt 0.120063 0.085283
vt 0.109139 0.080758
vt 0.109139 0.046242
vt 0.144702 0.204328
vt 0.086322 0.204328
vt 0.016164 0.043125
vt 0.026708 0.047492
vt 0.298611 0.253823
vt 0.240230 0.253823
vt 0.240230 0.223017
vt 0.298611 0.223017
vt 0.047699 0.112711
vt 0.018814 0.083826
vt 0.029057 0.079583
vt 0.051942 0.102468
vt 0.298611 0.297389
vt 0.017084 0.044421
vt 0.046544 0.014961
vt 0.050871 0.025408
vt 0.027531 0.048748
vt 0.298611 0.328194
vt 0.089257 0.116088
vt 0.084732 0.105164
vt 0.181850 0.253823
vt 0.181850 0.223017
vt 0.087948 0.114909
vt 0.083581 0.104365
vt 0.045692 0.116088
vt 0.050216 0.105164
vt 0.332376 0.192212
vt 0.287026 0.192212
vt 0.287026 0.148646
vt 0.332376 0.148646
vt 0.332376 0.117841
vt 0.343961 0.328194
vt 0.343961 0.297389
vt 0.343961 0.253823
vt 0.343961 0.223017
vt 0.120397 0.287666
vt 0.075047 0.287666
vt 0.075047 0.244101
vt 0.120397 0.244101
vt 0.075047 0.213295
vt 0.120397 0.213295
vt 0.332376 0.223017
vt 0.088207 0.014961
vt 0.083879 0.025408
vt 0.014886 0.085283
vt 0.025810 0.080758
vt 0.117682 0.085175
vt 0.107138 0.080808
vt 0.117666 0.044421
vt 0.107219 0.048748
vt 0.117682 0.043125
vt 0.107138 0.047492
vt 0.117666 0.086084
vt 0.107219 0.081756
vt 0.018814 0.042976
vt 0.029057 0.047219
vt 0.087948 0.013391
vt 0.083581 0.023935
vt 0.079908 0.205651
vt 0.073791 0.205651
vt 0.073791 0.181245
vt 0.079908 0.181245
vt 0.063741 0.146098
vt 0.057624 0.146098
vt 0.057624 0.121692
vt 0.063741 0.121692
vt 0.063741 0.180614
vt 0.057624 0.180614
vt 0.043637 0.146098
vt 0.037520 0.146098
vt 0.037520 0.121692
vt 0.043637 0.121692
vt 0.043637 0.180614
vt 0.037520 0.180614
vt 0.043637 0.205020
vt 0.037520 0.205020
vt 0.079908 0.146729
vt 0.073791 0.146729
vt 0.073791 0.122323
vt 0.079908 0.122323
vt 0.066877 0.205651
vt 0.066877 0.181245
vt 0.057624 0.146098
vt 0.050710 0.146098
vt 0.050710 0.121692
vt 0.057624 0.121692
vt 0.057624 0.180614
vt 0.050710 0.180614
vt 0.037521 0.146098
vt 0.030606 0.146098
vt 0.030606 0.121692
vt 0.037521 0.121692
vt 0.037521 0.180614
vt 0.030606 0.180614
vt 0.037521 0.205020
vt 0.030606 0.205020
vt 0.066877 0.146729
vt 0.066877 0.122323
vt 0.073791 0.122323
vt 0.088550 0.112711
vt 0.084307 0.102468
vt 0.046544 0.115544
vt 0.017084 0.086084
vt 0.027531 0.081756
vt 0.050871 0.105097
vt 0.089257 0.010911
vt 0.084732 0.021836
vt 0.117435 0.083826
vt 0.107192 0.079583
vt 0.045898 0.013391
vt 0.050266 0.023935
vt 0.045692 0.010911
vt 0.050216 0.021836
vt 0.117435 0.042976
vt 0.107192 0.047219
vt 0.088207 0.115544
vt 0.083879 0.105097
vt 0.014886 0.041717
vt 0.025810 0.046242
vt 0.088550 0.014090
vt 0.084307 0.024333
vt 0.047699 0.014090
vt 0.051942 0.024333
vt 0.016461 0.146973
vt 0.016461 0.121692
vt 0.023533 0.121692
vt 0.023533 0.146973
vt 0.017632 0.043692
vt 0.046564 0.014759
vt 0.050233 0.023618
vt 0.026490 0.047361
vt 0.087481 0.113541
vt 0.046564 0.113541
vt 0.050233 0.104682
vt 0.083811 0.104682
vt 0.087481 0.014759
vt 0.083811 0.023618
vt 0.017632 0.084608
vt 0.026490 0.080939
vt 0.256962 0.096515
vt 0.231681 0.071234
vt 0.231681 0.035482
vt 0.256962 0.010202
vt 0.292714 0.010202
vt 0.317995 0.035482
vt 0.317995 0.071234
vt 0.292714 0.096515
vt 0.023533 0.182725
vt 0.023533 0.146973
vt 0.030606 0.146973
vt 0.030606 0.182725
vt 0.043637 0.182725
vt 0.043637 0.157444
vt 0.050710 0.157444
vt 0.050710 0.182725
vt 0.016461 0.208005
vt 0.016461 0.182725
vt 0.023533 0.182725
vt 0.023533 0.208005
vt 0.023533 0.208005
vt 0.030606 0.208005
vt 0.023533 0.121692
vt 0.030606 0.121692
s 0
usemtl Material.001
f 18/1/1 2/2/1 4/3/1 19/4/1
f 19/4/2 4/3/2 6/5/2 21/6/2
f 21/7/3 6/8/3 8/9/3 23/10/3
f 23/10/4 8/9/4 10/11/4 25/12/4
f 25/12/5 10/11/5 12/13/5 27/14/5
f 27/15/6 12/16/6 14/17/6 29/18/6
f 10/19/7 8/20/7 84/21/7 85/22/7
f 29/18/8 14/17/8 16/23/8 31/24/8
f 31/25/9 16/26/9 2/2/9 18/1/9
f 1/27/10 3/28/10 5/29/10 7/30/10 9/31/10 11/32/10 13/33/10 15/34/10
f 15/35/9 32/36/9 17/37/9 1/38/9
f 20/39/7 17/40/7 65/41/7 52/42/7
f 13/43/8 30/44/8 32/45/8 15/46/8
f 37/47/7 36/48/7 75/49/7 76/50/7
f 11/51/6 28/52/6 30/44/6 13/43/6
f 17/40/7 32/53/7 64/54/7 65/41/7
f 9/55/5 26/56/5 28/57/5 11/58/5
f 47/59/10 48/60/10 80/61/10 63/62/10
f 7/63/4 24/38/4 26/56/4 9/55/4
f 19/64/10 21/65/10 71/66/10 72/67/10
f 5/68/3 22/35/3 24/38/3 7/63/3
f 36/48/7 35/69/7 74/70/7 75/49/7
f 3/56/2 20/71/2 22/72/2 5/57/2
f 22/73/7 20/39/7 52/42/7 54/74/7
f 1/38/1 17/37/1 20/71/1 3/56/1
f 35/69/7 34/75/7 73/76/7 74/70/7
f 48/77/1 33/78/1 34/79/1 41/80/1
f 41/80/2 34/79/2 35/6/2 42/81/2
f 42/82/3 35/68/3 36/63/3 43/83/3
f 43/83/4 36/63/4 37/55/4 44/84/4
f 44/84/5 37/55/5 38/58/5 45/85/5
f 45/86/6 38/87/6 39/88/6 46/89/6
f 46/89/8 39/88/8 40/90/8 47/91/8
f 47/92/9 40/25/9 33/78/9 48/77/9
f 21/65/10 23/93/10 70/94/10 71/66/10
f 34/75/7 33/95/7 49/96/7 73/76/7
f 24/97/7 22/73/7 54/74/7 56/98/7
f 23/93/10 25/99/10 69/100/10 70/94/10
f 26/101/7 24/97/7 56/98/7 58/102/7
f 25/99/10 27/103/10 68/104/10 69/100/10
f 48/60/10 41/105/10 51/106/10 80/61/10
f 28/107/7 26/101/7 58/102/7 60/108/7
f 79/109/9 66/110/9 50/111/9 49/112/9
f 78/113/8 67/114/8 66/115/8 79/116/8
f 77/117/6 68/118/6 67/114/6 78/113/6
f 76/119/5 69/120/5 68/121/5 77/122/5
f 75/123/4 70/124/4 69/120/4 76/119/4
f 74/125/3 71/126/3 70/124/3 75/123/3
f 73/127/2 72/128/2 71/129/2 74/130/2
f 49/112/1 50/111/1 72/128/1 73/127/1
f 64/110/9 63/131/9 80/132/9 65/111/9
f 62/133/8 61/134/8 63/135/8 64/136/8
f 60/137/6 59/138/6 61/134/6 62/133/6
f 58/139/5 57/140/5 59/141/5 60/142/5
f 56/143/4 55/144/4 57/140/4 58/139/4
f 54/145/3 53/146/3 55/144/3 56/143/3
f 52/128/2 51/147/2 53/148/2 54/149/2
f 65/111/1 80/132/1 51/147/1 52/128/1
f 46/150/10 47/59/10 63/62/10 61/151/10
f 31/152/10 18/153/10 50/154/10 66/155/10
f 38/156/7 37/47/7 76/50/7 77/157/7
f 18/153/10 19/64/10 72/67/10 50/154/10
f 45/158/10 46/150/10 61/151/10 59/159/10
f 32/53/7 30/160/7 62/161/7 64/54/7
f 39/162/7 38/156/7 77/157/7 78/163/7
f 44/164/10 45/158/10 59/159/10 57/165/10
f 29/166/10 31/152/10 66/155/10 67/167/10
f 40/168/7 39/162/7 78/163/7 79/169/7
f 43/170/10 44/164/10 57/165/10 55/171/10
f 30/160/7 28/107/7 60/108/7 62/161/7
f 33/95/7 40/168/7 79/169/7 49/96/7
f 42/172/10 43/170/10 55/171/10 53/173/10
f 27/103/10 29/166/10 67/167/10 68/104/10
f 41/105/10 42/172/10 53/173/10 51/106/10
f 88/174/3 87/175/3 95/176/3 96/177/3
f 16/178/7 14/179/7 87/180/7 88/181/7
f 6/182/7 4/183/7 81/184/7 83/185/7
f 12/186/7 10/19/7 85/22/7 86/187/7
f 2/188/7 16/178/7 88/181/7 82/189/7
f 4/183/7 2/188/7 82/189/7 81/184/7
f 8/20/7 6/182/7 83/185/7 84/21/7
f 14/179/7 12/186/7 86/187/7 87/180/7
f 89/190/7 90/191/7 96/192/7 95/193/7 94/194/7 93/195/7 92/196/7 91/197/7
f 86/198/1 85/199/1 93/200/1 94/201/1
f 84/202/8 83/203/8 91/204/8 92/205/8
f 81/206/5 82/207/5 90/208/5 89/209/5
f 82/207/4 88/174/4 96/177/4 90/208/4
f 87/210/2 86/198/2 94/201/2 95/211/2
f 85/199/9 84/212/9 92/213/9 93/200/9
f 83/203/6 81/122/6 89/135/6 91/204/6
