# Blender 5.0.1
# www.blender.org
mtllib desk.mtl
o Cube.001
v -2.061163 1.543587 3.687849
v -2.061163 1.720959 3.687849
v -2.061163 1.543587 1.687849
v -2.061163 1.720959 1.687849
v 2.061163 1.543587 3.687849
v 2.061163 1.720959 3.687849
v 2.061163 1.543587 1.687849
v 2.061163 1.720959 1.687849
v -1.799969 1.543587 1.687849
v -1.799969 1.720959 1.687849
v -1.799969 1.543587 3.687849
v -1.799969 1.720959 3.687849
v 1.799969 1.720959 1.687849
v 1.799969 1.543587 3.687849
v 1.799969 1.543587 1.687849
v 1.799969 1.720959 3.687849
v -2.061163 1.543587 1.852621
v -2.061163 1.720959 1.852621
v 2.061163 1.543587 1.852621
v 2.061163 1.720959 1.852621
v -1.799969 1.543587 1.852621
v 1.799969 1.543587 1.852621
v -2.061163 1.543587 3.551906
v 2.061163 1.720959 3.551906
v -1.799969 1.543587 3.551906
v 1.799969 1.543587 3.551906
v -2.061163 1.720959 3.551906
v 2.061163 1.543587 3.551906
v -2.061163 -0.005483 3.551906
v -2.061163 -0.005483 3.687849
v -1.799969 -0.005483 1.687849
v -2.061163 -0.005483 1.687849
v 2.061163 -0.005483 1.852621
v 2.061163 -0.005483 1.687849
v 1.799969 -0.005483 3.687849
v 2.061163 -0.005483 3.687849
v -1.799969 -0.005483 3.687849
v -1.799969 -0.005483 3.551906
v 1.799969 -0.005483 1.687849
v 1.799969 -0.005483 3.551906
v -2.061163 -0.005483 1.852621
v -1.799969 -0.005483 1.852621
v 1.799969 -0.005483 1.852621
v 2.061163 -0.005483 3.551906
v 1.799969 1.355173 1.687849
v -1.799969 1.355173 1.687849
v -1.799969 1.355173 3.551906
v -1.799969 1.355173 3.687849
v 1.799969 1.355173 3.687849
v 1.799969 1.355173 3.551906
v -1.799969 1.355173 1.852621
v 1.799969 1.355173 1.852621
v -2.010235 1.720959 1.890694
v -2.010235 1.720959 1.733368
v 1.755495 1.720959 1.733368
v 2.010235 1.720959 1.733368
v 2.010235 1.720959 3.513181
v 2.010235 1.720959 3.642981
v -1.755495 1.720959 3.642981
v -2.010235 1.720959 3.642981
v -1.755495 1.720959 1.733368
v 1.755495 1.720959 3.642981
v -2.010235 1.720959 3.513181
v 2.010235 1.720959 1.890694
v -2.010235 1.644974 1.890694
v -2.010235 1.644974 1.733368
v 1.755495 1.644974 1.733368
v 2.010235 1.644974 1.733368
v 2.010235 1.644974 3.513181
v 2.010235 1.644974 3.642981
v -1.755495 1.644974 3.642981
v -2.010235 1.644974 3.642981
v -1.755495 1.644974 1.733368
v 1.755495 1.644974 3.642981
v -1.755495 1.644974 3.513181
v 1.755495 1.644974 3.513181
v -2.010235 1.644974 3.513181
v 2.010235 1.644974 1.890694
v -1.755495 1.644974 1.890694
v 1.755495 1.644974 1.890694
vn -1.0000 -0.0000 -0.0000
vn -0.0000 -0.0000 -1.0000
vn 1.0000 -0.0000 -0.0000
vn -0.0000 -0.0000 1.0000
vn -0.0000 1.0000 -0.0000
vn -0.0000 -1.0000 -0.0000
vt 0.848836 0.080918
vt 0.848836 0.074867
vt 0.854457 0.074867
vt 0.854457 0.080919
vt 0.986183 0.080929
vt 0.986183 0.074878
vt 0.995094 0.074879
vt 0.995094 0.080930
vt 0.849814 0.139817
vt 0.849815 0.133766
vt 0.854453 0.133767
vt 0.854452 0.139818
vt 0.986178 0.139828
vt 0.986179 0.133777
vt 0.995089 0.133778
vt 0.995089 0.139829
vt 0.854448 0.192666
vt 0.849810 0.192665
vt 0.995095 0.069258
vt 0.995094 0.074879
vt 0.993357 0.073326
vt 0.993357 0.067958
vt 0.863368 0.074868
vt 0.864886 0.073315
vt 0.984666 0.073325
vt 0.854448 0.195258
vt 0.854447 0.204169
vt 0.801599 0.204164
vt 0.801600 0.195254
vt 0.863363 0.139818
vt 0.863364 0.133767
vt 0.863368 0.074868
vt 0.863368 0.080919
vt 0.856195 0.073315
vt 0.801598 0.215772
vt 0.801598 0.220410
vt 0.795170 0.220409
vt 0.795170 0.215771
vt 0.795170 0.220409
vt 0.788742 0.220409
vt 0.788742 0.215771
vt 0.986189 0.006646
vt 0.995100 0.006647
vt 0.993362 0.008178
vt 0.984671 0.008177
vt 0.848831 0.133766
vt 0.854463 0.011274
vt 0.854463 0.006636
vt 0.856200 0.008167
vt 0.856200 0.012595
vt 0.854458 0.069246
vt 0.856196 0.067947
vt 0.854445 0.230901
vt 0.854444 0.236523
vt 0.801597 0.236518
vt 0.801597 0.230897
vt 0.786220 0.139812
vt 0.786221 0.133761
vt 0.791842 0.133761
vt 0.791842 0.139813
vt 0.790863 0.080914
vt 0.790864 0.074862
vt 0.786225 0.080913
vt 0.786226 0.074862
vt 0.986169 0.250649
vt 0.863354 0.250639
vt 0.863359 0.192666
vt 0.986174 0.192676
vt 0.995080 0.250650
vt 0.995085 0.192677
vt 0.863374 0.006636
vt 0.864891 0.008167
vt 0.854443 0.250638
vt 0.792687 0.215771
vt 0.792688 0.211133
vt 0.801599 0.211134
vt 0.792688 0.204529
vt 0.783777 0.204528
vt 0.783778 0.199890
vt 0.792689 0.199891
vt 0.792688 0.211133
vt 0.792688 0.205512
vt 0.801599 0.205513
vt 0.792688 0.205512
vt 0.792689 0.199891
vt 0.801599 0.199891
vt 0.995085 0.192677
vt 0.791838 0.192661
vt 0.786216 0.192660
vt 0.790859 0.133761
vt 0.854446 0.213080
vt 0.854446 0.221991
vt 0.801598 0.221986
vt 0.801598 0.213075
vt 0.854444 0.242144
vt 0.854443 0.246782
vt 0.801596 0.246778
vt 0.801596 0.242140
vt 0.854444 0.236523
vt 0.801600 0.199891
vt 0.748752 0.199887
vt 0.748752 0.195249
vt 0.857918 0.255276
vt 0.735103 0.255266
vt 0.735103 0.250628
vt 0.857918 0.250638
vt 0.995079 0.267883
vt 0.872264 0.267874
vt 0.872264 0.262252
vt 0.995079 0.262262
vt 0.792688 0.210150
vt 0.786260 0.210149
vt 0.786260 0.204528
vt 0.786259 0.215771
vt 0.872265 0.255824
vt 0.995080 0.255834
vt 0.749449 0.255814
vt 0.749449 0.262242
vt 0.986182 0.087357
vt 0.863367 0.087347
vt 0.986178 0.146256
vt 0.863363 0.146246
vt 0.849090 0.072275
vt 0.854458 0.072275
vt 0.849090 0.074867
vt 0.986389 0.250649
vt 0.995080 0.253242
vt 0.986389 0.253241
vt 0.866609 0.250639
vt 0.866609 0.253232
vt 0.789300 0.192660
vt 0.794667 0.192661
vt 0.794667 0.195253
vt 0.789300 0.195253
vt 0.793738 0.072270
vt 0.793738 0.074863
vt 0.850020 0.192665
vt 0.850020 0.195258
vt 0.857918 0.253231
vt 0.866608 0.255824
vt 0.857918 0.255823
vt 0.789310 0.072270
vt 0.789309 0.074862
vt 0.995099 0.011285
vt 0.993362 0.012606
vt 0.725991 0.011054
vt 0.717301 0.011053
vt 0.717301 0.006625
vt 0.725992 0.006625
vt 0.845772 0.011063
vt 0.845772 0.006635
vt 0.854463 0.011064
vt 0.854458 0.071784
vt 0.845767 0.071783
vt 0.845767 0.066416
vt 0.854458 0.066417
vt 0.725987 0.071773
vt 0.725987 0.066406
vt 0.717296 0.071773
vt 0.717296 0.066405
vt 0.995080 0.255834
vt 0.986389 0.255834
s 0
usemtl Material.002
f 17/1/1 18/2/1 4/3/1 3/4/1
f 15/5/2 13/6/2 8/7/2 7/8/2
f 28/9/3 24/10/3 6/11/3 5/12/3
f 11/13/4 12/14/4 2/15/4 1/16/4
f 28/9/3 5/12/3 36/17/3 44/18/3
f 20/19/5 8/20/5 56/21/5 64/22/5
f 13/6/5 10/23/5 61/24/5 55/25/5
f 26/26/2 28/27/2 44/28/2 40/29/2
f 14/30/4 16/31/4 12/14/4 11/13/4
f 3/4/2 4/3/2 10/32/2 9/33/2
f 5/12/4 6/11/4 16/31/4 14/30/4
f 10/23/5 4/3/5 54/34/5 61/24/5
f 26/35/3 14/36/3 49/37/3 50/38/3
f 9/33/2 10/32/2 13/6/2 15/5/2
f 11/38/1 25/39/1 47/40/1 48/41/1
f 16/42/5 6/43/5 58/44/5 62/45/5
f 17/1/1 3/4/1 32/11/1 41/46/1
f 27/47/5 2/48/5 60/49/5 63/50/5
f 4/3/5 18/51/5 53/52/5 54/34/5
f 22/53/1 15/54/1 39/55/1 43/56/1
f 7/57/3 8/58/3 20/59/3 19/60/3
f 23/61/1 27/62/1 18/2/1 17/1/1
f 1/63/1 2/64/1 27/62/1 23/61/1
f 21/65/6 22/66/6 26/67/6 25/68/6
f 18/51/5 27/47/5 63/50/5 53/52/5
f 17/69/6 21/65/6 25/68/6 23/70/6
f 8/20/5 13/6/5 55/25/5 56/21/5
f 12/71/5 16/42/5 62/45/5 59/72/5
f 22/66/6 19/73/6 28/17/6 26/67/6
f 19/60/3 20/59/3 24/10/3 28/9/3
f 40/35/6 44/74/6 36/75/6 35/76/6
f 29/77/6 38/78/6 37/79/6 30/80/6
f 32/76/6 31/81/6 42/82/6 41/83/6
f 39/83/6 34/84/6 33/85/6 43/86/6
f 11/13/4 1/16/4 30/87/4 37/68/4
f 7/57/3 19/60/3 33/88/3 34/89/3
f 15/5/2 7/8/2 34/15/2 39/14/2
f 1/63/1 23/61/1 29/90/1 30/58/1
f 21/91/4 17/92/4 41/93/4 42/94/4
f 25/95/3 11/96/3 37/97/3 38/98/3
f 5/12/4 14/30/4 35/67/4 36/17/4
f 23/92/2 25/53/2 38/56/2 29/93/2
f 9/99/3 21/95/3 42/98/3 31/55/3
f 14/29/1 26/100/1 40/101/1 35/102/1
f 3/4/2 9/33/2 31/31/2 32/11/2
f 19/27/4 22/91/4 43/94/4 33/28/4
f 47/103/6 50/104/6 49/105/6 48/106/6
f 46/107/6 45/108/6 52/109/6 51/110/6
f 15/77/3 22/111/3 52/112/3 45/113/3
f 21/111/1 9/74/1 46/114/1 51/112/1
f 25/115/2 26/116/2 50/110/2 47/109/2
f 22/117/4 21/115/4 51/109/4 52/118/4
f 9/33/2 15/5/2 45/119/2 46/120/2
f 14/30/4 11/13/4 48/121/4 49/122/4
f 64/123/1 56/124/1 68/3/1 78/125/1
f 61/126/4 54/69/4 66/127/4 73/128/4
f 55/129/4 61/126/4 73/128/4 67/130/4
f 54/131/3 53/132/3 65/133/3 66/134/3
f 57/135/1 64/123/1 78/125/1 69/136/1
f 53/132/3 63/137/3 77/138/3 65/133/3
f 60/139/2 59/130/2 71/140/2 72/141/2
f 63/137/3 60/17/3 72/26/3 77/138/3
f 58/142/1 57/135/1 69/136/1 70/143/1
f 24/144/5 20/19/5 64/22/5 57/145/5
f 2/48/5 12/71/5 59/72/5 60/49/5
f 6/43/5 24/144/5 57/145/5 58/44/5
f 75/146/5 77/147/5 72/148/5 71/149/5
f 76/150/5 75/146/5 71/149/5 74/151/5
f 69/152/5 76/150/5 74/151/5 70/48/5
f 68/153/5 67/154/5 80/155/5 78/156/5
f 67/154/5 73/157/5 79/158/5 80/155/5
f 73/157/5 66/159/5 65/160/5 79/158/5
f 78/156/5 80/155/5 76/150/5 69/152/5
f 80/155/5 79/158/5 75/146/5 76/150/5
f 79/158/5 65/160/5 77/147/5 75/146/5
f 56/106/4 55/129/4 67/130/4 68/139/4
f 62/128/2 58/127/2 70/161/2 74/162/2
f 59/130/2 62/128/2 74/162/2 71/140/2
