# Blender 5.0.1
# www.blender.org
mtllib gasTank.mtl
o Cylinder.001
v -1.542335 0.137769 4.648514
v -1.542335 2.784726 4.648514
v -1.344345 0.137769 4.730525
v -1.344345 2.784726 4.730525
v -1.262335 0.137769 4.928514
v -1.262335 2.784726 4.928514
v -1.344345 0.137769 5.126504
v -1.344345 2.784726 5.126504
v -1.542335 0.137769 5.208515
v -1.542335 2.784726 5.208515
v -1.740324 0.137769 5.126504
v -1.740324 2.784726 5.126504
v -1.822335 0.137769 4.928514
v -1.822335 2.784726 4.928514
v -1.740324 0.137769 4.730525
v -1.740324 2.784726 4.730525
v -1.386433 2.944891 4.772614
v -1.542335 2.944891 4.708037
v -1.321857 2.944891 4.928514
v -1.386433 2.944891 5.084416
v -1.542335 2.944891 5.148992
v -1.698236 2.944891 5.084416
v -1.762812 2.944891 4.928514
v -1.698236 2.944891 4.772614
v -1.455734 3.038490 4.841915
v -1.542335 3.038490 4.806044
v -1.419864 3.038490 4.928514
v -1.455734 3.038490 5.015114
v -1.542335 3.038490 5.050985
v -1.628935 3.038490 5.015114
v -1.664805 3.038490 4.928514
v -1.628935 3.038490 4.841915
v -1.455734 3.398062 4.841915
v -1.542335 3.398062 4.806044
v -1.419864 3.398062 4.928514
v -1.455734 3.398062 5.015114
v -1.542335 3.398062 5.050985
v -1.628935 3.398062 5.015114
v -1.664805 3.398062 4.928514
v -1.628935 3.398062 4.841915
v -1.478632 3.447402 4.864812
v -1.542335 3.447402 4.838426
v -1.452246 3.447402 4.928514
v -1.478632 3.447402 4.992217
v -1.542335 3.447402 5.018603
v -1.606037 3.447402 4.992217
v -1.632423 3.447402 4.928514
v -1.606037 3.447402 4.864812
v -1.542335 0.137769 4.696229
v -1.378084 0.137769 4.764264
v -1.310049 0.137769 4.928514
v -1.378084 0.137769 5.092765
v -1.542335 0.137769 5.160800
v -1.706585 0.137769 5.092765
v -1.774620 0.137769 4.928514
v -1.706585 0.137769 4.764264
v -1.542335 0.001442 4.696229
v -1.378084 0.001442 4.764264
v -1.310049 0.001442 4.928514
v -1.378084 0.001442 5.092765
v -1.542335 0.001442 5.160800
v -1.706585 0.001442 5.092765
v -1.774620 0.001442 4.928514
v -1.706585 0.001442 4.764264
v -1.542335 0.001442 4.622138
v -1.325694 0.001442 4.711874
v -1.235958 0.001442 4.928514
v -1.325694 0.001442 5.145155
v -1.542335 0.001442 5.234890
v -1.758975 0.001442 5.145155
v -1.848711 0.001442 4.928514
v -1.758975 0.001442 4.711874
v -1.542335 -0.125065 4.622138
v -1.325694 -0.125065 4.711874
v -1.235958 -0.125065 4.928514
v -1.325694 -0.125065 5.145155
v -1.542335 -0.125065 5.234890
v -1.758975 -0.125065 5.145155
v -1.848711 -0.125065 4.928514
v -1.758975 -0.125065 4.711874
vn 0.3827 -0.0000 -0.9239
vn 0.9239 -0.0000 -0.3827
vn 0.9239 -0.0000 0.3827
vn 0.3827 -0.0000 0.9239
vn -0.3827 -0.0000 0.9239
vn -0.9239 -0.0000 0.3827
vn 0.8738 0.3247 -0.3619
vn -0.9239 -0.0000 -0.3827
vn -0.3827 -0.0000 -0.9239
vn -0.0000 -1.0000 -0.0000
vn -0.6640 0.6953 0.2750
vn -0.3619 0.3247 0.8738
vn -0.3619 0.3247 -0.8738
vn 0.3619 0.3247 -0.8738
vn 0.8738 0.3247 0.3619
vn -0.8738 0.3247 0.3619
vn 0.3619 0.3247 0.8738
vn -0.8738 0.3247 -0.3619
vn 0.2750 0.6953 0.6640
vn 0.6640 0.6953 -0.2750
vn -0.6640 0.6953 -0.2750
vn -0.2750 0.6953 0.6640
vn 0.6640 0.6953 0.2750
vn 0.2750 0.6953 -0.6640
vn -0.2750 0.6953 -0.6640
vn -0.7900 0.5185 0.3272
vn -0.0000 1.0000 -0.0000
vn 0.3272 0.5185 0.7900
vn 0.7900 0.5185 -0.3272
vn -0.7900 0.5185 -0.3272
vn -0.3272 0.5185 0.7900
vn 0.7900 0.5185 0.3272
vn 0.3272 0.5185 -0.7900
vn -0.3272 0.5185 -0.7900
vt 0.236820 0.674336
vt 0.518571 0.674351
vt 0.518569 0.697402
vt 0.236819 0.697387
vt 0.520913 0.713702
vt 0.239163 0.713687
vt 0.236823 0.634986
vt 0.518573 0.635001
vt 0.518571 0.658052
vt 0.236821 0.658037
vt 0.520915 0.674351
vt 0.239165 0.674336
vt 0.236818 0.713686
vt 0.518569 0.713701
vt 0.518567 0.736752
vt 0.236817 0.736737
vt 0.520911 0.753052
vt 0.239161 0.753037
vt 0.536469 0.694953
vt 0.538314 0.707788
vt 0.236816 0.753037
vt 0.518566 0.753052
vt 0.518565 0.776102
vt 0.236815 0.776087
vt 0.520909 0.792402
vt 0.239159 0.792387
vt 0.308015 0.837950
vt 0.291714 0.854248
vt 0.289751 0.849507
vt 0.303273 0.835986
vt 0.308214 0.859492
vt 0.326365 0.859493
vt 0.322330 0.869232
vt 0.312248 0.869231
vt 0.536468 0.716152
vt 0.536467 0.734303
vt 0.536465 0.773653
vt 0.538310 0.786488
vt 0.536470 0.676802
vt 0.536472 0.637452
vt 0.536471 0.655603
vt 0.538312 0.747138
vt 0.538316 0.668437
vt 0.536466 0.755503
vt 0.547833 0.690919
vt 0.547834 0.680837
vt 0.586107 0.680839
vt 0.586107 0.690921
vt 0.362665 0.869234
vt 0.344515 0.869233
vt 0.348549 0.859494
vt 0.358632 0.859494
vt 0.326364 0.869232
vt 0.330399 0.859493
vt 0.340481 0.859493
vt 0.547829 0.759537
vt 0.547829 0.769620
vt 0.547831 0.720187
vt 0.547831 0.730269
vt 0.547836 0.641487
vt 0.547835 0.651569
vt 0.200648 0.858363
vt 0.218799 0.858364
vt 0.214764 0.868103
vt 0.204682 0.868102
vt 0.587130 0.737401
vt 0.586105 0.730272
vt 0.591820 0.728939
vt 0.592574 0.734183
vt 0.548854 0.776749
vt 0.586103 0.769622
vt 0.587128 0.776751
vt 0.548856 0.737399
vt 0.548860 0.658699
vt 0.586109 0.651571
vt 0.587134 0.658701
vt 0.548858 0.698049
vt 0.587132 0.698051
vt 0.586103 0.759539
vt 0.586105 0.720189
vt 0.586110 0.641489
vt 0.256543 0.859491
vt 0.261788 0.854247
vt 0.269204 0.854247
vt 0.274448 0.859492
vt 0.274448 0.866908
vt 0.269203 0.872152
vt 0.261787 0.872152
vt 0.256543 0.866907
vt 0.591824 0.650239
vt 0.592578 0.655483
vt 0.591822 0.689589
vt 0.592576 0.694833
vt 0.591818 0.760873
vt 0.591818 0.768289
vt 0.591820 0.721523
vt 0.591824 0.642822
vt 0.591822 0.682172
vt 0.592572 0.773533
vt 0.275311 0.854248
vt 0.294400 0.855386
vt 0.293536 0.869871
vt 0.274448 0.868733
vt 0.252365 0.837947
vt 0.252366 0.814896
vt 0.257108 0.816861
vt 0.257107 0.835983
vt 0.291717 0.798599
vt 0.308016 0.814899
vt 0.303274 0.816863
vt 0.289753 0.803341
vt 0.268664 0.854247
vt 0.270628 0.849506
vt 0.268667 0.798598
vt 0.270630 0.803340
vt 0.422435 0.838613
vt 0.422436 0.819490
vt 0.429799 0.816441
vt 0.429798 0.841663
vt 0.219662 0.858364
vt 0.238750 0.859502
vt 0.237887 0.873987
vt 0.218798 0.872849
vt 0.397094 0.859496
vt 0.416183 0.860635
vt 0.415319 0.875120
vt 0.396230 0.873982
vt 0.363529 0.859495
vt 0.382618 0.860633
vt 0.381754 0.875118
vt 0.362665 0.873980
vt 0.308014 0.854249
vt 0.307150 0.868735
vt 0.252364 0.858366
vt 0.251500 0.872851
vt 0.429797 0.859498
vt 0.428933 0.873983
vt 0.396231 0.859496
vt 0.395367 0.873982
vt 0.209232 0.828479
vt 0.234410 0.829980
vt 0.233608 0.843422
vt 0.208431 0.841921
vt 0.389790 0.852133
vt 0.408913 0.852134
vt 0.411962 0.859497
vt 0.386740 0.859496
vt 0.376270 0.819488
vt 0.376269 0.838611
vt 0.368906 0.841660
vt 0.368907 0.816438
vt 0.408915 0.805968
vt 0.411965 0.798605
vt 0.389792 0.805967
vt 0.386743 0.798604
vt 0.308016 0.816435
vt 0.325852 0.798601
vt 0.351074 0.798602
vt 0.351070 0.859494
vt 0.325848 0.859493
vt 0.308014 0.841657
vt 0.234409 0.844923
vt 0.252365 0.843423
vt 0.251563 0.856865
vt 0.233607 0.858365
vt 0.234411 0.800096
vt 0.252367 0.798597
vt 0.251566 0.812039
vt 0.233610 0.813538
vt 0.234411 0.815038
vt 0.252366 0.813539
vt 0.251565 0.826981
vt 0.233609 0.828480
vt 0.252366 0.828481
vt 0.251564 0.841923
vt 0.209232 0.843421
vt 0.208430 0.856863
vt 0.209234 0.798595
vt 0.208432 0.812037
vt 0.209233 0.813537
vt 0.208431 0.826979
s 0
usemtl Material.008
f 1/1/1 2/2/1 4/3/1 3/4/1
f 3/4/2 4/3/2 6/5/2 5/6/2
f 5/7/3 6/8/3 8/9/3 7/10/3
f 7/10/4 8/9/4 10/11/4 9/12/4
f 9/13/5 10/14/5 12/15/5 11/16/5
f 11/16/6 12/15/6 14/17/6 13/18/6
f 6/5/7 4/3/7 17/19/7 19/20/7
f 13/21/8 14/22/8 16/23/8 15/24/8
f 15/24/9 16/23/9 2/25/9 1/26/9
f 7/27/10 9/28/10 53/29/10 52/30/10
f 23/31/11 22/32/11 30/33/11 31/34/11
f 12/15/12 10/14/12 21/35/12 22/36/12
f 2/25/13 16/23/13 24/37/13 18/38/13
f 4/3/14 2/2/14 18/39/14 17/19/14
f 8/9/15 6/8/15 19/40/15 20/41/15
f 14/17/16 12/15/16 22/36/16 23/42/16
f 10/11/17 8/9/17 20/41/17 21/43/17
f 16/23/18 14/22/18 23/44/18 24/37/18
f 25/45/1 26/46/1 34/47/1 33/48/1
f 21/49/19 20/50/19 28/51/19 29/52/19
f 19/50/20 17/53/20 25/54/20 27/55/20
f 24/37/21 23/44/21 31/56/21 32/57/21
f 22/36/22 21/35/22 29/58/22 30/59/22
f 20/41/23 19/40/23 27/60/23 28/61/23
f 17/19/24 18/39/24 26/46/24 25/45/24
f 18/62/25 24/63/25 32/64/25 26/65/25
f 39/66/26 38/67/26 46/68/26 47/69/26
f 26/70/9 32/57/9 40/71/9 34/72/9
f 31/73/6 30/59/6 38/67/6 39/66/6
f 29/74/4 28/61/4 36/75/4 37/76/4
f 27/77/2 25/45/2 33/48/2 35/78/2
f 32/57/8 31/56/8 39/79/8 40/71/8
f 30/59/5 29/58/5 37/80/5 38/67/5
f 28/61/3 27/60/3 35/81/3 36/75/3
f 41/82/27 42/83/27 48/84/27 47/85/27 46/86/27 45/87/27 44/88/27 43/89/27
f 37/76/28 36/75/28 44/90/28 45/91/28
f 35/78/29 33/48/29 41/92/29 43/93/29
f 40/71/30 39/79/30 47/94/30 48/95/30
f 38/67/31 37/80/31 45/96/31 46/68/31
f 36/75/32 35/81/32 43/97/32 44/90/32
f 33/48/33 34/47/33 42/98/33 41/92/33
f 34/72/34 40/71/34 48/95/34 42/99/34
f 55/100/8 56/101/8 64/102/8 63/103/8
f 13/104/10 15/105/10 56/106/10 55/107/10
f 3/108/10 5/109/10 51/110/10 50/111/10
f 9/28/10 11/112/10 54/113/10 53/29/10
f 15/105/10 1/114/10 49/115/10 56/106/10
f 1/114/10 3/108/10 50/111/10 49/115/10
f 5/109/10 7/27/10 52/30/10 51/110/10
f 11/112/10 13/104/10 55/107/10 54/113/10
f 62/116/27 63/117/27 71/118/27 70/119/27
f 53/120/5 54/121/5 62/122/5 61/123/5
f 51/124/3 52/125/3 60/126/3 59/127/3
f 49/128/1 50/129/1 58/130/1 57/131/1
f 56/101/9 49/132/9 57/133/9 64/102/9
f 54/121/6 55/134/6 63/135/6 62/122/6
f 52/125/4 53/136/4 61/137/4 60/126/4
f 50/129/2 51/138/2 59/139/2 58/130/2
f 65/140/1 66/141/1 74/142/1 73/143/1
f 60/144/27 61/145/27 69/146/27 68/147/27
f 58/148/27 59/149/27 67/150/27 66/151/27
f 63/117/27 64/152/27 72/153/27 71/118/27
f 61/145/27 62/116/27 70/119/27 69/146/27
f 59/149/27 60/144/27 68/147/27 67/150/27
f 57/154/27 58/148/27 66/151/27 65/155/27
f 64/152/27 57/154/27 65/155/27 72/153/27
f 73/156/10 74/157/10 75/158/10 76/151/10 77/150/10 78/159/10 79/160/10 80/161/10
f 72/162/9 65/163/9 73/164/9 80/165/9
f 70/166/6 71/167/6 79/168/6 78/169/6
f 68/170/4 69/171/4 77/172/4 76/173/4
f 66/141/2 67/174/2 75/175/2 74/142/2
f 71/176/8 72/162/8 80/165/8 79/177/8
f 69/178/5 70/166/5 78/169/5 77/179/5
f 67/180/3 68/170/3 76/173/3 75/181/3
o Cube.002
v -1.576094 3.257598 5.120356
v -1.576094 3.321306 5.120356
v -1.576094 3.257598 4.706858
v -1.576094 3.321306 4.706858
v -1.512386 3.257598 5.120356
v -1.512386 3.321306 5.120356
v -1.512386 3.257598 4.706858
v -1.512386 3.321306 4.706858
v -1.576094 3.257598 5.288736
v -1.576094 3.321306 5.288736
v -1.512386 3.321306 5.288736
v -1.512386 3.257598 5.288736
v -1.576094 3.205057 5.141562
v -1.512386 3.205057 5.141562
v -1.512386 3.373847 5.141562
v -1.576094 3.373847 5.141562
v -1.576094 3.205057 5.263562
v -1.512386 3.205057 5.263562
v -1.512386 3.373847 5.263562
v -1.576094 3.373847 5.263562
v -1.562007 3.307220 4.706858
v -1.562007 3.271685 4.706858
v -1.526473 3.271685 4.706858
v -1.526473 3.307220 4.706858
v -1.562007 3.307220 4.546938
v -1.562007 3.271685 4.546938
v -1.526473 3.271685 4.546938
v -1.526473 3.307220 4.546938
vn -1.0000 -0.0000 -0.0000
vn -0.0000 -0.0000 -1.0000
vn 1.0000 -0.0000 -0.0000
vn -0.0000 -1.0000 -0.0000
vn -0.0000 1.0000 -0.0000
vn -0.0000 -0.0000 1.0000
vn -0.0000 -0.3743 -0.9273
vn -0.0000 0.4321 0.9018
vn -0.0000 0.3743 -0.9273
vn -0.0000 -0.4321 0.9018
vt 0.248717 0.913976
vt 0.248718 0.896201
vt 0.364083 0.896207
vt 0.364082 0.913981
vt 0.206224 0.983523
vt 0.206225 0.965749
vt 0.210155 0.969679
vt 0.210154 0.979593
vt 0.205429 0.948761
vt 0.205430 0.930987
vt 0.320794 0.930993
vt 0.320793 0.948767
vt 0.367772 0.930995
vt 0.326711 0.916334
vt 0.360749 0.916336
vt 0.575382 0.977506
vt 0.575383 0.959731
vt 0.690748 0.959737
vt 0.690747 0.977512
vt 0.575381 0.995280
vt 0.690746 0.995286
vt 0.325972 0.965755
vt 0.343305 0.965756
vt 0.343304 0.983530
vt 0.325971 0.983529
vt 0.341380 0.983530
vt 0.359155 0.983531
vt 0.359154 0.998190
vt 0.341379 0.998189
vt 0.367771 0.948770
vt 0.201740 0.913973
vt 0.201741 0.896199
vt 0.541345 0.977504
vt 0.541345 0.959730
vt 0.541344 0.995278
vt 0.242800 0.928634
vt 0.208763 0.928632
vt 0.359156 0.965757
vt 0.331007 0.998188
vt 0.313232 0.998187
vt 0.313233 0.983529
vt 0.331007 0.983530
vt 0.208765 0.881540
vt 0.242803 0.881542
vt 0.360747 0.963428
vt 0.326709 0.963426
vt 0.313234 0.965754
vt 0.268616 0.975666
vt 0.268617 0.965752
vt 0.313233 0.975668
vt 0.223999 0.965750
vt 0.223998 0.983524
vt 0.220068 0.979594
vt 0.220069 0.969680
vt 0.331466 0.993444
vt 0.331466 0.983530
vt 0.341380 0.993444
vt 0.223999 0.975664
vt 0.313233 0.985582
vt 0.268616 0.985580
vt 0.223998 0.985578
s 0
usemtl Material.010
f 81/182/35 82/183/35 84/184/35 83/185/35
f 83/186/36 84/187/36 101/188/36 102/189/36
f 87/190/37 88/191/37 86/192/37 85/193/37
f 91/194/37 86/192/37 95/195/37 99/196/37
f 83/197/38 87/198/38 85/199/38 81/200/38
f 88/201/39 84/197/39 82/200/39 86/202/39
f 92/203/40 91/204/40 90/205/40 89/206/40
f 81/207/41 85/208/41 94/209/41 93/210/41
f 85/193/37 86/192/37 91/194/37 92/211/37
f 82/183/35 81/182/35 89/212/35 90/213/35
f 93/214/38 94/215/38 98/198/38 97/197/38
f 95/216/39 96/214/39 100/197/39 99/201/39
f 89/212/35 81/182/35 93/217/35 97/218/35
f 90/205/42 91/204/42 99/219/42 100/208/42
f 86/220/43 82/221/43 96/222/43 95/223/43
f 82/183/35 90/213/35 100/224/35 96/225/35
f 85/193/37 92/211/37 98/226/37 94/227/37
f 92/203/44 89/206/44 97/222/44 98/228/44
f 102/229/35 101/230/35 105/228/35 106/231/35
f 88/232/36 87/233/36 103/234/36 104/235/36
f 87/233/36 83/186/36 102/189/36 103/234/36
f 84/187/36 88/232/36 104/235/36 101/188/36
f 106/236/36 105/237/36 108/207/36 107/238/36
f 104/230/37 103/229/37 107/239/37 108/232/37
f 103/231/38 102/240/38 106/241/38 107/229/38
f 101/229/39 104/241/39 108/242/39 105/239/39
o Cube.003
v -1.849484 2.215932 4.760857
v -1.849484 1.548910 4.760857
v -1.849484 2.215932 5.081835
v -1.849484 1.548910 5.081835
v -1.614031 2.215932 4.760857
v -1.614031 1.548910 4.760857
v -1.614031 2.215932 5.081835
v -1.614031 1.548910 5.081835
vn -1.0000 -0.0000 -0.0000
vn -0.0000 -0.0000 1.0000
vn 1.0000 -0.0000 -0.0000
vn -0.0000 -0.0000 -1.0000
vn -0.0000 1.0000 -0.0000
vn -0.0000 -1.0000 -0.0000
vt 0.443526 0.931079
vt 0.443526 0.798484
vt 0.507332 0.798484
vt 0.507332 0.931079
vt 0.571138 0.931079
vt 0.571138 0.798484
vt 0.617943 0.798484
vt 0.617943 0.931079
vt 0.664748 0.798484
vt 0.664748 0.931079
vt 0.490331 0.994885
vt 0.443526 0.994885
vt 0.490331 0.931079
vt 0.537136 0.994885
vt 0.537136 0.931079
s 0
usemtl Material.009
f 109/243/45 110/244/45 112/245/45 111/246/45
f 111/247/46 112/248/46 116/249/46 115/250/46
f 115/246/47 116/245/47 114/248/47 113/247/47
f 113/250/48 114/249/48 110/251/48 109/252/48
f 111/253/49 115/254/49 113/243/49 109/255/49
f 116/256/50 112/253/50 110/255/50 114/257/50
