# Blender 5.0.1
# www.blender.org
mtllib railing.mtl
o Cube.008
v -8.814801 -0.017167 0.054746
v -8.814801 -0.017167 -0.042040
v -8.663158 -0.017167 0.054746
v -8.663158 -0.017167 -0.042040
v -8.465873 1.822589 0.054746
v -8.465873 1.822589 -0.042040
v -8.314230 1.822589 -0.042040
v -8.314230 1.822589 0.054746
v -8.814801 1.116899 -0.042040
v -8.663158 1.116899 -0.042040
v -8.663158 1.116899 0.054746
v -8.814801 1.116899 0.054746
v -8.814801 0.124566 -0.042040
v -8.663158 0.124566 -0.042040
v -8.663158 0.124566 0.054746
v -8.814801 0.124566 0.054746
v -8.363814 0.044085 -0.042040
v -8.363814 -0.017167 -0.042040
v -8.363814 -0.017167 0.054746
v -8.363814 0.044085 0.054746
vn -0.0000 -1.0000 -0.0000
vn -0.0000 -0.0000 1.0000
vn 0.8964 -0.4432 -0.0000
vn -0.0000 -0.0000 -1.0000
vn -0.8964 0.4432 -0.0000
vn -1.0000 -0.0000 -0.0000
vn 1.0000 -0.0000 -0.0000
vn 0.2596 0.9657 -0.0000
vt 0.920237 0.287824
vt 0.920237 0.304433
vt 0.909636 0.304433
vt 0.909636 0.287824
vt 0.819107 0.366119
vt 0.782986 0.287824
vt 0.799589 0.288272
vt 0.835710 0.366566
vt 0.899036 0.370009
vt 0.899036 0.287824
vt 0.909636 0.370009
vt 0.871832 0.288272
vt 0.888435 0.287824
vt 0.852314 0.366119
vt 0.888435 0.370009
vt 0.888435 0.287824
vt 0.899036 0.287824
vt 0.888435 0.477447
vt 0.899036 0.477447
vt 0.838639 0.475215
vt 0.855242 0.474768
vt 0.909636 0.477447
vt 0.816179 0.474768
vt 0.832782 0.475215
vt 0.815761 0.490286
vt 0.832364 0.490734
vt 0.855660 0.490286
vt 0.888254 0.482696
vt 0.888435 0.489403
vt 0.839057 0.490734
vt 0.888435 0.492792
vt 0.899036 0.492792
vt 0.916268 0.381772
vt 0.909636 0.381772
vt 0.909636 0.371171
vt 0.916268 0.371171
vt 0.909636 0.337220
vt 0.920237 0.337220
vt 0.920237 0.371171
vt 0.782986 0.489403
vt 0.783167 0.482696
s 0
usemtl Material.018
f 2/1/1 4/2/1 3/3/1 1/4/1
f 11/5/2 8/6/2 5/7/2 12/8/2
f 10/9/3 7/10/3 8/4/3 11/11/3
f 9/8/4 6/12/4 7/13/4 10/14/4
f 12/15/5 5/16/5 6/17/5 9/9/5
f 16/18/6 12/15/6 9/9/6 13/19/6
f 13/20/4 9/8/4 10/14/4 14/21/4
f 14/19/7 10/9/7 11/11/7 15/22/7
f 15/23/2 11/5/2 12/8/2 16/24/2
f 3/25/2 15/23/2 16/24/2 1/26/2
f 4/27/4 14/21/4 17/28/4 18/29/4
f 2/30/4 13/20/4 14/21/4 4/27/4
f 1/31/6 16/18/6 13/19/6 2/32/6
f 18/33/7 17/34/7 20/35/7 19/36/7
f 14/37/8 15/38/8 20/39/8 17/35/8
f 15/23/2 3/25/2 19/40/2 20/41/2
f 3/3/1 4/2/1 18/38/1 19/37/1
o Cube.009
v -8.550094 1.792769 3.590884
v -8.474955 1.991924 3.590884
v -8.550094 1.792769 -3.590884
v -8.474955 1.991924 -3.590884
v -8.222377 1.792769 3.590884
v -8.297516 1.991924 3.590884
v -8.222377 1.792769 -3.590884
v -8.297516 1.991924 -3.590884
v -8.550094 1.871653 3.590884
v -8.550094 1.871653 -3.590884
v -8.222377 1.871653 -3.590884
v -8.222377 1.871653 3.590884
vn -0.8481 0.5298 -0.0000
vn -0.0000 -0.0000 -1.0000
vn 0.8481 0.5298 -0.0000
vn -0.0000 -0.0000 1.0000
vn -0.0000 -1.0000 -0.0000
vn -0.0000 1.0000 -0.0000
vn 1.0000 -0.0000 -0.0000
vn -1.0000 -0.0000 -0.0000
vt 0.961978 0.287391
vt 0.970584 0.287391
vt 0.970559 0.751673
vt 0.961954 0.751673
vt 0.924980 0.730982
vt 0.932573 0.735726
vt 0.932572 0.746928
vt 0.924979 0.751671
vt 0.948585 0.287390
vt 0.957191 0.287390
vt 0.957166 0.751673
vt 0.948561 0.751672
vt 0.924981 0.710294
vt 0.932574 0.715037
vt 0.932573 0.726239
vt 0.991273 0.287392
vt 0.991248 0.751674
vt 0.932597 0.287389
vt 0.943798 0.287390
vt 0.943773 0.751672
vt 0.932572 0.751671
vt 0.920002 0.710293
vt 0.920000 0.730982
vt 0.919999 0.751670
vt 0.957166 0.751673
s 0
usemtl Material.017
f 29/42/9 22/43/9 24/44/9 30/45/9
f 30/46/10 24/47/10 28/48/10 31/49/10
f 31/50/11 28/51/11 26/52/11 32/53/11
f 32/54/12 26/55/12 22/56/12 29/46/12
f 23/43/13 27/57/13 25/58/13 21/44/13
f 28/59/14 24/60/14 22/61/14 26/62/14
f 25/63/12 32/54/12 29/46/12 21/64/12
f 27/60/15 31/50/15 32/53/15 25/61/15
f 23/64/10 30/46/10 31/49/10 27/65/10
f 21/51/16 29/42/16 30/45/16 23/66/16
o Cube.011
v -8.814801 -0.017167 -0.951607
v -8.814801 -0.017167 -1.048393
v -8.663158 -0.017167 -0.951607
v -8.663158 -0.017167 -1.048393
v -8.465873 1.822589 -0.951607
v -8.465873 1.822589 -1.048393
v -8.314230 1.822589 -1.048393
v -8.314230 1.822589 -0.951607
v -8.814801 1.116899 -1.048393
v -8.663158 1.116899 -1.048393
v -8.663158 1.116899 -0.951607
v -8.814801 1.116899 -0.951607
v -8.814801 0.124566 -1.048393
v -8.663158 0.124566 -1.048393
v -8.663158 0.124566 -0.951607
v -8.814801 0.124566 -0.951607
v -8.363814 0.044085 -1.048393
v -8.363814 -0.017167 -1.048393
v -8.363814 -0.017167 -0.951607
v -8.363814 0.044085 -0.951607
vn -0.0000 -1.0000 -0.0000
vn -0.0000 -0.0000 1.0000
vn 0.8964 -0.4432 -0.0000
vn -0.0000 -0.0000 -1.0000
vn -0.8964 0.4432 -0.0000
vn -1.0000 -0.0000 -0.0000
vn 1.0000 -0.0000 -0.0000
vn 0.2596 0.9657 -0.0000
vt 0.920237 0.287824
vt 0.920237 0.304433
vt 0.909636 0.304433
vt 0.909636 0.287824
vt 0.819107 0.366119
vt 0.782986 0.287824
vt 0.799589 0.288272
vt 0.835710 0.366566
vt 0.899036 0.370009
vt 0.899036 0.287824
vt 0.909636 0.370009
vt 0.871832 0.288272
vt 0.888435 0.287824
vt 0.852314 0.366119
vt 0.888435 0.370009
vt 0.888435 0.287824
vt 0.899036 0.287824
vt 0.888435 0.477447
vt 0.899036 0.477447
vt 0.838639 0.475215
vt 0.855242 0.474768
vt 0.909636 0.477447
vt 0.816179 0.474768
vt 0.832782 0.475215
vt 0.815761 0.490286
vt 0.832364 0.490734
vt 0.855660 0.490286
vt 0.888254 0.482696
vt 0.888435 0.489403
vt 0.839057 0.490734
vt 0.888435 0.492792
vt 0.899036 0.492792
vt 0.916268 0.381772
vt 0.909636 0.381772
vt 0.909636 0.371171
vt 0.916268 0.371171
vt 0.909636 0.337220
vt 0.920237 0.337220
vt 0.920237 0.371171
vt 0.782986 0.489403
vt 0.783167 0.482696
s 0
usemtl Material.019
f 34/67/17 36/68/17 35/69/17 33/70/17
f 43/71/18 40/72/18 37/73/18 44/74/18
f 42/75/19 39/76/19 40/70/19 43/77/19
f 41/74/20 38/78/20 39/79/20 42/80/20
f 44/81/21 37/82/21 38/83/21 41/75/21
f 48/84/22 44/81/22 41/75/22 45/85/22
f 45/86/20 41/74/20 42/80/20 46/87/20
f 46/85/23 42/75/23 43/77/23 47/88/23
f 47/89/18 43/71/18 44/74/18 48/90/18
f 35/91/18 47/89/18 48/90/18 33/92/18
f 36/93/20 46/87/20 49/94/20 50/95/20
f 34/96/20 45/86/20 46/87/20 36/93/20
f 33/97/22 48/84/22 45/85/22 34/98/22
f 50/99/23 49/100/23 52/101/23 51/102/23
f 46/103/24 47/104/24 52/105/24 49/101/24
f 47/89/18 35/91/18 51/106/18 52/107/18
f 35/69/17 36/68/17 50/104/17 51/103/17
o Cube.012
v -8.814801 -0.017167 -1.951607
v -8.814801 -0.017167 -2.048393
v -8.663158 -0.017167 -1.951607
v -8.663158 -0.017167 -2.048393
v -8.465873 1.822589 -1.951607
v -8.465873 1.822589 -2.048393
v -8.314230 1.822589 -2.048393
v -8.314230 1.822589 -1.951607
v -8.814801 1.116899 -2.048393
v -8.663158 1.116899 -2.048393
v -8.663158 1.116899 -1.951607
v -8.814801 1.116899 -1.951607
v -8.814801 0.124566 -2.048393
v -8.663158 0.124566 -2.048393
v -8.663158 0.124566 -1.951607
v -8.814801 0.124566 -1.951607
v -8.363814 0.044085 -2.048393
v -8.363814 -0.017167 -2.048393
v -8.363814 -0.017167 -1.951607
v -8.363814 0.044085 -1.951607
vn -0.0000 -1.0000 -0.0000
vn -0.0000 -0.0000 1.0000
vn 0.8964 -0.4432 -0.0000
vn -0.0000 -0.0000 -1.0000
vn -0.8964 0.4432 -0.0000
vn -1.0000 -0.0000 -0.0000
vn 1.0000 -0.0000 -0.0000
vn 0.2596 0.9657 -0.0000
vt 0.920237 0.287824
vt 0.920237 0.304433
vt 0.909636 0.304433
vt 0.909636 0.287824
vt 0.819107 0.366119
vt 0.782986 0.287824
vt 0.799589 0.288272
vt 0.835710 0.366566
vt 0.899036 0.370009
vt 0.899036 0.287824
vt 0.909636 0.370009
vt 0.871832 0.288272
vt 0.888435 0.287824
vt 0.852314 0.366119
vt 0.888435 0.370009
vt 0.888435 0.287824
vt 0.899036 0.287824
vt 0.888435 0.477447
vt 0.899036 0.477447
vt 0.838639 0.475215
vt 0.855242 0.474768
vt 0.909636 0.477447
vt 0.816179 0.474768
vt 0.832782 0.475215
vt 0.815761 0.490286
vt 0.832364 0.490734
vt 0.855660 0.490286
vt 0.888254 0.482696
vt 0.888435 0.489403
vt 0.839057 0.490734
vt 0.888435 0.492792
vt 0.899036 0.492792
vt 0.916268 0.381772
vt 0.909636 0.381772
vt 0.909636 0.371171
vt 0.916268 0.371171
vt 0.909636 0.337220
vt 0.920237 0.337220
vt 0.920237 0.371171
vt 0.782986 0.489403
vt 0.783167 0.482696
s 0
usemtl Material.020
f 54/108/25 56/109/25 55/110/25 53/111/25
f 63/112/26 60/113/26 57/114/26 64/115/26
f 62/116/27 59/117/27 60/111/27 63/118/27
f 61/115/28 58/119/28 59/120/28 62/121/28
f 64/122/29 57/123/29 58/124/29 61/116/29
f 68/125/30 64/122/30 61/116/30 65/126/30
f 65/127/28 61/115/28 62/121/28 66/128/28
f 66/126/31 62/116/31 63/118/31 67/129/31
f 67/130/26 63/112/26 64/115/26 68/131/26
f 55/132/26 67/130/26 68/131/26 53/133/26
f 56/134/28 66/128/28 69/135/28 70/136/28
f 54/137/28 65/127/28 66/128/28 56/134/28
f 53/138/30 68/125/30 65/126/30 54/139/30
f 70/140/31 69/141/31 72/142/31 71/143/31
f 66/144/32 67/145/32 72/146/32 69/142/32
f 67/130/26 55/132/26 71/147/26 72/148/26
f 55/110/25 56/109/25 70/145/25 71/144/25
o Cube.013
v -8.814801 -0.017167 1.046276
v -8.814801 -0.017167 0.949490
v -8.663158 -0.017167 1.046276
v -8.663158 -0.017167 0.949490
v -8.465873 1.822589 1.046276
v -8.465873 1.822589 0.949490
v -8.314230 1.822589 0.949490
v -8.314230 1.822589 1.046276
v -8.814801 1.116899 0.949490
v -8.663158 1.116899 0.949490
v -8.663158 1.116899 1.046276
v -8.814801 1.116899 1.046276
v -8.814801 0.124566 0.949490
v -8.663158 0.124566 0.949490
v -8.663158 0.124566 1.046276
v -8.814801 0.124566 1.046276
v -8.363814 0.044085 0.949490
v -8.363814 -0.017167 0.949490
v -8.363814 -0.017167 1.046276
v -8.363814 0.044085 1.046276
vn -0.0000 -1.0000 -0.0000
vn -0.0000 -0.0000 1.0000
vn 0.8964 -0.4432 -0.0000
vn -0.0000 -0.0000 -1.0000
vn -0.8964 0.4432 -0.0000
vn -1.0000 -0.0000 -0.0000
vn 1.0000 -0.0000 -0.0000
vn 0.2596 0.9657 -0.0000
vt 0.920237 0.287824
vt 0.920237 0.304433
vt 0.909636 0.304433
vt 0.909636 0.287824
vt 0.819107 0.366119
vt 0.782986 0.287824
vt 0.799589 0.288272
vt 0.835710 0.366566
vt 0.899036 0.370009
vt 0.899036 0.287824
vt 0.909636 0.370009
vt 0.871832 0.288272
vt 0.888435 0.287824
vt 0.852314 0.366119
vt 0.888435 0.370009
vt 0.888435 0.287824
vt 0.899036 0.287824
vt 0.888435 0.477447
vt 0.899036 0.477447
vt 0.838639 0.475215
vt 0.855242 0.474768
vt 0.909636 0.477447
vt 0.816179 0.474768
vt 0.832782 0.475215
vt 0.815761 0.490286
vt 0.832364 0.490734
vt 0.855660 0.490286
vt 0.888254 0.482696
vt 0.888435 0.489403
vt 0.839057 0.490734
vt 0.888435 0.492792
vt 0.899036 0.492792
vt 0.916268 0.381772
vt 0.909636 0.381772
vt 0.909636 0.371171
vt 0.916268 0.371171
vt 0.909636 0.337220
vt 0.920237 0.337220
vt 0.920237 0.371171
vt 0.782986 0.489403
vt 0.783167 0.482696
s 0
usemtl Material.021
f 74/149/33 76/150/33 75/151/33 73/152/33
f 83/153/34 80/154/34 77/155/34 84/156/34
f 82/157/35 79/158/35 80/152/35 83/159/35
f 81/156/36 78/160/36 79/161/36 82/162/36
f 84/163/37 77/164/37 78/165/37 81/157/37
f 88/166/38 84/163/38 81/157/38 85/167/38
f 85/168/36 81/156/36 82/162/36 86/169/36
f 86/167/39 82/157/39 83/159/39 87/170/39
f 87/171/34 83/153/34 84/156/34 88/172/34
f 75/173/34 87/171/34 88/172/34 73/174/34
f 76/175/36 86/169/36 89/176/36 90/177/36
f 74/178/36 85/168/36 86/169/36 76/175/36
f 73/179/38 88/166/38 85/167/38 74/180/38
f 90/181/39 89/182/39 92/183/39 91/184/39
f 86/185/40 87/186/40 92/187/40 89/183/40
f 87/171/34 75/173/34 91/188/34 92/189/34
f 75/151/33 76/150/33 90/186/33 91/185/33
o Cube.014
v -8.814801 -0.017167 2.046276
v -8.814801 -0.017167 1.949490
v -8.663158 -0.017167 2.046276
v -8.663158 -0.017167 1.949490
v -8.465873 1.822589 2.046276
v -8.465873 1.822589 1.949490
v -8.314230 1.822589 1.949490
v -8.314230 1.822589 2.046276
v -8.814801 1.116899 1.949490
v -8.663158 1.116899 1.949490
v -8.663158 1.116899 2.046276
v -8.814801 1.116899 2.046276
v -8.814801 0.124566 1.949490
v -8.663158 0.124566 1.949490
v -8.663158 0.124566 2.046276
v -8.814801 0.124566 2.046276
v -8.363814 0.044085 1.949490
v -8.363814 -0.017167 1.949490
v -8.363814 -0.017167 2.046276
v -8.363814 0.044085 2.046276
vn -0.0000 -1.0000 -0.0000
vn -0.0000 -0.0000 1.0000
vn 0.8964 -0.4432 -0.0000
vn -0.0000 -0.0000 -1.0000
vn -0.8964 0.4432 -0.0000
vn -1.0000 -0.0000 -0.0000
vn 1.0000 -0.0000 -0.0000
vn 0.2596 0.9657 -0.0000
vt 0.920237 0.287824
vt 0.920237 0.304433
vt 0.909636 0.304433
vt 0.909636 0.287824
vt 0.819107 0.366119
vt 0.782986 0.287824
vt 0.799589 0.288272
vt 0.835710 0.366566
vt 0.899036 0.370009
vt 0.899036 0.287824
vt 0.909636 0.370009
vt 0.871832 0.288272
vt 0.888435 0.287824
vt 0.852314 0.366119
vt 0.888435 0.370009
vt 0.888435 0.287824
vt 0.899036 0.287824
vt 0.888435 0.477447
vt 0.899036 0.477447
vt 0.838639 0.475215
vt 0.855242 0.474768
vt 0.909636 0.477447
vt 0.816179 0.474768
vt 0.832782 0.475215
vt 0.815761 0.490286
vt 0.832364 0.490734
vt 0.855660 0.490286
vt 0.888254 0.482696
vt 0.888435 0.489403
vt 0.839057 0.490734
vt 0.888435 0.492792
vt 0.899036 0.492792
vt 0.916268 0.381772
vt 0.909636 0.381772
vt 0.909636 0.371171
vt 0.916268 0.371171
vt 0.909636 0.337220
vt 0.920237 0.337220
vt 0.920237 0.371171
vt 0.782986 0.489403
vt 0.783167 0.482696
s 0
usemtl Material.022
f 94/190/41 96/191/41 95/192/41 93/193/41
f 103/194/42 100/195/42 97/196/42 104/197/42
f 102/198/43 99/199/43 100/193/43 103/200/43
f 101/197/44 98/201/44 99/202/44 102/203/44
f 104/204/45 97/205/45 98/206/45 101/198/45
f 108/207/46 104/204/46 101/198/46 105/208/46
f 105/209/44 101/197/44 102/203/44 106/210/44
f 106/208/47 102/198/47 103/200/47 107/211/47
f 107/212/42 103/194/42 104/197/42 108/213/42
f 95/214/42 107/212/42 108/213/42 93/215/42
f 96/216/44 106/210/44 109/217/44 110/218/44
f 94/219/44 105/209/44 106/210/44 96/216/44
f 93/220/46 108/207/46 105/208/46 94/221/46
f 110/222/47 109/223/47 112/224/47 111/225/47
f 106/226/48 107/227/48 112/228/48 109/224/48
f 107/212/42 95/214/42 111/229/42 112/230/42
f 95/192/41 96/191/41 110/227/41 111/226/41
o Cube.015
v -8.814801 -0.017167 3.052628
v -8.814801 -0.017167 2.955842
v -8.663158 -0.017167 3.052628
v -8.663158 -0.017167 2.955842
v -8.465873 1.822589 3.052628
v -8.465873 1.822589 2.955842
v -8.314230 1.822589 2.955842
v -8.314230 1.822589 3.052628
v -8.814801 1.116899 2.955842
v -8.663158 1.116899 2.955842
v -8.663158 1.116899 3.052628
v -8.814801 1.116899 3.052628
v -8.814801 0.124566 2.955842
v -8.663158 0.124566 2.955842
v -8.663158 0.124566 3.052628
v -8.814801 0.124566 3.052628
v -8.363814 0.044085 2.955842
v -8.363814 -0.017167 2.955842
v -8.363814 -0.017167 3.052628
v -8.363814 0.044085 3.052628
vn -0.0000 -1.0000 -0.0000
vn -0.0000 -0.0000 1.0000
vn 0.8964 -0.4432 -0.0000
vn -0.0000 -0.0000 -1.0000
vn -0.8964 0.4432 -0.0000
vn -1.0000 -0.0000 -0.0000
vn 1.0000 -0.0000 -0.0000
vn 0.2596 0.9657 -0.0000
vt 0.920237 0.287824
vt 0.920237 0.304433
vt 0.909636 0.304433
vt 0.909636 0.287824
vt 0.819107 0.366119
vt 0.782986 0.287824
vt 0.799589 0.288272
vt 0.835710 0.366566
vt 0.899036 0.370009
vt 0.899036 0.287824
vt 0.909636 0.370009
vt 0.871832 0.288272
vt 0.888435 0.287824
vt 0.852314 0.366119
vt 0.888435 0.370009
vt 0.888435 0.287824
vt 0.899036 0.287824
vt 0.888435 0.477447
vt 0.899036 0.477447
vt 0.838639 0.475215
vt 0.855242 0.474768
vt 0.909636 0.477447
vt 0.816179 0.474768
vt 0.832782 0.475215
vt 0.815761 0.490286
vt 0.832364 0.490734
vt 0.855660 0.490286
vt 0.888254 0.482696
vt 0.888435 0.489403
vt 0.839057 0.490734
vt 0.888435 0.492792
vt 0.899036 0.492792
vt 0.916268 0.381772
vt 0.909636 0.381772
vt 0.909636 0.371171
vt 0.916268 0.371171
vt 0.909636 0.337220
vt 0.920237 0.337220
vt 0.920237 0.371171
vt 0.782986 0.489403
vt 0.783167 0.482696
s 0
usemtl Material.023
f 114/231/49 116/232/49 115/233/49 113/234/49
f 123/235/50 120/236/50 117/237/50 124/238/50
f 122/239/51 119/240/51 120/234/51 123/241/51
f 121/238/52 118/242/52 119/243/52 122/244/52
f 124/245/53 117/246/53 118/247/53 121/239/53
f 128/248/54 124/245/54 121/239/54 125/249/54
f 125/250/52 121/238/52 122/244/52 126/251/52
f 126/249/55 122/239/55 123/241/55 127/252/55
f 127/253/50 123/235/50 124/238/50 128/254/50
f 115/255/50 127/253/50 128/254/50 113/256/50
f 116/257/52 126/251/52 129/258/52 130/259/52
f 114/260/52 125/250/52 126/251/52 116/257/52
f 113/261/54 128/248/54 125/249/54 114/262/54
f 130/263/55 129/264/55 132/265/55 131/266/55
f 126/267/56 127/268/56 132/269/56 129/265/56
f 127/253/50 115/255/50 131/270/50 132/271/50
f 115/233/49 116/232/49 130/268/49 131/267/49
o Cube.016
v -8.814801 -0.017167 -2.951607
v -8.814801 -0.017167 -3.048393
v -8.663158 -0.017167 -2.951607
v -8.663158 -0.017167 -3.048393
v -8.465873 1.822589 -2.951607
v -8.465873 1.822589 -3.048393
v -8.314230 1.822589 -3.048393
v -8.314230 1.822589 -2.951607
v -8.814801 1.116899 -3.048393
v -8.663158 1.116899 -3.048393
v -8.663158 1.116899 -2.951607
v -8.814801 1.116899 -2.951607
v -8.814801 0.124566 -3.048393
v -8.663158 0.124566 -3.048393
v -8.663158 0.124566 -2.951607
v -8.814801 0.124566 -2.951607
v -8.363814 0.044085 -3.048393
v -8.363814 -0.017167 -3.048393
v -8.363814 -0.017167 -2.951607
v -8.363814 0.044085 -2.951607
vn -0.0000 -1.0000 -0.0000
vn -0.0000 -0.0000 1.0000
vn 0.8964 -0.4432 -0.0000
vn -0.0000 -0.0000 -1.0000
vn -0.8964 0.4432 -0.0000
vn -1.0000 -0.0000 -0.0000
vn 1.0000 -0.0000 -0.0000
vn 0.2596 0.9657 -0.0000
vt 0.920237 0.287824
vt 0.920237 0.304433
vt 0.909636 0.304433
vt 0.909636 0.287824
vt 0.819107 0.366119
vt 0.782986 0.287824
vt 0.799589 0.288272
vt 0.835710 0.366566
vt 0.899036 0.370009
vt 0.899036 0.287824
vt 0.909636 0.370009
vt 0.871832 0.288272
vt 0.888435 0.287824
vt 0.852314 0.366119
vt 0.888435 0.370009
vt 0.888435 0.287824
vt 0.899036 0.287824
vt 0.888435 0.477447
vt 0.899036 0.477447
vt 0.838639 0.475215
vt 0.855242 0.474768
vt 0.909636 0.477447
vt 0.816179 0.474768
vt 0.832782 0.475215
vt 0.815761 0.490286
vt 0.832364 0.490734
vt 0.855660 0.490286
vt 0.888254 0.482696
vt 0.888435 0.489403
vt 0.839057 0.490734
vt 0.888435 0.492792
vt 0.899036 0.492792
vt 0.916268 0.381772
vt 0.909636 0.381772
vt 0.909636 0.371171
vt 0.916268 0.371171
vt 0.909636 0.337220
vt 0.920237 0.337220
vt 0.920237 0.371171
vt 0.782986 0.489403
vt 0.783167 0.482696
s 0
usemtl Material.024
f 134/272/57 136/273/57 135/274/57 133/275/57
f 143/276/58 140/277/58 137/278/58 144/279/58
f 142/280/59 139/281/59 140/275/59 143/282/59
f 141/279/60 138/283/60 139/284/60 142/285/60
f 144/286/61 137/287/61 138/288/61 141/280/61
f 148/289/62 144/286/62 141/280/62 145/290/62
f 145/291/60 141/279/60 142/285/60 146/292/60
f 146/290/63 142/280/63 143/282/63 147/293/63
f 147/294/58 143/276/58 144/279/58 148/295/58
f 135/296/58 147/294/58 148/295/58 133/297/58
f 136/298/60 146/292/60 149/299/60 150/300/60
f 134/301/60 145/291/60 146/292/60 136/298/60
f 133/302/62 148/289/62 145/290/62 134/303/62
f 150/304/63 149/305/63 152/306/63 151/307/63
f 146/308/64 147/309/64 152/310/64 149/306/64
f 147/294/58 135/296/58 151/311/58 152/312/58
f 135/274/57 136/273/57 150/309/57 151/308/57
