# Blender 5.0.1
# www.blender.org
mtllib wrench.mtl
o Cube
v -0.522318 -0.029392 -2.164469
v -0.522318 0.029392 -2.164469
v -0.522318 -0.029392 -2.301658
v -0.522318 0.029392 -2.301658
v 0.522318 -0.029392 -1.903385
v 0.522318 0.029392 -1.903385
v 0.522318 -0.029392 -2.040575
v 0.522318 0.029392 -2.040575
v 0.589820 0.029392 -2.040575
v 0.589820 -0.029392 -2.040575
v 0.589820 -0.029392 -1.903385
v 0.589820 0.029392 -1.903385
v 0.553224 0.029392 -2.091892
v 0.553224 -0.029392 -2.091892
v 0.589820 0.029392 -2.091892
v 0.589820 -0.029392 -2.091892
v 0.553224 0.029392 -1.863957
v 0.553224 -0.029392 -1.863957
v 0.589820 0.029392 -1.863957
v 0.589820 -0.029392 -1.863957
v 0.797748 0.029392 -1.903385
v 0.797748 -0.029392 -1.903385
v 0.797748 0.029392 -1.863957
v 0.797748 -0.029392 -1.863957
v 0.802359 0.029392 -2.040575
v 0.802359 -0.029392 -2.040575
v 0.802359 0.029392 -2.091892
v 0.802359 -0.029392 -2.091892
v 0.553224 0.029392 -2.150790
v 0.553224 -0.029392 -2.150790
v 0.589820 0.029392 -2.150790
v 0.589820 -0.029392 -2.150790
v 0.713342 0.029392 -2.150790
v 0.713342 -0.029392 -2.150790
v 0.553224 0.029392 -1.764444
v 0.553224 -0.029392 -1.764444
v 0.589820 0.029392 -1.764444
v 0.589820 -0.029392 -1.764444
v 0.645423 0.029392 -1.903385
v 0.645423 -0.029392 -1.903385
v 0.645423 -0.029392 -1.863957
v 0.645423 0.029392 -1.863957
v 0.797748 0.029392 -1.809116
v 0.797748 -0.029392 -1.809116
v 0.645423 -0.029392 -1.809116
v 0.645423 0.029392 -1.809116
vn -1.0000 -0.0000 -0.0000
vn 0.2425 -0.0000 -0.9702
vn -0.0000 1.0000 -0.0000
vn -0.2425 -0.0000 0.9702
vn -0.0000 -1.0000 -0.0000
vn 1.0000 -0.0000 -0.0000
vn -0.8566 -0.0000 -0.5159
vn -0.0000 -0.0000 -1.0000
vn -0.7870 -0.0000 0.6169
vn -0.0000 -0.0000 1.0000
vn 0.5518 -0.0000 -0.8340
vt 0.170419 0.801496
vt 0.161863 0.801496
vt 0.161863 0.781638
vt 0.170419 0.781638
vt 0.144750 0.935366
vt 0.136194 0.935366
vt 0.136194 0.781638
vt 0.144750 0.781638
vt 0.116899 0.825517
vt 0.097077 0.823097
vt 0.098268 0.813344
vt 0.118090 0.815764
vt 0.153307 0.935366
vt 0.153307 0.781638
vt 0.018901 0.981058
vt 0.038196 0.825517
vt 0.058018 0.823097
vt 0.038723 0.978638
vt 0.136194 0.981058
vt 0.116372 0.978638
vt 0.161863 0.921522
vt 0.153307 0.921522
vt 0.153307 0.901553
vt 0.161863 0.901553
vt 0.170419 0.837560
vt 0.161863 0.837560
vt 0.161863 0.829657
vt 0.170419 0.829657
vt 0.056827 0.813344
vt 0.062524 0.812648
vt 0.063169 0.817936
vt 0.037005 0.815764
vt 0.029590 0.816669
vt 0.030236 0.821957
vt 0.021726 0.822996
vt 0.021080 0.817708
vt 0.125505 0.816669
vt 0.124859 0.821957
vt 0.121840 0.785055
vt 0.129254 0.785960
vt 0.170419 0.852045
vt 0.161863 0.852045
vt 0.161863 0.871323
vt 0.153307 0.871323
vt 0.153307 0.849177
vt 0.161863 0.849177
vt 0.170419 0.806727
vt 0.161863 0.806727
vt 0.091926 0.817936
vt 0.092571 0.812648
vt 0.170419 0.865766
vt 0.161863 0.865766
vt 0.161863 0.860027
vt 0.170419 0.860027
vt 0.169328 0.921522
vt 0.169328 0.930079
vt 0.161391 0.930079
vt 0.161391 0.921522
vt 0.099249 0.805310
vt 0.093552 0.804614
vt 0.096239 0.782606
vt 0.101936 0.783301
vt 0.061543 0.804614
vt 0.055846 0.805310
vt 0.053159 0.783301
vt 0.058856 0.782606
vt 0.169333 0.865766
vt 0.169333 0.874323
vt 0.161863 0.874323
vt 0.161863 0.865766
vt 0.025841 0.785960
vt 0.033256 0.785055
vt 0.153307 0.818277
vt 0.161863 0.818277
vt 0.136194 0.799861
vt 0.134015 0.817708
vt 0.161863 0.818277
vt 0.153307 0.818277
vt 0.153307 0.812956
vt 0.161863 0.812956
vt 0.153307 0.794998
vt 0.161863 0.794998
vt 0.153307 0.781638
vt 0.018901 0.799861
vt 0.133369 0.822996
vt 0.161863 0.821131
vt 0.170419 0.821131
vt 0.167184 0.874323
vt 0.167184 0.882879
vt 0.161863 0.882879
vt 0.077548 0.816180
vt 0.078193 0.810893
vt 0.076902 0.810893
vt 0.153307 0.930079
vt 0.161863 0.879407
vt 0.153307 0.879407
vt 0.153307 0.879407
vt 0.161863 0.879407
vt 0.066779 0.781638
vt 0.069467 0.803647
vt 0.085629 0.803647
vt 0.088316 0.781638
s 0
usemtl Material.003
f 1/1/1 2/2/1 4/3/1 3/4/1
f 3/5/2 4/6/2 8/7/2 7/8/2
f 8/9/3 6/10/3 12/11/3 9/12/3
f 5/13/4 6/5/4 2/8/4 1/14/4
f 3/15/5 7/16/5 5/17/5 1/18/5
f 8/9/3 4/19/3 2/20/3 6/10/3
f 10/21/6 9/22/6 12/23/6 11/24/6
f 7/25/7 8/26/7 13/27/7 14/28/7
f 5/17/5 11/29/5 20/30/5 18/31/5
f 5/17/5 7/16/5 10/32/5 11/29/5
f 16/33/5 14/34/5 30/35/5 32/36/5
f 8/9/3 9/12/3 15/37/3 13/38/3
f 10/32/5 7/16/5 14/34/5 16/33/5
f 15/37/3 9/12/3 25/39/3 27/40/3
f 20/41/6 19/42/6 37/26/6 38/25/6
f 40/43/8 39/44/8 21/45/8 22/46/8
f 6/2/9 5/1/9 18/47/9 17/48/9
f 12/11/3 6/10/3 17/49/3 19/50/3
f 22/51/6 21/52/6 23/53/6 24/54/6
f 42/55/1 41/56/1 45/57/1 46/58/1
f 39/59/3 42/60/3 23/61/3 21/62/3
f 41/63/5 40/64/5 22/65/5 24/66/5
f 25/67/6 26/68/6 28/69/6 27/70/6
f 10/32/5 16/33/5 28/71/5 26/72/5
f 9/73/10 10/74/10 26/46/10 25/45/10
f 15/37/3 27/40/3 33/75/3 31/76/3
f 30/77/8 29/78/8 31/79/8 32/80/8
f 32/80/8 31/79/8 33/81/8 34/82/8
f 27/83/11 28/3/11 34/82/11 33/81/11
f 28/71/5 16/33/5 32/36/5 34/84/5
f 13/38/3 15/37/3 31/76/3 29/85/3
f 14/28/1 13/27/1 29/86/1 30/87/1
f 35/88/10 36/89/10 38/90/10 37/69/10
f 19/50/3 17/49/3 35/91/3 37/92/3
f 17/48/1 18/47/1 36/87/1 35/86/1
f 18/31/5 20/30/5 38/93/5 36/91/5
f 20/30/5 11/29/5 40/64/5 41/63/5
f 12/11/3 19/50/3 42/60/3 39/59/3
f 19/58/10 20/57/10 41/94/10 42/22/10
f 11/95/8 12/96/8 39/44/8 40/43/8
f 46/97/10 45/98/10 44/24/10 43/23/10
f 24/54/6 23/53/6 43/42/6 44/41/6
f 41/63/5 24/66/5 44/99/5 45/100/5
f 23/61/3 42/60/3 46/101/3 43/102/3
