# Blender 5.0.1
# www.blender.org
mtllib bossChair.mtl
o Cube
v -0.226534 2.226757 -1.396452
v -0.326534 2.226757 -1.296452
v -0.226534 2.326757 -1.296452
v -0.226534 1.831467 -1.296452
v -0.326534 1.931467 -1.296452
v -0.226534 1.931467 -1.396452
v -0.226534 2.226757 1.396452
v -0.226534 2.326757 1.296452
v -0.326534 2.226757 1.296452
v -0.226534 1.831467 1.296452
v -0.226534 1.931467 1.396452
v -0.326534 1.931467 1.296452
v 1.573466 2.326757 -0.844577
v 1.673466 2.226757 -0.785998
v 1.602755 2.226757 -0.956709
v 1.121590 2.326757 -1.296452
v 1.233722 2.226757 -1.325742
v 1.063011 2.226757 -1.396452
v 1.121590 1.831467 -1.296452
v 1.063011 1.931467 -1.396452
v 1.233722 1.931467 -1.325742
v 1.673466 1.931467 -0.785998
v 1.573466 1.831467 -0.844577
v 1.602755 1.931467 -0.956709
v 1.121590 2.326757 1.296452
v 1.063011 2.226757 1.396452
v 1.233722 2.226757 1.325742
v 1.573466 2.326757 0.844577
v 1.602755 2.226757 0.956709
v 1.673466 2.226757 0.785998
v 1.573466 1.831467 0.844577
v 1.673466 1.931467 0.785998
v 1.602755 1.931467 0.956709
v 1.063011 1.931467 1.396452
v 1.121590 1.831467 1.296452
v 1.233722 1.931467 1.325742
vn -0.5773 0.5774 -0.5773
vn -0.5773 -0.5774 -0.5773
vn -0.5773 0.5774 0.5773
vn -0.5773 -0.5774 0.5773
vn 0.7570 0.5733 -0.3135
vn 0.3135 0.5733 -0.7570
vn 0.3135 -0.5733 -0.7570
vn 0.7570 -0.5733 -0.3135
vn 0.3135 0.5733 0.7570
vn 0.7570 0.5733 0.3135
vn 0.7570 -0.5733 0.3135
vn 0.3135 -0.5733 0.7570
vn -0.7071 -0.7071 -0.0000
vn -0.7071 -0.0000 0.7071
vn -0.7071 -0.0000 -0.7071
vn -0.7071 0.7071 -0.0000
vn 0.5000 0.7071 -0.5000
vn 0.9239 -0.0000 -0.3827
vn 0.5000 -0.7071 -0.5000
vn 0.3827 -0.0000 -0.9239
vn 0.5000 0.7071 0.5000
vn 0.3827 -0.0000 0.9239
vn 0.5000 -0.7071 0.5000
vn 0.9239 -0.0000 0.3827
vn -0.0000 -0.7071 -0.7071
vn -0.0000 0.7071 -0.7071
vn 0.7071 -0.7071 -0.0000
vn 0.7071 0.7071 -0.0000
vn -0.0000 0.7071 0.7071
vn -0.0000 -0.7071 0.7071
vn -0.0000 -0.0000 -1.0000
vn -1.0000 -0.0000 -0.0000
vn -0.0000 1.0000 -0.0000
vn -0.0000 -1.0000 -0.0000
vn -0.0000 -0.0000 1.0000
vn 0.7071 -0.0000 -0.7071
vn 1.0000 -0.0000 -0.0000
vn 0.7071 -0.0000 0.7071
vt 0.970156 0.248791
vt 0.981512 0.260145
vt 0.970156 0.260146
vt 0.538652 0.260172
vt 0.527296 0.260173
vt 0.538651 0.248817
vt 0.970175 0.565936
vt 0.970174 0.554580
vt 0.981529 0.554580
vt 0.538669 0.554606
vt 0.538670 0.565962
vt 0.527314 0.554607
vt 0.765762 0.311470
vt 0.754407 0.318123
vt 0.762436 0.298738
vt 0.817072 0.260155
vt 0.804338 0.256830
vt 0.823723 0.248799
vt 0.691736 0.260163
vt 0.685084 0.248808
vt 0.704469 0.256836
vt 0.743052 0.311472
vt 0.746377 0.298739
vt 0.817089 0.554589
vt 0.823742 0.565944
vt 0.804356 0.557916
vt 0.765774 0.503280
vt 0.762449 0.516014
vt 0.754418 0.496629
vt 0.743063 0.503282
vt 0.746390 0.516014
vt 0.685103 0.565953
vt 0.691754 0.554597
vt 0.704487 0.557922
vt 0.880382 0.237441
vt 0.913913 0.237439
vt 0.913914 0.248794
vt 0.880382 0.248796
vt 0.515959 0.565963
vt 0.482428 0.565965
vt 0.482427 0.554610
vt 0.515959 0.554608
vt 0.857660 0.058936
vt 0.824129 0.058938
vt 0.824128 0.047582
vt 0.857660 0.047580
vt 0.936620 0.179473
vt 0.970151 0.179471
vt 0.970153 0.198856
vt 0.936621 0.198858
vt 0.913904 0.091006
vt 0.880373 0.091008
vt 0.880372 0.071623
vt 0.913903 0.071621
vt 0.880369 0.021688
vt 0.913900 0.021686
vt 0.913900 0.029716
vt 0.880369 0.029718
vt 0.936611 0.033040
vt 0.970143 0.033038
vt 0.482410 0.260175
vt 0.515941 0.260173
vt 0.970155 0.240761
vt 0.936624 0.240763
vt 0.857671 0.237442
vt 0.824140 0.237444
s 0
usemtl Material
f 1/1/1 2/2/1 3/3/1
f 4/4/2 5/5/2 6/6/2
f 7/7/3 8/8/3 9/9/3
f 10/10/4 11/11/4 12/12/4
f 13/13/5 14/14/5 15/15/5
f 16/16/6 17/17/6 18/18/6
f 19/19/7 20/20/7 21/21/7
f 22/14/8 23/22/8 24/23/8
f 25/24/9 26/25/9 27/26/9
f 28/27/10 29/28/10 30/29/10
f 31/30/11 32/29/11 33/31/11
f 34/32/12 35/33/12 36/34/12
f 4/4/13 10/10/13 12/12/13 5/5/13
f 11/35/14 7/36/14 9/37/14 12/38/14
f 1/39/15 6/40/15 5/41/15 2/42/15
f 8/8/16 3/3/16 2/2/16 9/9/16
f 16/16/17 13/13/17 15/15/17 17/17/17
f 14/43/18 22/44/18 24/45/18 15/46/18
f 23/22/19 19/19/19 21/21/19 24/23/19
f 20/47/20 18/48/20 17/49/20 21/50/20
f 28/27/21 25/24/21 27/26/21 29/28/21
f 26/51/22 34/52/22 36/53/22 27/54/22
f 35/33/23 31/30/23 33/31/23 36/34/23
f 32/55/24 30/56/24 29/57/24 33/58/24
f 19/19/25 4/4/25 6/6/25 20/20/25
f 3/3/26 16/16/26 18/18/26 1/1/26
f 31/30/27 23/22/27 22/14/27 32/29/27
f 13/13/28 28/27/28 30/29/28 14/14/28
f 7/7/29 26/25/29 25/24/29 8/8/29
f 34/32/30 11/11/30 10/10/30 35/33/30
f 6/59/31 1/60/31 18/48/31 20/47/31
f 12/61/32 9/62/32 2/42/32 5/41/32
f 13/13/33 16/16/33 3/3/33 8/8/33 25/24/33 28/27/33
f 4/4/34 19/19/34 23/22/34 31/30/34 35/33/34 10/10/34
f 34/52/35 26/51/35 7/36/35 11/35/35
f 15/63/36 24/64/36 21/50/36 17/49/36
f 22/44/37 14/43/37 30/65/37 32/66/37
f 27/54/38 36/53/38 33/58/38 29/57/38
o Cube.001
v -0.618847 2.663370 -1.238972
v -0.521644 2.686855 -1.138972
v -0.595361 2.566166 -1.138972
v -0.905877 2.594020 -1.238972
v -0.882392 2.496817 -1.138972
v -1.003080 2.570535 -1.138972
v -0.618847 2.663370 1.238972
v -0.595361 2.566166 1.138972
v -0.521644 2.686855 1.138972
v -0.905877 2.594020 1.238972
v -1.003080 2.570535 1.138972
v -0.882392 2.496817 1.138972
v -0.862535 4.097776 -1.138972
v -0.945981 4.017351 -1.238972
v -0.986073 4.183287 -1.168262
v -0.944377 4.436511 -0.790491
v -1.048459 4.441496 -0.902623
v -1.065065 4.510229 -0.731912
v -1.425813 4.320191 -0.790491
v -1.352095 4.440880 -0.731912
v -1.335489 4.372147 -0.902623
v -1.233011 3.948001 -1.238972
v -1.343972 3.981456 -1.138972
v -1.273103 4.113937 -1.168262
v -0.944377 4.436511 0.790491
v -1.065065 4.510229 0.731912
v -1.048459 4.441496 0.902623
v -0.945981 4.017351 1.238972
v -0.862535 4.097776 1.138972
v -0.986073 4.183287 1.168262
v -1.343972 3.981456 1.138972
v -1.233011 3.948001 1.238972
v -1.273103 4.113937 1.168262
v -1.425813 4.320191 0.790491
v -1.335489 4.372147 0.902623
v -1.352095 4.440880 0.731912
vn 0.6968 -0.4256 -0.5774
vn -0.4256 -0.6968 -0.5774
vn 0.6968 -0.4256 0.5773
vn -0.4256 -0.6968 0.5773
vn 0.4836 0.4394 -0.7570
vn 0.3795 0.8704 -0.3135
vn -0.7350 0.6012 -0.3135
vn -0.6309 0.1701 -0.7570
vn 0.3795 0.8704 0.3135
vn 0.4836 0.4394 0.7570
vn -0.6309 0.1701 0.7570
vn -0.7350 0.6012 0.3135
vn 0.1661 -0.6873 -0.7071
vn 0.1661 -0.6873 0.7071
vn 0.8534 -0.5213 -0.0000
vn -0.5213 -0.8534 -0.0000
vn -0.8048 0.3200 0.5000
vn -0.0899 0.3720 0.9239
vn 0.5699 0.6521 0.5000
vn -0.2170 0.8980 0.3827
vn 0.5699 0.6521 -0.5000
vn -0.0899 0.3720 -0.9239
vn -0.8048 0.3200 -0.5000
vn -0.2170 0.8980 -0.3827
vn -0.6873 -0.1661 -0.7071
vn 0.6873 0.1661 -0.7071
vn -0.8534 0.5213 -0.0000
vn 0.5213 0.8534 -0.0000
vn 0.6873 0.1661 0.7071
vn -0.6873 -0.1661 0.7071
vn -0.0000 -0.0000 -1.0000
vn 0.2349 -0.9720 -0.0000
vn 0.9720 0.2349 -0.0000
vn -0.9720 -0.2349 -0.0000
vn -0.0000 -0.0000 1.0000
vn -0.1661 0.6873 -0.7071
vn -0.2349 0.9720 -0.0000
vn -0.1661 0.6873 0.7071
vt 0.556254 0.234905
vt 0.556254 0.225670
vt 0.565490 0.225670
vt 0.574725 0.234905
vt 0.574725 0.225670
vt 0.556254 0.006051
vt 0.565490 0.015287
vt 0.556254 0.015287
vt 0.574725 0.006051
vt 0.574725 0.015287
vt 0.565490 0.015287
vt 0.422197 0.225670
vt 0.427607 0.234905
vt 0.411841 0.228375
vt 0.390013 0.193485
vt 0.387308 0.203841
vt 0.380777 0.188075
vt 0.740967 0.193485
vt 0.750202 0.188075
vt 0.743672 0.203841
vt 0.703372 0.234905
vt 0.708782 0.225670
vt 0.719138 0.228375
vt 0.390013 0.047471
vt 0.380777 0.052882
vt 0.387308 0.037115
vt 0.427607 0.006051
vt 0.422197 0.015287
vt 0.411841 0.012582
vt 0.708782 0.015287
vt 0.703372 0.006051
vt 0.719138 0.012582
vt 0.740967 0.047472
vt 0.743672 0.037115
vt 0.750202 0.052882
vt 0.435756 0.234905
vt 0.463028 0.234905
vt 0.463028 0.244141
vt 0.435756 0.244141
vt 0.759438 0.006051
vt 0.786710 0.006051
vt 0.786710 0.015287
vt 0.759438 0.015287
vt 0.417284 0.281736
vt 0.390013 0.281736
vt 0.390013 0.265969
vt 0.417284 0.265969
vt 0.481499 0.379334
vt 0.508771 0.379334
vt 0.508771 0.388570
vt 0.481499 0.388570
vt 0.435756 0.372788
vt 0.463028 0.372788
vt 0.463028 0.388554
vt 0.435756 0.388554
vt 0.463028 0.419618
vt 0.435756 0.419618
vt 0.435756 0.413087
vt 0.463028 0.413087
vt 0.786710 0.225670
vt 0.759438 0.225670
vt 0.417285 0.410382
vt 0.390013 0.410382
vt 0.481499 0.244141
vt 0.508771 0.244141
vt 0.390013 0.241436
vt 0.417284 0.241436
s 0
usemtl Material.001
f 37/67/39 38/68/39 39/69/39
f 40/70/40 41/69/40 42/71/40
f 43/72/41 44/73/41 45/74/41
f 46/75/42 47/76/42 48/77/42
f 49/78/43 50/79/43 51/80/43
f 52/81/44 53/82/44 54/83/44
f 55/84/45 56/85/45 57/86/45
f 58/87/46 59/88/46 60/89/46
f 61/90/47 62/91/47 63/92/47
f 64/93/48 65/94/48 66/95/48
f 67/96/49 68/97/49 69/98/49
f 70/99/50 71/100/50 72/101/50
f 39/102/51 41/103/51 40/104/51 37/105/51
f 43/106/52 46/107/52 48/108/52 44/109/52
f 38/68/53 45/74/53 44/73/53 39/69/53
f 47/76/54 42/71/54 41/69/54 48/77/54
f 70/99/55 67/96/55 69/98/55 71/100/55
f 68/110/56 64/111/56 66/112/56 69/113/56
f 65/94/57 61/90/57 63/92/57 66/95/57
f 62/114/58 72/115/58 71/116/58 63/117/58
f 52/81/59 49/78/59 51/80/59 53/82/59
f 50/118/60 58/119/60 60/120/60 51/121/60
f 59/88/61 55/84/61 57/86/61 60/89/61
f 56/122/62 54/123/62 53/124/62 57/125/62
f 42/71/63 59/88/63 58/87/63 40/70/63
f 49/78/64 38/68/64 37/67/64 50/79/64
f 55/84/65 70/99/65 72/101/65 56/85/65
f 61/90/66 52/81/66 54/83/66 62/91/66
f 64/93/67 43/72/67 45/74/67 65/94/67
f 46/75/68 68/97/68 67/96/68 47/76/68
f 58/119/69 50/118/69 37/105/69 40/104/69
f 41/126/70 39/127/70 44/109/70 48/108/70
f 38/68/71 49/78/71 52/81/71 61/90/71 65/94/71 45/74/71
f 55/84/72 59/88/72 42/71/72 47/76/72 67/96/72 70/99/72
f 46/128/73 43/129/73 64/111/73 68/110/73
f 51/121/74 60/120/74 57/125/74 53/124/74
f 72/115/75 62/114/75 54/130/75 56/131/75
f 69/113/76 66/112/76 63/132/76 71/133/76
o Cube.002
v -1.135783 4.996281 -1.017720
v -1.035757 4.994350 -0.917720
v -1.134694 4.896243 -0.917720
v -1.430664 5.001845 -1.017720
v -1.429662 4.901808 -0.917720
v -1.530689 5.003689 -0.917720
v -1.135783 4.996281 1.017720
v -1.134694 4.896243 0.917720
v -1.035757 4.994350 0.917720
v -1.430664 5.001845 1.017720
v -1.530689 5.003689 0.917720
v -1.429662 4.901808 0.917720
v -1.044019 5.784828 -0.917720
v -1.143432 5.728085 -1.017720
v -1.145195 5.898859 -0.947010
v -1.049295 6.289580 -0.413157
v -1.149605 6.320724 -0.525302
v -1.150322 6.391461 -0.354591
v -1.544227 6.298919 -0.413157
v -1.445290 6.397027 -0.354591
v -1.444529 6.326290 -0.525302
v -1.438313 5.733649 -1.017720
v -1.538951 5.794167 -0.917720
v -1.440120 5.904424 -0.947010
v -1.049295 6.289580 0.413157
v -1.150322 6.391461 0.354591
v -1.149605 6.320724 0.525302
v -1.143432 5.728085 1.017720
v -1.044019 5.784828 0.917720
v -1.145195 5.898859 0.947010
v -1.538951 5.794167 0.917720
v -1.438313 5.733649 1.017720
v -1.440119 5.904424 0.947010
v -1.544227 6.298919 0.413157
v -1.444529 6.326290 0.525302
v -1.445290 6.397027 0.354591
vn 0.5720 -0.5768 -0.5832
vn -0.5825 -0.5776 -0.5720
vn 0.5720 -0.5768 0.5832
vn -0.5825 -0.5776 0.5720
vn 0.5761 0.3178 -0.7531
vn 0.5802 0.7533 -0.3097
vn -0.5662 0.7606 -0.3177
vn -0.5703 0.3091 -0.7610
vn 0.5802 0.7533 0.3097
vn 0.5761 0.3178 0.7531
vn -0.5703 0.3091 0.7610
vn -0.5662 0.7606 0.3177
vn -0.0133 -0.7070 -0.7071
vn -0.0133 -0.7070 0.7071
vn 0.7041 -0.7101 -0.0000
vn -0.7101 -0.7041 -0.0000
vn -0.7050 0.4977 0.5053
vn 0.0072 0.3826 0.9239
vn 0.7092 0.5021 0.4949
vn 0.0174 0.9237 0.3827
vn 0.7092 0.5021 -0.4949
vn 0.0072 0.3826 -0.9239
vn -0.7050 0.4977 -0.5053
vn 0.0174 0.9237 -0.3827
vn -0.7071 -0.0074 -0.7071
vn 0.7071 0.0074 -0.7071
vn -0.7041 0.7101 -0.0000
vn 0.7101 0.7041 -0.0000
vn 0.7071 0.0074 0.7071
vn -0.7071 -0.0074 0.7071
vn -0.0000 -0.0000 -1.0000
vn -0.0189 -0.9998 -0.0000
vn 0.9999 0.0105 -0.0000
vn -0.9999 -0.0105 -0.0000
vn -0.0000 -0.0000 1.0000
vn 0.0133 0.7070 -0.7071
vn 0.0189 0.9998 -0.0000
vn 0.0133 0.7070 0.7071
vt 0.019671 0.010993
vt 0.019358 0.021527
vt 0.008979 0.021527
vt 0.176560 0.225395
vt 0.166331 0.214862
vt 0.176864 0.214862
vt 0.019671 0.225395
vt 0.008979 0.214862
vt 0.019358 0.214862
vt 0.176560 0.010993
vt 0.176864 0.021527
vt 0.166331 0.021527
vt 0.102627 0.021527
vt 0.096759 0.010993
vt 0.114595 0.018596
vt 0.155797 0.074675
vt 0.159034 0.063016
vt 0.166331 0.080844
vt 0.313304 0.161714
vt 0.323683 0.155545
vt 0.316154 0.173604
vt 0.253648 0.225395
vt 0.260133 0.214862
vt 0.271715 0.218024
vt 0.155797 0.161714
vt 0.166331 0.155545
vt 0.159034 0.173372
vt 0.096759 0.225395
vt 0.102627 0.214862
vt 0.114595 0.217793
vt 0.260133 0.021527
vt 0.253648 0.010993
vt 0.271715 0.018364
vt 0.313304 0.074675
vt 0.316154 0.062785
vt 0.323683 0.080844
vt 0.071473 0.225704
vt 0.102536 0.226615
vt 0.102531 0.237153
vt 0.071478 0.236242
vt 0.334684 0.010993
vt 0.365751 0.010993
vt 0.365447 0.021527
vt 0.334371 0.021527
vt 0.019358 0.314241
vt 0.050411 0.313330
vt 0.050413 0.331320
vt 0.019355 0.332231
vt 0.123598 0.310630
vt 0.154674 0.310630
vt 0.154453 0.321163
vt 0.123382 0.321163
vt 0.071478 0.313330
vt 0.102531 0.314241
vt 0.102534 0.332231
vt 0.071476 0.331320
vt 0.102536 0.384122
vt 0.071473 0.383211
vt 0.071476 0.375759
vt 0.102534 0.376670
vt 0.365447 0.214862
vt 0.334371 0.214862
vt 0.019358 0.237153
vt 0.050411 0.236242
vt 0.123598 0.235929
vt 0.154674 0.235929
vt 0.050413 0.375759
vt 0.019355 0.376670
s 0
usemtl Material.002
f 73/134/77 74/135/77 75/136/77
f 76/137/78 77/138/78 78/139/78
f 79/140/79 80/141/79 81/142/79
f 82/143/80 83/144/80 84/145/80
f 85/146/81 86/147/81 87/148/81
f 88/149/82 89/150/82 90/151/82
f 91/152/83 92/153/83 93/154/83
f 94/155/84 95/156/84 96/157/84
f 97/158/85 98/159/85 99/160/85
f 100/161/86 101/162/86 102/163/86
f 103/164/87 104/165/87 105/166/87
f 106/167/88 107/168/88 108/169/88
f 75/170/89 77/171/89 76/172/89 73/173/89
f 79/174/90 82/175/90 84/176/90 80/177/90
f 74/135/91 81/142/91 80/141/91 75/136/91
f 83/144/92 78/139/92 77/138/92 84/145/92
f 106/167/93 103/164/93 105/166/93 107/168/93
f 104/178/94 100/179/94 102/180/94 105/181/94
f 101/162/95 97/158/95 99/160/95 102/163/95
f 98/182/96 108/183/96 107/184/96 99/185/96
f 88/149/97 85/146/97 87/148/97 89/150/97
f 86/186/98 94/187/98 96/188/98 87/189/98
f 95/156/99 91/152/99 93/154/99 96/157/99
f 92/190/100 90/191/100 89/192/100 93/193/100
f 78/139/101 95/156/101 94/155/101 76/137/101
f 85/146/102 74/135/102 73/134/102 86/147/102
f 91/152/103 106/167/103 108/169/103 92/153/103
f 97/158/104 88/149/104 90/151/104 98/159/104
f 100/161/105 79/140/105 81/142/105 101/162/105
f 82/143/106 104/165/106 103/164/106 83/144/106
f 94/187/107 86/186/107 73/173/107 76/172/107
f 77/194/108 75/195/108 80/177/108 84/176/108
f 74/135/109 85/146/109 88/149/109 97/158/109 101/162/109 81/142/109
f 91/152/110 95/156/110 78/139/110 83/144/110 103/164/110 106/167/110
f 82/196/111 79/197/111 100/179/111 104/178/111
f 87/189/112 96/188/112 93/193/112 89/192/112
f 108/183/113 98/182/113 90/198/113 92/199/113
f 105/181/114 102/180/114 99/200/114 107/201/114
o Cube.003
v -1.774655 5.295352 0.302394
v -1.774655 5.900138 0.302394
v -1.774655 5.295352 -0.302393
v -1.774655 5.900138 -0.302393
v -1.498091 5.295352 0.302394
v -1.498091 5.900138 0.302394
v -1.498091 5.295352 -0.302393
v -1.498091 5.900138 -0.302393
v -0.921842 1.975603 -0.302393
v -0.921842 1.975603 0.302394
v -0.645278 1.587964 -0.302393
v -0.645278 1.587964 0.302394
v 1.157246 1.975603 0.302394
v 1.157246 1.975603 -0.302393
v -0.673604 1.587964 -0.302393
v -0.921842 1.836202 -0.302393
v -0.921842 1.836202 0.302394
v -0.673604 1.587964 0.302394
v -0.685664 2.132814 -0.302393
v -0.482962 1.975603 -0.302393
v -0.645278 1.813287 -0.302393
v -0.807593 1.975603 -0.302393
v -0.482962 1.975603 0.302394
v -0.685664 2.132814 0.302394
v -0.807593 1.975603 0.302394
v -0.645278 1.813287 0.302394
v 0.857060 1.587964 0.302394
v 1.157246 1.888149 0.302394
v 1.157246 1.888149 -0.302393
v 0.857060 1.587964 -0.302393
vn -1.0000 -0.0000 -0.0000
vn -0.0000 -0.0000 -1.0000
vn 1.0000 -0.0000 -0.0000
vn -0.0000 -0.0000 1.0000
vn -0.0000 1.0000 -0.0000
vn -0.9686 -0.2488 -0.0000
vn -0.7071 -0.7071 -0.0000
vn -0.0000 -1.0000 -0.0000
vn 0.6129 0.7902 -0.0000
vn 0.9686 0.2488 -0.0000
vn 0.7071 -0.7071 -0.0000
vt 0.930723 0.848549
vt 0.974198 0.848548
vt 0.974199 0.893469
vt 0.930724 0.893470
vt 0.936986 0.672659
vt 0.974192 0.697830
vt 0.962681 0.714845
vt 0.925475 0.689673
vt 0.929435 0.893470
vt 0.974201 0.938390
vt 0.929437 0.938391
vt 0.925477 0.740019
vt 0.962681 0.714845
vt 0.974193 0.731858
vt 0.936989 0.757032
vt 0.645395 0.914023
vt 0.645394 0.893481
vt 0.690315 0.893479
vt 0.690316 0.914021
vt 0.676142 0.893480
vt 0.676140 0.848559
vt 0.643636 0.893481
vt 0.643634 0.848560
vt 0.666119 0.848559
vt 0.666121 0.893480
vt 0.837319 0.983316
vt 0.835215 0.983316
vt 0.835213 0.938395
vt 0.837317 0.938395
vt 0.697103 0.608026
vt 0.678995 0.613953
vt 0.675765 0.597212
vt 0.692507 0.593982
vt 0.679003 0.815758
vt 0.697112 0.821683
vt 0.692516 0.835728
vt 0.675774 0.832499
vt 0.852373 0.938394
vt 0.852375 0.983316
vt 0.697262 0.586954
vt 0.661904 0.587834
vt 0.663083 0.586091
vt 0.688686 0.581152
vt 0.974203 0.983311
vt 0.690317 0.938401
vt 0.697272 0.842756
vt 0.688696 0.848558
vt 0.663092 0.843621
vt 0.661913 0.841878
vt 0.723626 0.938399
vt 0.723627 0.983320
vt 0.701331 0.983321
vt 0.701329 0.938400
vt 0.690316 0.914021
vt 0.690316 0.920494
vt 0.645395 0.920496
vt 0.599378 0.749460
vt 0.605349 0.718498
vt 0.610729 0.714858
vt 0.605349 0.711218
vt 0.599375 0.680257
s 0
usemtl Material.003
f 109/202/115 110/203/115 112/204/115 111/205/115
f 111/206/116 112/207/116 116/208/116 115/209/116
f 115/210/117 116/204/117 114/211/117 113/212/117
f 113/213/118 114/214/118 110/215/118 109/216/118
f 116/217/119 112/218/119 110/219/119 114/220/119
f 109/202/120 111/205/120 117/221/120 118/222/120
f 123/223/121 126/224/121 125/225/121 124/226/121
f 123/227/122 119/228/122 120/229/122 126/230/122
f 118/222/115 117/221/115 124/226/115 125/225/115
f 127/231/116 128/232/116 129/233/116 130/234/116
f 131/235/118 132/236/118 133/237/118 134/238/118
f 131/239/123 128/240/123 127/227/123 132/230/123
f 117/241/116 130/234/116 129/233/116 119/242/116 123/243/116 124/244/116
f 111/206/116 115/209/116 127/231/116 130/234/116 117/241/116
f 128/240/119 131/239/119 121/211/119 122/245/119
f 115/210/124 113/212/124 132/246/124 127/219/124
f 134/238/118 133/237/118 118/247/118 125/248/118 126/249/118 120/250/118
f 113/213/118 109/216/118 118/247/118 133/237/118 132/236/118
f 135/251/125 138/252/125 137/253/125 136/254/125
f 120/229/122 119/228/122 138/252/122 135/251/122
f 122/217/117 121/255/117 136/256/117 137/257/117
f 131/235/118 134/238/118 120/250/118 135/258/118 136/259/118 121/260/118
f 119/242/116 129/233/116 128/232/116 122/260/116 137/261/116 138/262/116
o Cube.004
v 0.125299 1.706702 0.198752
v 0.198516 1.706726 0.125535
v 0.198987 0.231474 0.125535
v 0.125771 0.231451 0.198751
v 0.198516 1.706726 -0.125535
v 0.125299 1.706702 -0.198751
v 0.125771 0.231451 -0.198752
v 0.198987 0.231474 -0.125535
v -0.198987 1.706599 0.125535
v -0.125771 1.706622 0.198752
v -0.125299 0.231371 0.198751
v -0.198516 0.231347 0.125535
v -0.125771 1.706622 -0.198751
v -0.198987 1.706599 -0.125535
v -0.198516 0.231347 -0.125535
v -0.125299 0.231371 -0.198752
vn 0.7071 0.0002 0.7071
vn 0.7071 0.0002 -0.7071
vn -0.7071 -0.0002 -0.7071
vn -0.7071 -0.0002 0.7071
vn 1.0000 0.0003 -0.0000
vn -0.0000 -0.0000 1.0000
vn -0.0000 -0.0000 -1.0000
vn -1.0000 -0.0003 -0.0000
vt 0.085531 0.990094
vt 0.085531 0.648587
vt 0.102480 0.648587
vt 0.102480 0.990094
vt 0.119429 0.648587
vt 0.119429 0.990094
vt 0.102480 0.990094
vt 0.102480 0.648587
vt 0.194498 0.648587
vt 0.194498 0.990094
vt 0.177549 0.990094
vt 0.177549 0.648587
vt 0.027411 0.648587
vt 0.027411 0.990094
vt 0.010462 0.990094
vt 0.010462 0.648587
vt 0.252619 0.648587
vt 0.252619 0.990094
vt 0.310739 0.648587
vt 0.310739 0.990094
s 0
usemtl Material.004
f 139/263/126 142/264/126 141/265/126 140/266/126
f 145/267/127 144/268/127 143/269/127 146/270/127
f 153/271/128 152/272/128 151/273/128 154/274/128
f 149/275/129 148/276/129 147/277/129 150/278/129
f 140/272/130 141/271/130 146/279/130 143/280/130
f 148/276/131 149/275/131 142/264/131 139/263/131
f 144/268/132 145/267/132 154/274/132 151/273/132
f 152/280/133 153/279/133 150/281/133 147/282/133
o Cube.005
v -0.235681 0.187928 0.235605
v -0.235681 0.659289 0.235605
v -0.235681 0.187928 -0.235757
v -0.235681 0.659289 -0.235757
v 0.235681 0.187928 0.235605
v 0.235681 0.659289 0.235605
v 0.235681 0.187928 -0.235757
v 0.235681 0.659289 -0.235757
v -2.153854 -0.196710 -0.099333
v -2.153854 -0.196710 0.099181
v -2.153854 0.001803 0.099181
v -2.153854 0.001803 -0.099333
v 2.153854 0.001803 -0.099333
v 2.153854 -0.196710 -0.099333
v 2.153854 -0.196710 0.099181
v 2.153854 0.001803 0.099181
v -0.098433 -0.195886 1.794219
v -0.098433 0.000979 1.794219
v -0.098433 0.000979 -1.794371
v -0.098433 -0.195886 -1.794371
v 0.098433 -0.195886 -1.794371
v 0.098433 0.000979 -1.794371
v 0.098433 0.000979 1.794219
v 0.098433 -0.195886 1.794219
vn -0.0709 -0.0000 0.9975
vn -0.9961 -0.0000 0.0877
vn -0.0709 -0.0000 -0.9975
vn -0.9961 -0.0000 -0.0877
vn -0.0000 -1.0000 -0.0000
vn -0.0000 1.0000 -0.0000
vn -1.0000 -0.0000 -0.0000
vn 1.0000 -0.0000 -0.0000
vn 0.3242 0.9460 -0.0000
vn 0.0709 -0.0000 -0.9975
vn -0.3242 0.9460 -0.0000
vn 0.1966 -0.9805 -0.0000
vn 0.0709 -0.0000 0.9975
vn -0.1966 -0.9805 -0.0000
vn -0.0000 -0.0000 -1.0000
vn -0.0000 -0.0000 1.0000
vn -0.0000 -0.9710 -0.2391
vn 0.9961 -0.0000 -0.0877
vn -0.0000 -0.9710 0.2391
vn -0.0000 0.9212 0.3891
vn 0.9961 -0.0000 0.0877
vn -0.0000 0.9212 -0.3891
vt 0.197762 0.421954
vt 0.212249 0.464214
vt 0.020068 0.464221
vt 0.013967 0.446423
vt 0.212253 0.590995
vt 0.194873 0.632149
vt 0.044638 0.608189
vt 0.051897 0.591000
vt 0.212249 0.464214
vt 0.197765 0.506475
vt 0.013968 0.482019
vt 0.020068 0.464220
vt 0.175150 0.257433
vt 0.216304 0.240051
vt 0.216304 0.400407
vt 0.199116 0.407666
vt 0.409319 0.677157
vt 0.432282 0.655391
vt 0.454049 0.678353
vt 0.431086 0.700120
vt 0.426042 0.868168
vt 0.448882 0.846439
vt 0.470690 0.869362
vt 0.447850 0.891091
vt 0.317426 0.258865
vt 0.298612 0.258865
vt 0.298612 0.240051
vt 0.317426 0.240051
vt 0.336240 0.258865
vt 0.336240 0.240051
vt 0.345866 0.975473
vt 0.336681 0.965819
vt 0.212252 0.548735
vt 0.020071 0.548741
vt 0.013970 0.530943
vt 0.545413 0.767245
vt 0.554597 0.776899
vt 0.331340 0.782051
vt 0.322173 0.772380
vt 0.197768 0.590995
vt 0.013971 0.566539
vt 0.532028 0.573459
vt 0.541195 0.583130
vt 0.354899 0.258709
vt 0.336240 0.258709
vt 0.354899 0.240051
vt 0.373557 0.258709
vt 0.373557 0.240051
vt 0.519336 0.760621
vt 0.509746 0.769712
vt 0.257458 0.257433
vt 0.233492 0.407666
vt 0.344032 0.594890
vt 0.353622 0.585799
vt 0.533420 0.954086
vt 0.523881 0.963161
vt 0.298612 0.400407
vt 0.281424 0.407666
vt 0.357851 0.788639
vt 0.367391 0.779564
s 0
usemtl Material.005
f 155/283/134 156/284/134 165/285/134 164/286/134
f 156/287/135 155/288/135 171/289/135 172/290/135
f 158/291/136 157/292/136 163/293/136 166/294/136
f 157/295/137 158/296/137 173/297/137 174/298/137
f 157/299/138 161/300/138 159/301/138 155/302/138
f 162/303/139 158/304/139 156/305/139 160/306/139
f 164/307/140 165/308/140 166/309/140 163/310/140
f 168/311/141 167/307/141 170/310/141 169/312/141
f 162/303/142 160/306/142 170/313/142 167/314/142
f 161/292/143 162/315/143 167/316/143 168/317/143
f 156/305/144 158/304/144 166/318/144 165/319/144
f 157/299/145 155/302/145 164/320/145 163/321/145
f 160/315/146 159/322/146 169/323/146 170/316/146
f 159/301/147 161/300/147 168/324/147 169/325/147
f 174/326/148 173/327/148 176/312/148 175/328/148
f 178/329/149 177/326/149 172/328/149 171/330/149
f 155/302/150 159/301/150 178/331/150 171/332/150
f 162/296/151 161/333/151 175/334/151 176/297/151
f 161/300/152 157/299/152 174/335/152 175/336/152
f 160/306/153 156/305/153 172/337/153 177/338/153
f 159/333/154 160/309/154 177/339/154 178/340/154
f 158/304/155 162/303/155 176/341/155 173/342/155
