# Blender 5.0.1
# www.blender.org
mtllib bookShelfRedBook.mtl
o Cube.009
v -0.433931 3.423738 0.630077
v -0.433931 2.551958 0.630077
v -0.433931 3.423738 0.928162
v -0.433931 2.551958 0.928162
v 0.433931 3.423738 0.630077
v 0.433931 2.551958 0.630077
v 0.433931 3.423738 0.928162
v 0.433931 2.551958 0.928162
vn -1.0000 -0.0000 -0.0000
vn -0.0000 -0.0000 1.0000
vn 1.0000 -0.0000 -0.0000
vn -0.0000 -0.0000 -1.0000
vn -0.0000 1.0000 -0.0000
vn -0.0000 -1.0000 -0.0000
vt 0.347906 0.692736
vt 0.347901 0.810045
vt 0.307790 0.810043
vt 0.307795 0.692734
vt 0.347895 0.927354
vt 0.231114 0.927348
vt 0.231119 0.810039
vt 0.267679 0.810041
vt 0.267684 0.692732
vt 0.114332 0.927343
vt 0.114337 0.810034
vt 0.227568 0.810039
vt 0.227573 0.693257
vt 0.267684 0.693259
vt 0.187456 0.810037
vt 0.187462 0.693255
s 0
usemtl Material.010
f 1/1/1 2/2/1 4/3/1 3/4/1
f 3/2/2 4/5/2 8/6/2 7/7/2
f 7/4/3 8/3/3 6/8/3 5/9/3
f 5/7/4 6/6/4 2/10/4 1/11/4
f 3/12/5 7/13/5 5/14/5 1/8/5
f 8/15/6 4/16/6 2/13/6 6/12/6
