# Blender 5.0.1
# www.blender.org
mtllib bookShelfStanding.mtl
o Cube
v 0.590605 5.821724 -1.370228
v 0.590605 1.226190 -1.370228
v 0.590605 5.821724 1.370228
v 0.590605 1.226190 1.370228
v -0.573785 5.821724 -1.370228
v -0.573785 1.226190 -1.370228
v -0.573785 5.821724 1.370228
v -0.573785 1.226190 1.370228
v 0.590605 5.739458 -1.293700
v 0.590605 1.308455 -1.293700
v 0.590605 5.739458 1.293700
v 0.590605 1.308455 1.293700
v -0.451254 5.739458 -1.293700
v -0.451254 1.308455 -1.293700
v -0.451254 5.739458 1.293700
v -0.451254 1.308455 1.293700
vn -0.0000 1.0000 -0.0000
vn -0.0000 -0.0000 1.0000
vn -0.0000 -1.0000 -0.0000
vn 1.0000 -0.0000 -0.0000
vn -0.0000 -0.0000 -1.0000
vt 0.103903 0.323538
vt 0.019337 0.323538
vt 0.019337 0.124508
vt 0.103903 0.124508
vt 0.205965 0.336168
vt 0.205965 0.002410
vt 0.290531 0.002410
vt 0.290531 0.336168
vt 0.091501 0.535198
vt 0.006935 0.535198
vt 0.006935 0.336168
vt 0.091501 0.336168
vt 0.200407 0.330193
vt 0.200407 0.008385
vt 0.375096 0.002410
vt 0.375096 0.336168
vt 0.167168 0.336168
vt 0.167168 0.524082
vt 0.091501 0.524082
vt 0.006935 0.002410
vt 0.012493 0.008385
vt 0.012493 0.330193
vt 0.375096 0.324219
vt 0.563010 0.002410
vt 0.563010 0.324219
vt 0.638677 0.002410
vt 0.638677 0.324219
vt 0.563010 0.324219
vt 0.563010 0.002410
vt 0.167167 0.524082
vt 0.167167 0.336168
vt 0.242834 0.336168
vt 0.242834 0.524082
vt 0.641899 0.323761
vt 0.641899 0.001953
vt 0.717566 0.001953
vt 0.717566 0.323761
s 0
usemtl Material
f 1/1/1 5/2/1 7/3/1 3/4/1
f 4/5/2 3/6/2 7/7/2 8/8/2
f 6/9/3 2/10/3 4/11/3 8/12/3
f 3/6/4 4/5/4 12/13/4 11/14/4
f 6/8/5 5/7/5 1/15/5 2/16/5
f 12/17/1 10/18/1 14/19/1 16/12/1
f 2/11/4 1/20/4 9/21/4 10/22/4
f 4/5/4 2/11/4 10/22/4 12/13/4
f 1/20/4 3/6/4 11/14/4 9/21/4
f 14/23/4 13/15/4 15/24/4 16/25/4
f 11/26/5 12/27/5 16/28/5 15/29/5
f 9/30/3 11/31/3 15/32/3 13/33/3
f 10/34/2 9/35/2 13/36/2 14/37/2
o Cube.001
v -0.530644 -0.038795 1.328399
v -0.440502 1.256327 1.221355
v -0.530644 -0.038795 1.105428
v -0.440502 1.256327 0.998385
v -0.307674 -0.038795 1.328399
v -0.217532 1.256327 1.221355
v -0.307674 -0.038795 1.105428
v -0.217532 1.256327 0.998385
vn -0.9976 0.0694 -0.0000
vn -0.0000 -0.0824 -0.9966
vn 0.9976 -0.0694 -0.0000
vn -0.0000 0.0824 0.9966
vt 0.845021 0.558225
vt 0.845021 0.346324
vt 0.881169 0.343344
vt 0.881169 0.555244
vt 0.953987 0.560684
vt 0.953987 0.348784
vt 0.990170 0.346274
vt 0.990170 0.558174
vt 0.881169 0.555244
vt 0.917316 0.346324
vt 0.917316 0.558225
vt 0.917804 0.558174
vt 0.917804 0.346274
s 0
usemtl Material.002
f 17/38/6 18/39/6 20/40/6 19/41/6
f 19/42/7 20/43/7 24/44/7 23/45/7
f 23/46/8 24/40/8 22/47/8 21/48/8
f 21/49/9 22/50/9 18/43/9 17/42/9
o Cube.002
v -0.469665 2.455754 1.311465
v -0.469665 2.553071 1.311465
v -0.469665 2.455754 -1.311465
v -0.469665 2.553071 -1.311465
v 0.469665 2.455754 1.311465
v 0.469665 2.553071 1.311465
v 0.469665 2.455754 -1.311465
v 0.469665 2.553071 -1.311465
vn -0.0000 -0.0000 -1.0000
vn 1.0000 -0.0000 -0.0000
vn -0.0000 -0.0000 1.0000
vn -0.0000 -1.0000 -0.0000
vn -0.0000 1.0000 -0.0000
vt 0.989984 0.124589
vt 0.978042 0.124589
vt 0.978042 0.009320
vt 0.989984 0.009320
vt 0.978042 0.331190
vt 0.966100 0.331190
vt 0.966100 0.009320
vt 0.978042 0.009320
vt 0.989984 0.239858
vt 0.978042 0.239858
vt 0.850831 0.331190
vt 0.735562 0.331190
vt 0.735562 0.009320
vt 0.850831 0.009320
vt 0.966100 0.331190
s 0
usemtl Material.001
f 27/51/10 28/52/10 32/53/10 31/54/10
f 31/55/11 32/56/11 30/57/11 29/58/11
f 29/59/12 30/60/12 26/52/12 25/51/12
f 27/61/13 31/62/13 29/63/13 25/64/13
f 32/65/14 28/61/14 26/64/14 30/57/14
o Cube.003
v 0.548688 -0.038795 1.328399
v 0.441645 1.256327 1.238257
v 0.325718 -0.038795 1.328399
v 0.218675 1.256327 1.238257
v 0.548688 -0.038795 1.105428
v 0.441645 1.256327 1.015287
v 0.325718 -0.038795 1.105428
v 0.218675 1.256327 1.015287
vn -0.0000 0.0694 0.9976
vn -0.9966 -0.0824 -0.0000
vn -0.0000 -0.0694 -0.9976
vn 0.9966 0.0824 -0.0000
vt 0.845021 0.558225
vt 0.845021 0.346324
vt 0.881169 0.343344
vt 0.881169 0.555244
vt 0.953987 0.560684
vt 0.953987 0.348784
vt 0.990170 0.346274
vt 0.990170 0.558174
vt 0.881169 0.555244
vt 0.917316 0.346324
vt 0.917316 0.558225
vt 0.917804 0.558174
vt 0.917804 0.346274
s 0
usemtl Material.003
f 33/66/15 34/67/15 36/68/15 35/69/15
f 35/70/16 36/71/16 40/72/16 39/73/16
f 39/74/17 40/68/17 38/75/17 37/76/17
f 37/77/18 38/78/18 34/71/18 33/70/18
o Cube.004
v 0.548688 -0.038795 -1.317132
v 0.458546 1.256327 -1.210089
v 0.548688 -0.038795 -1.094162
v 0.458546 1.256327 -0.987118
v 0.325718 -0.038795 -1.317132
v 0.235576 1.256327 -1.210088
v 0.325718 -0.038795 -1.094162
v 0.235576 1.256327 -0.987118
vn 0.9976 0.0694 -0.0000
vn -0.0000 -0.0824 0.9966
vn -0.9976 -0.0694 -0.0000
vn -0.0000 0.0824 -0.9966
vt 0.845021 0.558225
vt 0.845021 0.346324
vt 0.881169 0.343344
vt 0.881169 0.555244
vt 0.953987 0.560684
vt 0.953987 0.348784
vt 0.990170 0.346274
vt 0.990170 0.558174
vt 0.881169 0.555244
vt 0.917316 0.346324
vt 0.917316 0.558225
vt 0.917804 0.558174
vt 0.917804 0.346274
s 0
usemtl Material.004
f 41/79/19 42/80/19 44/81/19 43/82/19
f 43/83/20 44/84/20 48/85/20 47/86/20
f 47/87/21 48/81/21 46/88/21 45/89/21
f 45/90/22 46/91/22 42/84/22 41/83/22
o Cube.005
v -0.514666 -0.038795 -1.317132
v -0.407623 1.256327 -1.226990
v -0.291696 -0.038795 -1.317132
v -0.184653 1.256327 -1.226990
v -0.514666 -0.038795 -1.094162
v -0.407623 1.256327 -1.004020
v -0.291696 -0.038795 -1.094162
v -0.184653 1.256327 -1.004020
vn -0.0000 0.0694 -0.9976
vn 0.9966 -0.0824 -0.0000
vn -0.0000 -0.0694 0.9976
vn -0.9966 0.0824 -0.0000
vt 0.845021 0.558225
vt 0.845021 0.346324
vt 0.881169 0.343344
vt 0.881169 0.555244
vt 0.953987 0.560684
vt 0.953987 0.348784
vt 0.990170 0.346274
vt 0.990170 0.558174
vt 0.881169 0.555244
vt 0.917316 0.346324
vt 0.917316 0.558225
vt 0.917804 0.558174
vt 0.917804 0.346274
s 0
usemtl Material.005
f 49/92/23 50/93/23 52/94/23 51/95/23
f 51/96/24 52/97/24 56/98/24 55/99/24
f 55/100/25 56/94/25 54/101/25 53/102/25
f 53/103/26 54/104/26 50/97/26 49/96/26
o Cube.006
v -0.469665 3.474769 1.311465
v -0.469665 3.572086 1.311465
v -0.469665 3.474769 -1.311465
v -0.469665 3.572086 -1.311465
v 0.469665 3.474769 1.311465
v 0.469665 3.572086 1.311465
v 0.469665 3.474769 -1.311465
v 0.469665 3.572086 -1.311465
vn -0.0000 -0.0000 -1.0000
vn 1.0000 -0.0000 -0.0000
vn -0.0000 -0.0000 1.0000
vn -0.0000 -1.0000 -0.0000
vn -0.0000 1.0000 -0.0000
vt 0.989984 0.124589
vt 0.978042 0.124589
vt 0.978042 0.009320
vt 0.989984 0.009320
vt 0.978042 0.331190
vt 0.966100 0.331190
vt 0.966100 0.009320
vt 0.978042 0.009320
vt 0.989984 0.239858
vt 0.978042 0.239858
vt 0.850831 0.331190
vt 0.735562 0.331190
vt 0.735562 0.009320
vt 0.850831 0.009320
vt 0.966100 0.331190
s 0
usemtl Material.006
f 59/105/27 60/106/27 64/107/27 63/108/27
f 63/109/28 64/110/28 62/111/28 61/112/28
f 61/113/29 62/114/29 58/106/29 57/105/29
f 59/115/30 63/116/30 61/117/30 57/118/30
f 64/119/31 60/115/31 58/118/31 62/111/31
o Cube.007
v -0.469665 4.528555 1.311465
v -0.469665 4.625872 1.311465
v -0.469665 4.528555 -1.311465
v -0.469665 4.625872 -1.311465
v 0.469665 4.528555 1.311465
v 0.469665 4.625872 1.311465
v 0.469665 4.528555 -1.311465
v 0.469665 4.625872 -1.311465
vn -0.0000 -0.0000 -1.0000
vn 1.0000 -0.0000 -0.0000
vn -0.0000 -0.0000 1.0000
vn -0.0000 -1.0000 -0.0000
vn -0.0000 1.0000 -0.0000
vt 0.989984 0.124589
vt 0.978042 0.124589
vt 0.978042 0.009320
vt 0.989984 0.009320
vt 0.978042 0.331190
vt 0.966100 0.331190
vt 0.966100 0.009320
vt 0.978042 0.009320
vt 0.989984 0.239858
vt 0.978042 0.239858
vt 0.850831 0.331190
vt 0.735562 0.331190
vt 0.735562 0.009320
vt 0.850831 0.009320
vt 0.966100 0.331190
s 0
usemtl Material.007
f 67/120/32 68/121/32 72/122/32 71/123/32
f 71/124/33 72/125/33 70/126/33 69/127/33
f 69/128/34 70/129/34 66/121/34 65/120/34
f 67/130/35 71/131/35 69/132/35 65/133/35
f 72/134/36 68/130/36 66/133/36 70/126/36
