# Blender 5.0.1
# www.blender.org
mtllib bookShelfJar.mtl
o Cylinder
v 0.012045 3.564956 -1.064181
v 0.012045 4.249088 -1.064181
v 0.262335 3.564956 -0.932047
v 0.262335 4.249088 -0.932047
v 0.315082 3.564956 -0.653978
v 0.315082 4.249088 -0.653978
v 0.130565 3.564956 -0.439366
v 0.130565 4.249088 -0.439366
v -0.152269 3.564956 -0.449818
v -0.152269 4.249088 -0.449818
v -0.320442 3.564956 -0.677463
v -0.320442 4.249088 -0.677463
v -0.247315 3.564956 -0.950881
v -0.247315 4.249088 -0.950881
v 0.200736 4.249088 -0.886541
v 0.009216 4.249088 -0.987648
v 0.241097 4.249088 -0.673765
v 0.099907 4.249088 -0.509547
v -0.116515 4.249088 -0.517544
v -0.245199 4.249088 -0.691736
v -0.189243 4.249088 -0.900952
v 0.200736 4.310652 -0.886541
v 0.009216 4.310652 -0.987648
v 0.241097 4.310652 -0.673765
v 0.099907 4.310652 -0.509547
v -0.116515 4.310652 -0.517544
v -0.245199 4.310652 -0.691736
v -0.189243 4.310652 -0.900952
v 0.248946 4.310652 -0.922156
v 0.011430 4.310652 -1.047547
v 0.299001 4.310652 -0.658279
v 0.123902 4.310652 -0.454620
v -0.144498 4.310652 -0.464538
v -0.304088 4.310652 -0.680566
v -0.234693 4.310652 -0.940029
v 0.222536 4.424102 -0.902646
v 0.010217 4.424102 -1.014734
v 0.267280 4.424102 -0.666763
v 0.110757 4.424102 -0.484709
v -0.129168 4.424102 -0.493576
v -0.271828 4.424102 -0.686685
v -0.209795 4.424102 -0.918622
vn 0.4669 -0.0000 -0.8843
vn 0.9825 -0.0000 -0.1864
vn 0.7583 -0.0000 0.6519
vn -0.0369 -0.0000 0.9993
vn -0.8043 -0.0000 0.5942
vn -0.0000 1.0000 -0.0000
vn -0.9660 -0.0000 -0.2584
vn -0.4003 -0.0000 -0.9164
vn -0.0000 -1.0000 -0.0000
vn 0.4518 0.2523 -0.8557
vn -0.9348 0.2523 -0.2500
vn -0.0357 0.2523 0.9670
vn 0.9507 0.2523 -0.1803
vn -0.3874 0.2523 -0.8867
vn -0.7783 0.2523 0.5750
vn 0.7337 0.2523 0.6308
vt 0.294692 0.540710
vt 0.294692 0.444237
vt 0.319666 0.441584
vt 0.319666 0.538057
vt 0.344640 0.438931
vt 0.344640 0.342458
vt 0.369614 0.345111
vt 0.369614 0.441584
vt 0.409670 0.345111
vt 0.409670 0.441584
vt 0.254637 0.438931
vt 0.254637 0.342458
vt 0.279611 0.345111
vt 0.279611 0.441584
vt 0.319666 0.345111
vt 0.337046 0.450497
vt 0.376097 0.441584
vt 0.373685 0.452151
vt 0.343803 0.458971
vt 0.254637 0.540710
vt 0.254637 0.444237
vt 0.463843 0.531587
vt 0.424792 0.522674
vt 0.407413 0.486586
vt 0.424792 0.450497
vt 0.463843 0.441584
vt 0.495160 0.466558
vt 0.495160 0.506613
vt 0.429714 0.551118
vt 0.430963 0.531941
vt 0.439638 0.531587
vt 0.438388 0.550764
vt 0.376097 0.531587
vt 0.337046 0.522674
vt 0.343803 0.514200
vt 0.373685 0.521020
vt 0.407413 0.466558
vt 0.407413 0.506613
vt 0.397648 0.501911
vt 0.397648 0.471261
vt 0.319666 0.486586
vt 0.330505 0.486586
vt 0.417312 0.369838
vt 0.417312 0.400488
vt 0.409670 0.404168
vt 0.409670 0.366157
vt 0.449561 0.551118
vt 0.448312 0.581742
vt 0.439638 0.581388
vt 0.440887 0.550764
vt 0.505871 0.460694
vt 0.505871 0.491344
vt 0.497190 0.491344
vt 0.497190 0.460694
vt 0.430964 0.581742
vt 0.439638 0.581388
vt 0.448312 0.531941
vt 0.503841 0.441584
vt 0.495160 0.441584
vt 0.503841 0.510453
vt 0.495160 0.510453
vt 0.410358 0.531587
vt 0.411907 0.555370
vt 0.395486 0.556718
vt 0.394101 0.535458
vt 0.441275 0.419597
vt 0.471157 0.412777
vt 0.476445 0.419409
vt 0.439388 0.427868
vt 0.484455 0.385163
vt 0.471157 0.357548
vt 0.476445 0.350916
vt 0.492938 0.385163
vt 0.441275 0.350728
vt 0.439388 0.342458
vt 0.394101 0.586751
vt 0.367535 0.607936
vt 0.334409 0.600375
vt 0.319666 0.569762
vt 0.334409 0.539148
vt 0.367535 0.531587
vt 0.394101 0.552772
vt 0.509024 0.342458
vt 0.511541 0.366157
vt 0.495188 0.368174
vt 0.492938 0.346988
vt 0.511541 0.404168
vt 0.509024 0.427868
vt 0.492938 0.423337
vt 0.495188 0.402152
vt 0.411907 0.555370
vt 0.413457 0.531587
vt 0.429714 0.535458
vt 0.428329 0.556718
vt 0.410358 0.593349
vt 0.394101 0.590668
vt 0.413457 0.593349
vt 0.429714 0.590668
s 0
usemtl Material.008
f 1/1/1 2/2/1 4/3/1 3/4/1
f 3/5/2 4/6/2 6/7/2 5/8/2
f 5/8/3 6/7/3 8/9/3 7/10/3
f 7/11/4 8/12/4 10/13/4 9/14/4
f 9/14/5 10/13/5 12/15/5 11/3/5
f 10/16/6 8/17/6 18/18/6 19/19/6
f 11/3/7 12/15/7 14/6/7 13/5/7
f 13/20/8 14/21/8 2/2/8 1/1/8
f 1/22/9 3/23/9 5/24/9 7/25/9 9/26/9 11/27/9 13/28/9
f 17/29/2 15/30/2 22/31/2 24/32/2
f 2/33/6 14/34/6 21/35/6 16/36/6
f 6/37/6 4/38/6 15/39/6 17/40/6
f 12/41/6 10/16/6 19/19/6 20/42/6
f 4/38/6 2/33/6 16/36/6 15/39/6
f 8/17/6 6/37/6 17/40/6 18/18/6
f 14/34/6 12/41/6 20/42/6 21/35/6
f 26/43/9 25/44/9 32/45/9 33/46/9
f 16/47/8 21/48/8 28/49/8 23/50/8
f 20/51/5 19/52/5 26/53/5 27/54/5
f 18/55/3 17/29/3 24/32/3 25/56/3
f 15/57/1 16/47/1 23/50/1 22/31/1
f 21/58/7 20/51/7 27/54/7 28/59/7
f 19/52/4 18/60/4 25/61/4 26/53/4
f 29/62/10 30/63/10 37/64/10 36/65/10
f 24/66/9 22/67/9 29/68/9 31/69/9
f 23/70/9 28/71/9 35/72/9 30/73/9
f 27/74/9 26/43/9 33/46/9 34/75/9
f 25/44/9 24/66/9 31/69/9 32/45/9
f 22/67/9 23/70/9 30/73/9 29/68/9
f 28/71/9 27/74/9 34/75/9 35/72/9
f 36/76/6 37/77/6 42/78/6 41/79/6 40/80/6 39/81/6 38/82/6
f 35/83/11 34/84/11 41/85/11 42/86/11
f 33/87/12 32/88/12 39/89/12 40/90/12
f 31/91/13 29/92/13 36/93/13 38/94/13
f 30/63/14 35/95/14 42/96/14 37/64/14
f 34/84/15 33/87/15 40/90/15 41/85/15
f 32/97/16 31/91/16 38/94/16 39/98/16
