# Blender 5.0.1
# www.blender.org
mtllib bookShelfSmallBook.mtl
o Cube.011
v -0.409959 3.582364 0.937059
v -0.409959 4.472079 1.290070
v -0.409959 3.609335 0.858350
v -0.409959 4.499050 1.211361
v 0.409959 3.582364 0.937059
v 0.409959 4.472079 1.290070
v 0.409959 3.609335 0.858350
v 0.409959 4.499050 1.211361
vn -1.0000 -0.0000 -0.0000
vn -0.0000 0.3688 -0.9295
vn 1.0000 -0.0000 -0.0000
vn -0.0000 -0.3688 0.9295
vn -0.0000 -0.9460 -0.3242
vn -0.0000 0.9460 0.3242
vt 0.958207 0.757095
vt 0.958207 0.627040
vt 0.969499 0.627577
vt 0.969499 0.757632
vt 0.735399 0.757095
vt 0.735399 0.627040
vt 0.846803 0.627040
vt 0.846803 0.757095
vt 0.980791 0.627040
vt 0.980791 0.757095
vt 0.846803 0.757095
vt 0.846803 0.627040
vt 0.746704 0.757095
vt 0.746704 0.868498
vt 0.735400 0.868498
vt 0.758009 0.757095
vt 0.758009 0.868498
vt 0.746704 0.757095
s 0
usemtl Material.009
f 1/1/1 2/2/1 4/3/1 3/4/1
f 3/5/2 4/6/2 8/7/2 7/8/2
f 7/4/3 8/3/3 6/9/3 5/10/3
f 5/11/4 6/12/4 2/2/4 1/1/4
f 3/13/5 7/14/5 5/15/5 1/5/5
f 8/16/6 4/17/6 2/14/6 6/18/6
