# Blender 5.0.1
# www.blender.org
mtllib bookShelfGreenBook.mtl
o Cube.008
v -0.433931 3.423738 0.977730
v -0.433931 2.551958 0.977730
v -0.433931 3.423738 1.275815
v -0.433931 2.551958 1.275815
v 0.433931 3.423738 0.977730
v 0.433931 2.551958 0.977730
v 0.433931 3.423738 1.275815
v 0.433931 2.551958 1.275815
vn -1.0000 -0.0000 -0.0000
vn -0.0000 -0.0000 1.0000
vn 1.0000 -0.0000 -0.0000
vn -0.0000 -0.0000 -1.0000
vn -0.0000 1.0000 -0.0000
vn -0.0000 -1.0000 -0.0000
vt 0.007511 0.791454
vt 0.007511 0.672255
vt 0.048269 0.672255
vt 0.048269 0.791454
vt 0.007511 0.553056
vt 0.126175 0.553056
vt 0.126175 0.672255
vt 0.089026 0.672255
vt 0.089026 0.791454
vt 0.244838 0.553056
vt 0.244838 0.672255
vt 0.129783 0.672255
vt 0.129783 0.790918
vt 0.089026 0.790918
vt 0.170541 0.672255
vt 0.170541 0.790918
s 0
usemtl Material.011
f 1/1/1 2/2/1 4/3/1 3/4/1
f 3/2/2 4/5/2 8/6/2 7/7/2
f 7/4/3 8/3/3 6/8/3 5/9/3
f 5/7/4 6/6/4 2/10/4 1/11/4
f 3/12/5 7/13/5 5/14/5 1/8/5
f 8/15/6 4/16/6 2/13/6 6/12/6
