# Blender 5.0.1
# www.blender.org
mtllib pipe.mtl
o Cube
v 0.086089 0.483368 -1.845936
v 0.269297 0.407481 -1.845936
v 0.407481 0.269297 -1.845936
v 0.483368 0.086089 -1.845936
v 0.483368 -0.086089 -1.845936
v 0.407481 -0.269297 -1.845936
v 0.269297 -0.407481 -1.845936
v 0.086089 -0.483368 -1.845936
v 0.483368 0.086089 1.845936
v 0.407481 0.269297 1.845936
v 0.269297 0.407481 1.845936
v 0.086089 0.483368 1.845936
v 0.086089 -0.483368 1.845936
v 0.269297 -0.407481 1.845936
v 0.407481 -0.269297 1.845936
v 0.483368 -0.086089 1.845936
v -0.483368 0.086089 -1.845936
v -0.407481 0.269297 -1.845936
v -0.269297 0.407481 -1.845936
v -0.086089 0.483368 -1.845936
v -0.086089 -0.483368 -1.845936
v -0.269297 -0.407481 -1.845936
v -0.407481 -0.269297 -1.845936
v -0.483368 -0.086089 -1.845936
v -0.086089 0.483368 1.845936
v -0.269297 0.407481 1.845936
v -0.407481 0.269297 1.845936
v -0.483368 0.086089 1.845936
v -0.483368 -0.086089 1.845936
v -0.407481 -0.269297 1.845936
v -0.269297 -0.407481 1.845936
v -0.086089 -0.483368 1.845936
v -0.342186 -0.517773 -1.906143
v -0.109390 -0.614200 -1.906143
v -0.109390 -0.614200 1.906143
v -0.342186 -0.517773 1.906143
v -0.517773 -0.342186 1.906143
v -0.614200 -0.109390 1.906143
v -0.614200 -0.109390 -1.906143
v -0.517773 -0.342186 -1.906143
v 0.342186 0.517773 -1.906143
v 0.109390 0.614200 -1.906143
v 0.109390 0.614200 1.906143
v 0.342186 0.517773 1.906143
v 0.517773 0.342186 1.906143
v 0.614200 0.109390 1.906143
v 0.614200 0.109390 -1.906143
v 0.517773 0.342186 -1.906143
v -0.342186 0.517773 1.906143
v -0.109390 0.614200 1.906143
v -0.109390 0.614200 -1.906143
v -0.342186 0.517773 -1.906143
v -0.517773 0.342186 -1.906143
v -0.614200 0.109390 -1.906143
v -0.614200 0.109390 1.906143
v -0.517773 0.342186 1.906143
v 0.342186 -0.517773 1.906143
v 0.109390 -0.614200 1.906143
v 0.109390 -0.614200 -1.906143
v 0.342186 -0.517773 -1.906143
v 0.517773 -0.342186 -1.906143
v 0.614200 -0.109390 -1.906143
v 0.614200 -0.109390 1.906143
v 0.517773 -0.342186 1.906143
v -0.342186 -0.517773 -1.977331
v -0.109390 -0.614200 -1.977331
v -0.109390 -0.614200 1.977331
v -0.342186 -0.517773 1.977331
v -0.517773 -0.342186 1.977331
v -0.614200 -0.109390 1.977331
v -0.614200 -0.109390 -1.977331
v -0.517773 -0.342186 -1.977331
v 0.342186 0.517773 -1.977331
v 0.109390 0.614200 -1.977331
v 0.109390 0.614200 1.977331
v 0.342186 0.517773 1.977331
v 0.517773 0.342186 1.977331
v 0.614200 0.109390 1.977331
v 0.614200 0.109390 -1.977331
v 0.517773 0.342186 -1.977331
v -0.342186 0.517773 1.977331
v -0.109390 0.614200 1.977331
v -0.109390 0.614200 -1.977331
v -0.342186 0.517773 -1.977331
v -0.517773 0.342186 -1.977331
v -0.614200 0.109390 -1.977331
v -0.614200 0.109390 1.977331
v -0.517773 0.342186 1.977331
v 0.342186 -0.517773 1.977331
v 0.109390 -0.614200 1.977331
v 0.109390 -0.614200 -1.977331
v 0.342186 -0.517773 -1.977331
v 0.517773 -0.342186 -1.977331
v 0.614200 -0.109390 -1.977331
v 0.614200 -0.109390 1.977331
v 0.517773 -0.342186 1.977331
vn -0.3827 -0.9239 -0.0000
vn -0.9239 -0.3827 -0.0000
vn 0.3827 0.9239 -0.0000
vn 0.9239 0.3827 -0.0000
vn -0.3827 0.9239 -0.0000
vn -0.9239 0.3827 -0.0000
vn 0.3827 -0.9239 -0.0000
vn 0.9239 -0.3827 -0.0000
vn 0.2980 0.2980 0.9068
vn 0.7071 0.7071 -0.0000
vn -0.0000 1.0000 -0.0000
vn 1.0000 -0.0000 -0.0000
vn 0.7071 -0.7071 -0.0000
vn -0.0000 -1.0000 -0.0000
vn 0.1610 0.3888 -0.9071
vn -0.7071 0.7071 -0.0000
vn -1.0000 -0.0000 -0.0000
vn -0.7071 -0.7071 -0.0000
vn 0.1610 -0.3888 -0.9071
vn 0.4180 -0.0000 0.9084
vn 0.3888 0.1610 -0.9071
vn 0.2981 -0.2980 0.9068
vn 0.1610 -0.3888 0.9071
vn 0.2981 0.2980 -0.9068
vn -0.1610 -0.3888 0.9071
vn 0.3888 0.1610 0.9071
vn -0.0000 0.4180 -0.9084
vn 0.3888 -0.1610 0.9071
vn 0.4180 -0.0000 -0.9084
vn -0.1610 -0.3888 -0.9071
vn -0.1610 0.3888 -0.9071
vn 0.2980 -0.2980 -0.9068
vn 0.3888 -0.1610 -0.9071
vn -0.0000 -0.4180 -0.9084
vn -0.3888 -0.1610 -0.9071
vn -0.1610 0.3888 0.9071
vn -0.2980 0.2980 -0.9068
vn -0.0000 -0.4180 0.9084
vn -0.4180 -0.0000 -0.9084
vn -0.3888 -0.1610 0.9071
vn -0.2980 -0.2980 0.9068
vn -0.3888 0.1610 0.9071
vn -0.2981 -0.2980 -0.9068
vn -0.4180 -0.0000 0.9084
vn 0.1610 0.3888 0.9071
vn -0.2981 0.2980 0.9068
vn -0.3888 0.1610 -0.9071
vn -0.0000 0.4180 0.9084
vn -0.0000 -0.0000 -1.0000
vn -0.0000 -0.0000 1.0000
vt 0.016367 0.269464
vt 0.378055 0.269464
vt 0.378056 0.287412
vt 0.016367 0.287413
vt 0.378056 0.324506
vt 0.016367 0.324507
vt 0.016367 0.306558
vt 0.378056 0.306557
vt 0.378056 0.257536
vt 0.016367 0.257537
vt 0.016367 0.239588
vt 0.378055 0.239587
vt 0.016367 0.202494
vt 0.378055 0.202493
vt 0.378055 0.220442
vt 0.016367 0.220443
vt 0.378055 0.202493
vt 0.016367 0.202494
vt 0.016367 0.184545
vt 0.378055 0.184545
vt 0.016366 0.147451
vt 0.378055 0.147451
vt 0.378055 0.165399
vt 0.016366 0.165400
vt 0.016367 0.348362
vt 0.378056 0.348361
vt 0.378056 0.366310
vt 0.016367 0.366311
vt 0.378056 0.403404
vt 0.016367 0.403405
vt 0.016367 0.385456
vt 0.378056 0.385455
vt 0.148203 0.078305
vt 0.148203 0.097450
vt 0.135513 0.100042
vt 0.135513 0.075714
vt 0.378056 0.269463
vt 0.378056 0.415331
vt 0.016367 0.415332
vt 0.378056 0.336434
vt 0.016367 0.336435
vt 0.304660 0.040994
vt 0.286711 0.048429
vt 0.279262 0.037751
vt 0.302069 0.028304
vt 0.232028 0.021330
vt 0.254834 0.021330
vt 0.254834 0.028304
vt 0.232028 0.028304
vt 0.054329 0.028305
vt 0.031522 0.028305
vt 0.031522 0.021331
vt 0.054329 0.021331
vt 0.353681 0.115399
vt 0.361116 0.097450
vt 0.373806 0.100041
vt 0.364359 0.122848
vt 0.155637 0.115399
vt 0.167565 0.127327
vt 0.160116 0.138004
vt 0.144960 0.122848
vt 0.341754 0.048429
vt 0.323805 0.040994
vt 0.326396 0.028304
vt 0.349203 0.037751
vt 0.185513 0.134761
vt 0.204659 0.134761
vt 0.207250 0.147451
vt 0.182923 0.147451
vt 0.222607 0.127327
vt 0.230057 0.138004
vt 0.234535 0.115399
vt 0.241970 0.097450
vt 0.254659 0.100041
vt 0.245213 0.122848
vt 0.274784 0.060356
vt 0.264106 0.052907
vt 0.353681 0.060356
vt 0.364359 0.052907
vt 0.323805 0.134761
vt 0.341754 0.127326
vt 0.349203 0.138004
vt 0.326396 0.147451
vt 0.267349 0.078305
vt 0.254659 0.075714
vt 0.361116 0.078305
vt 0.373806 0.075714
vt 0.286711 0.127326
vt 0.304660 0.134761
vt 0.302069 0.147451
vt 0.279262 0.138004
vt 0.185513 0.040994
vt 0.167565 0.048429
vt 0.160115 0.037751
vt 0.182922 0.028305
vt 0.267349 0.097450
vt 0.254659 0.100041
vt 0.274784 0.115399
vt 0.264106 0.122848
vt 0.241969 0.078305
vt 0.234535 0.060356
vt 0.245212 0.052907
vt 0.254659 0.075714
vt 0.222607 0.048429
vt 0.204659 0.040994
vt 0.207250 0.028304
vt 0.230056 0.037751
vt 0.155637 0.060357
vt 0.144960 0.052907
vt 0.126066 0.052907
vt 0.135513 0.100042
vt 0.126066 0.122848
vt 0.110910 0.138004
vt 0.088103 0.147451
vt 0.063776 0.147451
vt 0.040969 0.138004
vt 0.025813 0.122849
vt 0.016366 0.100042
vt 0.016366 0.075714
vt 0.025813 0.052908
vt 0.040969 0.037752
vt 0.063776 0.028305
vt 0.088103 0.028305
vt 0.110910 0.037752
vt 0.468349 0.138004
vt 0.445543 0.147450
vt 0.421215 0.147451
vt 0.398409 0.138004
vt 0.383253 0.122848
vt 0.373806 0.100041
vt 0.373806 0.075714
vt 0.383252 0.052907
vt 0.398408 0.037751
vt 0.421215 0.028304
vt 0.445543 0.028304
vt 0.468349 0.037751
vt 0.483505 0.052907
vt 0.492952 0.075713
vt 0.492952 0.100041
vt 0.483505 0.122848
vt 0.209367 0.014356
vt 0.233694 0.014356
vt 0.233694 0.021330
vt 0.209367 0.021330
vt 0.201716 0.021330
vt 0.216872 0.021330
vt 0.216872 0.028304
vt 0.201716 0.028304
vt 0.339931 0.028304
vt 0.317124 0.028304
vt 0.317124 0.021330
vt 0.339931 0.021330
vt 0.216872 0.028304
vt 0.364258 0.028304
vt 0.364258 0.021330
vt 0.031522 0.014356
vt 0.054329 0.014356
vt 0.279162 0.021330
vt 0.279162 0.028304
vt 0.301968 0.028304
vt 0.301968 0.021330
vt 0.139426 0.021330
vt 0.116619 0.021330
vt 0.116619 0.014356
vt 0.139426 0.014356
vt 0.303635 0.021330
vt 0.279308 0.021330
vt 0.279308 0.014356
vt 0.303635 0.014356
vt 0.186560 0.021330
vt 0.163753 0.021330
vt 0.163753 0.014356
vt 0.186560 0.014356
vt 0.016366 0.014356
vt 0.016366 0.021331
vt 0.078656 0.014356
vt 0.101463 0.014356
vt 0.101463 0.021330
vt 0.078656 0.021331
vt 0.186560 0.021330
vt 0.131775 0.021330
vt 0.131775 0.028305
vt 0.116619 0.028305
vt 0.256501 0.021330
vt 0.256501 0.014356
vt 0.154582 0.021330
vt 0.178909 0.021330
vt 0.178909 0.028305
vt 0.154582 0.028305
vt 0.326442 0.021330
vt 0.326442 0.014356
vt 0.256501 0.021330
vt 0.101463 0.021330
vt 0.101463 0.028305
vt 0.078656 0.028305
vt 0.016366 0.028305
vt 0.387065 0.028304
vt 0.387065 0.021330
vt 0.301968 0.021330
vt 0.301968 0.028304
vt 0.116619 0.021330
s 0
usemtl Material
f 21/1/1 32/2/1 31/3/1 22/4/1
f 29/5/2 24/6/2 23/7/2 30/8/2
f 1/9/3 12/10/3 11/11/3 2/12/3
f 9/13/4 4/14/4 3/15/4 10/16/4
f 25/17/5 20/18/5 19/19/5 26/20/5
f 17/21/6 28/22/6 27/23/6 18/24/6
f 13/25/7 8/26/7 7/27/7 14/28/7
f 5/29/8 16/30/8 15/31/8 6/32/8
f 2/33/9 3/34/9 48/35/9 41/36/9
f 2/12/10 11/11/10 10/16/10 3/15/10
f 1/9/11 20/37/11 25/1/11 12/10/11
f 5/29/12 4/38/12 9/39/12 16/30/12
f 14/28/13 7/27/13 6/32/13 15/31/13
f 21/40/14 8/26/14 13/25/14 32/41/14
f 11/42/15 12/43/15 43/44/15 44/45/15
f 26/20/16 19/19/16 18/24/16 27/23/16
f 29/5/17 28/40/17 17/41/17 24/6/17
f 22/4/18 31/3/18 30/8/18 23/7/18
f 38/46/2 37/47/2 69/48/2 70/49/2
f 64/50/8 63/51/8 95/52/8 96/53/8
f 13/54/19 14/55/19 57/56/19 58/57/19
f 4/58/20 5/59/20 62/60/20 47/61/20
f 9/62/21 10/63/21 45/64/21 46/65/21
f 6/66/22 7/67/22 60/68/22 61/69/22
f 7/67/23 8/70/23 59/71/23 60/68/23
f 10/63/24 11/42/24 44/45/24 45/64/24
f 21/72/25 22/73/25 33/74/25 34/75/25
f 3/34/26 4/58/26 47/61/26 48/35/26
f 12/43/27 25/76/27 50/77/27 43/44/27
f 5/59/28 6/66/28 61/69/28 62/60/28
f 16/78/29 9/62/29 46/65/29 63/79/29
f 31/80/30 32/81/30 35/82/30 36/83/30
f 25/76/31 26/84/31 49/85/31 50/77/31
f 14/55/32 15/86/32 64/87/32 57/56/32
f 15/86/33 16/78/33 63/79/33 64/87/33
f 32/81/34 13/54/34 58/57/34 35/82/34
f 29/88/35 30/89/35 37/90/35 38/91/35
f 19/92/36 20/93/36 51/94/36 52/95/36
f 26/84/37 27/96/37 56/97/37 49/85/37
f 8/70/38 21/72/38 34/75/38 59/71/38
f 28/98/39 29/88/39 38/91/39 55/99/39
f 23/100/40 24/101/40 39/102/40 40/103/40
f 22/73/41 23/100/41 40/103/41 33/74/41
f 17/104/42 18/105/42 53/106/42 54/107/42
f 30/89/43 31/80/43 36/83/43 37/90/43
f 24/101/44 17/104/44 54/107/44 39/102/44
f 1/108/45 2/33/45 41/36/45 42/109/45
f 18/105/46 19/92/46 52/95/46 53/106/46
f 27/96/47 28/98/47 55/99/47 56/97/47
f 20/93/48 1/108/48 42/109/48 51/94/48
f 66/110/49 65/36/49 72/111/49 71/112/49 86/113/49 85/114/49 84/115/49 83/116/49 74/117/49 73/118/49 80/119/49 79/120/49 94/121/49 93/122/49 92/123/49 91/124/49
f 90/125/50 89/126/50 96/127/50 95/128/50 78/129/50 77/130/50 76/131/50 75/132/50 82/133/50 81/134/50 88/135/50 87/136/50 70/137/50 69/138/50 68/139/50 67/140/50
f 49/141/16 56/142/16 88/143/16 81/144/16
f 59/145/14 34/146/14 66/147/14 91/148/14
f 40/149/2 39/150/2 71/151/2 72/152/2
f 55/146/17 38/46/17 70/49/17 87/153/17
f 33/154/18 40/149/18 72/152/18 65/155/18
f 42/156/3 41/157/3 73/53/3 74/52/3
f 37/47/18 36/158/18 68/159/18 69/48/18
f 39/150/17 54/160/17 86/161/17 71/151/17
f 44/162/3 43/163/3 75/164/3 76/165/3
f 53/166/16 52/167/16 84/168/16 85/169/16
f 46/170/4 45/171/4 77/172/4 78/173/4
f 51/174/11 42/156/11 74/52/11 83/175/11
f 48/176/4 47/177/4 79/178/4 80/179/4
f 41/157/10 48/176/10 80/179/10 73/53/10
f 50/173/5 49/141/5 81/144/5 82/180/5
f 47/163/12 62/181/12 94/182/12 79/183/12
f 52/167/5 51/184/5 83/185/5 84/168/5
f 61/186/13 60/187/13 92/188/13 93/189/13
f 54/190/6 53/166/6 85/169/6 86/191/6
f 45/171/10 44/162/10 76/165/10 77/172/10
f 56/142/6 55/185/6 87/192/6 88/143/6
f 43/163/11 50/193/11 82/177/11 75/164/11
f 58/194/7 57/195/7 89/179/7 90/178/7
f 63/51/12 46/196/12 78/175/12 95/52/12
f 60/187/7 59/145/7 91/148/7 92/188/7
f 34/197/1 33/154/1 65/155/1 66/198/1
f 57/195/13 64/50/13 96/53/13 89/179/13
f 62/181/8 61/186/8 93/189/8 94/182/8
f 36/158/1 35/199/1 67/200/1 68/159/1
f 35/183/14 58/194/14 90/178/14 67/201/14
