# Blender 5.0.1
# www.blender.org
mtllib pipe_valve.mtl
o Cube.002
v 0.086089 0.483368 2.088396
v 0.269297 0.407481 2.088396
v 0.407481 0.269297 2.088396
v 0.483368 0.086089 2.088396
v 0.483368 -0.086089 2.088396
v 0.407481 -0.269297 2.088396
v 0.269297 -0.407481 2.088396
v 0.086089 -0.483368 2.088396
v 0.483368 0.086089 3.465905
v 0.407481 0.269297 3.465905
v 0.269297 0.407481 3.465905
v 0.086089 0.483368 3.465905
v 0.086089 -0.483368 3.465905
v 0.269297 -0.407481 3.465905
v 0.407481 -0.269297 3.465905
v 0.483368 -0.086089 3.465905
v -0.483368 0.086089 2.088396
v -0.407481 0.269297 2.088396
v -0.269297 0.407481 2.088396
v -0.086089 0.483368 2.088396
v -0.086089 -0.483368 2.088396
v -0.269297 -0.407481 2.088396
v -0.407481 -0.269297 2.088396
v -0.483368 -0.086089 2.088396
v -0.086089 0.483368 3.465905
v -0.269297 0.407481 3.465905
v -0.407481 0.269297 3.465905
v -0.483368 0.086089 3.465905
v -0.483368 -0.086089 3.465905
v -0.407481 -0.269297 3.465905
v -0.269297 -0.407481 3.465905
v -0.086089 -0.483368 3.465905
v -0.342186 -0.517773 2.030192
v -0.109390 -0.614200 2.029613
v -0.109390 -0.614200 3.524688
v -0.342186 -0.517773 3.524109
v -0.517773 -0.342186 3.524109
v -0.614200 -0.109390 3.524688
v -0.614200 -0.109390 2.029613
v -0.517773 -0.342186 2.030192
v 0.342186 0.517773 2.030192
v 0.109390 0.614200 2.029613
v 0.109390 0.614200 3.524688
v 0.342186 0.517773 3.524109
v 0.517773 0.342186 3.524109
v 0.614200 0.109390 3.524688
v 0.614200 0.109390 2.029613
v 0.517773 0.342186 2.030192
v -0.342186 0.517773 3.524109
v -0.109390 0.614200 3.524688
v -0.109390 0.614200 2.029613
v -0.342186 0.517773 2.030192
v -0.517773 0.342186 2.030192
v -0.614200 0.109390 2.029613
v -0.614200 0.109390 3.524688
v -0.517773 0.342186 3.524109
v 0.342186 -0.517773 3.524109
v 0.109390 -0.614200 3.524688
v 0.109390 -0.614200 2.029613
v 0.342186 -0.517773 2.030192
v 0.517773 -0.342186 2.030192
v 0.614200 -0.109390 2.029613
v 0.614200 -0.109390 3.524688
v 0.517773 -0.342186 3.524109
v -0.342186 -0.517773 1.985810
v -0.109390 -0.614200 1.985222
v -0.109390 -0.614200 3.569080
v -0.342186 -0.517773 3.568491
v -0.517773 -0.342186 3.568491
v -0.614200 -0.109390 3.569080
v -0.614200 -0.109390 1.985222
v -0.517773 -0.342186 1.985810
v 0.342186 0.517773 1.985810
v 0.109390 0.614200 1.985222
v 0.109390 0.614200 3.569080
v 0.342186 0.517773 3.568491
v 0.517773 0.342186 3.568491
v 0.614200 0.109390 3.569080
v 0.614200 0.109390 1.985222
v 0.517773 0.342186 1.985810
v -0.342186 0.517773 3.568491
v -0.109390 0.614200 3.569080
v -0.109390 0.614200 1.985222
v -0.342186 0.517773 1.985810
v -0.517773 0.342186 1.985810
v -0.614200 0.109390 1.985222
v -0.614200 0.109390 3.569080
v -0.517773 0.342186 3.568491
v 0.342186 -0.517773 3.568491
v 0.109390 -0.614200 3.569080
v 0.109390 -0.614200 1.985222
v 0.342186 -0.517773 1.985810
v 0.517773 -0.342186 1.985810
v 0.614200 -0.109390 1.985222
v 0.614200 -0.109390 3.569080
v 0.517773 -0.342186 3.568491
vn -0.3827 -0.9239 -0.0000
vn -0.9239 -0.3827 -0.0000
vn 0.3827 0.9239 -0.0000
vn 0.9239 0.3827 -0.0000
vn -0.3827 0.9239 -0.0000
vn -0.9239 0.3827 -0.0000
vn 0.3827 -0.9239 -0.0000
vn 0.9239 -0.3827 -0.0000
vn 0.2898 0.2898 0.9121
vn 0.7071 0.7071 -0.0000
vn -0.0000 1.0000 -0.0000
vn 1.0000 -0.0000 -0.0000
vn 0.7071 -0.7071 -0.0000
vn -0.0000 -1.0000 -0.0000
vn 0.1561 0.3800 -0.9117
vn -0.7071 0.7071 -0.0000
vn -1.0000 -0.0000 -0.0000
vn -0.7071 -0.7071 -0.0000
vn 0.1561 -0.3800 -0.9117
vn 0.4098 -0.0000 0.9122
vn 0.3800 0.1561 -0.9117
vn 0.2898 -0.2898 0.9121
vn 0.1561 -0.3800 0.9117
vn 0.2898 0.2898 -0.9121
vn -0.1561 -0.3800 0.9117
vn 0.3800 0.1561 0.9117
vn -0.0000 0.4098 -0.9122
vn 0.3800 -0.1561 0.9117
vn 0.4098 -0.0000 -0.9122
vn -0.1561 -0.3800 -0.9117
vn -0.1561 0.3800 -0.9117
vn 0.2898 -0.2898 -0.9121
vn 0.3800 -0.1561 -0.9117
vn -0.0000 -0.4098 -0.9122
vn -0.3800 -0.1561 -0.9117
vn -0.1561 0.3800 0.9117
vn -0.2898 0.2898 -0.9121
vn -0.0000 -0.4098 0.9122
vn -0.4098 -0.0000 -0.9122
vn -0.3800 -0.1561 0.9117
vn -0.2898 -0.2898 0.9121
vn -0.3800 0.1561 0.9117
vn -0.2898 -0.2898 -0.9121
vn -0.4098 -0.0000 0.9122
vn 0.1561 0.3800 0.9117
vn -0.2898 0.2898 0.9121
vn -0.3800 0.1561 -0.9117
vn -0.0000 0.4098 0.9122
vn -0.0000 -0.0000 -1.0000
vn -0.0000 -0.0000 1.0000
vt 0.809143 0.772220
vt 0.967931 0.772234
vt 0.967929 0.793352
vt 0.809141 0.793339
vt 0.809157 0.609570
vt 0.967945 0.609584
vt 0.967943 0.632443
vt 0.809155 0.632429
vt 0.809148 0.710136
vt 0.967936 0.710149
vt 0.967934 0.731268
vt 0.809147 0.731254
vt 0.809163 0.538023
vt 0.967951 0.538036
vt 0.967949 0.559155
vt 0.809161 0.559142
vt 0.967938 0.690302
vt 0.809150 0.690288
vt 0.809152 0.669170
vt 0.967940 0.669183
vt 0.967947 0.591247
vt 0.809159 0.591234
vt 0.809160 0.575070
vt 0.967948 0.575084
vt 0.967933 0.752386
vt 0.809145 0.752373
vt 0.967953 0.518189
vt 0.809165 0.518176
vt 0.809167 0.497057
vt 0.967955 0.497071
vt 0.794230 0.562485
vt 0.794232 0.539958
vt 0.809163 0.536911
vt 0.809161 0.565535
vt 0.809168 0.481128
vt 0.967956 0.481142
vt 0.750314 0.746571
vt 0.771433 0.737825
vt 0.780197 0.750389
vt 0.753361 0.761503
vt 0.809153 0.653241
vt 0.967941 0.653254
vt 0.924090 0.803649
vt 0.895045 0.803714
vt 0.895045 0.798598
vt 0.924091 0.798532
vt 0.868798 0.819263
vt 0.895633 0.819332
vt 0.895632 0.824449
vt 0.868798 0.824379
vt 0.692642 0.659021
vt 0.683892 0.680139
vt 0.668962 0.677089
vt 0.680079 0.650255
vt 0.785486 0.518839
vt 0.771453 0.504804
vt 0.780219 0.492241
vt 0.798050 0.510075
vt 0.706669 0.737820
vt 0.727787 0.746569
vt 0.724737 0.761500
vt 0.697904 0.750382
vt 0.750335 0.496054
vt 0.727809 0.496052
vt 0.724761 0.481121
vt 0.753385 0.481124
vt 0.706689 0.504798
vt 0.697926 0.492234
vt 0.692654 0.518831
vt 0.683904 0.539949
vt 0.668974 0.536899
vt 0.680091 0.510065
vt 0.785469 0.723792
vt 0.798031 0.732558
vt 0.692636 0.723785
vt 0.680072 0.732548
vt 0.727797 0.636242
vt 0.706677 0.644988
vt 0.697913 0.632424
vt 0.724749 0.621310
vt 0.794218 0.702675
vt 0.809149 0.705724
vt 0.683891 0.702665
vt 0.668959 0.705713
vt 0.771441 0.644993
vt 0.750323 0.636244
vt 0.753373 0.621313
vt 0.780207 0.632431
vt 0.750326 0.606382
vt 0.771445 0.597636
vt 0.780209 0.610200
vt 0.753373 0.621313
vt 0.794220 0.680148
vt 0.809151 0.677101
vt 0.785474 0.659028
vt 0.798038 0.650265
vt 0.683903 0.562476
vt 0.692649 0.583595
vt 0.680084 0.592359
vt 0.668971 0.565523
vt 0.706681 0.597630
vt 0.727799 0.606380
vt 0.697915 0.610193
vt 0.785481 0.583603
vt 0.798043 0.592369
vt 0.697902 0.772613
vt 0.780195 0.772620
vt 0.798026 0.790454
vt 0.809139 0.817290
vt 0.809137 0.845914
vt 0.798019 0.872748
vt 0.780185 0.890579
vt 0.753349 0.901692
vt 0.724725 0.901690
vt 0.697891 0.890572
vt 0.680060 0.872738
vt 0.668947 0.845902
vt 0.668950 0.817278
vt 0.680067 0.790444
vt 0.557736 0.492222
vt 0.584572 0.481109
vt 0.613196 0.481112
vt 0.640029 0.492229
vt 0.657861 0.510063
vt 0.668971 0.565523
vt 0.657854 0.592357
vt 0.640019 0.610188
vt 0.613184 0.621301
vt 0.584560 0.621298
vt 0.557726 0.610181
vt 0.539895 0.592347
vt 0.528782 0.565511
vt 0.528784 0.536887
vt 0.539902 0.510053
vt 0.889039 0.814081
vt 0.868798 0.814079
vt 0.868799 0.808963
vt 0.889039 0.808965
vt 0.915872 0.829701
vt 0.941091 0.829704
vt 0.941091 0.834821
vt 0.915872 0.834818
vt 0.924090 0.803783
vt 0.924090 0.808900
vt 0.895044 0.808830
vt 0.947390 0.803651
vt 0.947390 0.798534
vt 0.868600 0.803711
vt 0.868599 0.808827
vt 0.920854 0.793415
vt 0.947689 0.793351
vt 0.947689 0.798467
vt 0.920854 0.798532
vt 0.868600 0.798595
vt 0.947390 0.803785
vt 0.947389 0.808902
vt 0.967927 0.814088
vt 0.941093 0.814018
vt 0.941093 0.808902
vt 0.967928 0.808972
vt 0.848560 0.793342
vt 0.868800 0.793344
vt 0.868800 0.798460
vt 0.848560 0.798458
vt 0.920852 0.819334
vt 0.947687 0.819270
vt 0.947686 0.824386
vt 0.920851 0.824451
vt 0.895635 0.793413
vt 0.895635 0.798530
vt 0.967926 0.829639
vt 0.941091 0.829570
vt 0.941092 0.824453
vt 0.967927 0.824523
vt 0.967929 0.798468
vt 0.915873 0.814016
vt 0.915874 0.808899
vt 0.915872 0.829568
vt 0.915872 0.824451
vt 0.889037 0.829632
vt 0.868797 0.829630
vt 0.868797 0.824515
vt 0.889038 0.824516
vt 0.967928 0.803720
vt 0.967928 0.808836
vt 0.967927 0.819271
vt 0.967927 0.824387
vt 0.967929 0.798604
vt 0.915873 0.819200
vt 0.889038 0.819265
vt 0.889039 0.814149
vt 0.915873 0.814083
vt 0.889037 0.834748
vt 0.967926 0.834755
vt 0.868798 0.819263
vt 0.868798 0.814147
vt 0.967927 0.819271
vt 0.941092 0.819202
vt 0.941093 0.814085
vt 0.967927 0.814155
s 0
usemtl Material.002
f 21/1/1 32/2/1 31/3/1 22/4/1
f 29/5/2 24/6/2 23/7/2 30/8/2
f 1/9/3 12/10/3 11/11/3 2/12/3
f 9/13/4 4/14/4 3/15/4 10/16/4
f 25/17/5 20/18/5 19/19/5 26/20/5
f 17/21/6 28/22/6 27/23/6 18/24/6
f 13/25/7 8/26/7 7/12/7 14/11/7
f 5/27/8 16/28/8 15/29/8 6/30/8
f 2/31/9 3/32/9 48/33/9 41/34/9
f 2/24/10 11/23/10 10/16/10 3/15/10
f 1/9/11 20/18/11 25/17/11 12/10/11
f 5/27/12 4/14/12 9/13/12 16/28/12
f 14/35/13 7/36/13 6/30/13 15/29/13
f 21/1/14 8/26/14 13/25/14 32/2/14
f 11/37/15 12/38/15 43/39/15 44/40/15
f 26/20/16 19/19/16 18/41/16 27/42/16
f 29/5/17 28/22/17 17/21/17 24/6/17
f 22/42/18 31/41/18 30/8/18 23/7/18
f 38/43/2 37/44/2 69/45/2 70/46/2
f 64/47/8 63/48/8 95/49/8 96/50/8
f 13/51/19 14/52/19 57/53/19 58/54/19
f 4/55/20 5/56/20 62/57/20 47/58/20
f 9/59/21 10/60/21 45/61/21 46/62/21
f 6/63/22 7/64/22 60/65/22 61/66/22
f 7/64/23 8/67/23 59/68/23 60/65/23
f 10/60/24 11/37/24 44/40/24 45/61/24
f 21/69/25 22/70/25 33/71/25 34/72/25
f 3/32/26 4/55/26 47/58/26 48/33/26
f 12/38/27 25/73/27 50/74/27 43/39/27
f 5/56/28 6/63/28 61/66/28 62/57/28
f 16/75/29 9/59/29 46/62/29 63/76/29
f 31/77/30 32/78/30 35/79/30 36/80/30
f 25/73/31 26/81/31 49/82/31 50/74/31
f 14/52/32 15/83/32 64/84/32 57/53/32
f 15/83/33 16/75/33 63/76/33 64/84/33
f 32/78/34 13/51/34 58/54/34 35/79/34
f 29/85/35 30/86/35 37/87/35 38/88/35
f 19/89/36 20/90/36 51/91/36 52/92/36
f 26/81/37 27/93/37 56/94/37 49/82/37
f 8/67/38 21/69/38 34/72/38 59/68/38
f 28/95/39 29/85/39 38/88/39 55/96/39
f 23/97/40 24/98/40 39/99/40 40/100/40
f 22/70/41 23/97/41 40/100/41 33/71/41
f 17/101/42 18/102/42 53/80/42 54/103/42
f 30/86/43 31/77/43 36/80/43 37/87/43
f 24/98/44 17/101/44 54/103/44 39/99/44
f 1/104/45 2/31/45 41/34/45 42/105/45
f 18/102/46 19/89/46 52/92/46 53/80/46
f 27/93/47 28/95/47 55/96/47 56/94/47
f 20/90/48 1/104/48 42/105/48 51/91/48
f 66/106/49 65/61/49 72/40/49 71/107/49 86/108/49 85/109/49 84/110/49 83/111/49 74/112/49 73/113/49 80/114/49 79/115/49 94/116/49 93/117/49 92/118/49 91/119/49
f 90/120/50 89/121/50 96/122/50 95/123/50 78/124/50 77/71/50 76/125/50 75/126/50 82/127/50 81/128/50 88/129/50 87/130/50 70/131/50 69/132/50 68/133/50 67/134/50
f 49/135/16 56/136/16 88/137/16 81/138/16
f 59/139/14 34/140/14 66/141/14 91/142/14
f 40/44/2 39/143/2 71/144/2 72/145/2
f 55/146/17 38/43/17 70/46/17 87/147/17
f 33/148/18 40/44/18 72/145/18 65/149/18
f 42/150/3 41/151/3 73/152/3 74/153/3
f 37/44/18 36/148/18 68/154/18 69/45/18
f 39/143/17 54/155/17 86/156/17 71/144/17
f 44/157/3 43/158/3 75/159/3 76/160/3
f 53/161/16 52/162/16 84/163/16 85/164/16
f 46/165/4 45/166/4 77/167/4 78/168/4
f 51/169/11 42/150/11 74/153/11 83/170/11
f 48/171/4 47/172/4 79/173/4 80/174/4
f 41/151/10 48/3/10 80/175/10 73/152/10
f 50/176/5 49/135/5 81/138/5 82/177/5
f 47/172/12 62/178/12 94/179/12 79/173/12
f 52/162/5 51/169/5 83/170/5 84/163/5
f 61/180/13 60/181/13 92/182/13 93/183/13
f 54/155/6 53/184/6 85/185/6 86/156/6
f 45/166/10 44/186/10 76/187/10 77/167/10
f 56/184/6 55/146/6 87/147/6 88/188/6
f 43/158/11 50/176/11 82/177/11 75/159/11
f 58/189/7 57/190/7 89/191/7 90/192/7
f 63/48/12 46/165/12 78/168/12 95/49/12
f 60/180/7 59/139/7 91/142/7 92/193/7
f 34/140/1 33/171/1 65/194/1 66/141/1
f 57/190/13 64/195/13 96/196/13 89/191/13
f 62/178/8 61/180/8 93/183/8 94/179/8
f 36/197/1 35/198/1 67/199/1 68/200/1
f 35/198/14 58/189/14 90/192/14 67/199/14
o Cube.003
v -0.081985 0.439074 2.961759
v -0.178277 0.439074 2.865467
v -0.178277 0.610211 2.865467
v -0.081985 0.610211 2.961759
v -0.178277 0.439074 2.701497
v -0.081985 0.439074 2.605205
v -0.081985 0.610211 2.605205
v -0.178277 0.610211 2.701497
v 0.178277 0.439074 2.865467
v 0.081985 0.439074 2.961759
v 0.081985 0.610211 2.961759
v 0.178277 0.610211 2.865467
v 0.081985 0.439074 2.605205
v 0.178277 0.439074 2.701497
v 0.178277 0.610211 2.701497
v 0.081985 0.610211 2.605205
v -0.024050 0.610210 2.835779
v -0.052296 0.610210 2.807532
v -0.052296 0.610210 2.759433
v -0.024050 0.610210 2.731186
v 0.024050 0.610210 2.731186
v 0.052296 0.610210 2.759433
v 0.052296 0.610210 2.807532
v 0.024050 0.610210 2.835779
v -0.024050 0.845448 2.835779
v -0.052296 0.845448 2.807532
v -0.052296 0.845448 2.759433
v -0.024050 0.845448 2.731186
v 0.024050 0.845448 2.731186
v 0.052296 0.845448 2.759433
v 0.052296 0.845448 2.807532
v 0.024050 0.845448 2.835779
v -0.019824 0.889694 2.826590
v -0.043108 0.889694 2.803307
v -0.043108 0.889694 2.763658
v -0.019824 0.889694 2.740374
v 0.019824 0.889694 2.740374
v 0.043108 0.889694 2.763658
v 0.043108 0.889694 2.803307
v 0.019824 0.889694 2.826590
v -0.241775 0.911455 3.053504
v -0.270022 0.911455 3.025257
v -0.270022 0.911455 2.541707
v -0.241775 0.911455 2.513460
v 0.241775 0.911455 2.513460
v 0.270022 0.911455 2.541707
v 0.270022 0.911455 3.025257
v 0.241775 0.911455 3.053504
v -0.237550 0.955700 3.044316
v -0.260833 0.955700 3.021032
v -0.260833 0.955701 2.545933
v -0.237550 0.955701 2.522649
v 0.237550 0.955701 2.522649
v 0.260833 0.955701 2.545933
v 0.260833 0.955700 3.021032
v 0.237550 0.955700 3.044316
v 0.458706 0.920748 2.766566
v 0.366182 0.992788 2.766566
v 0.327870 0.920748 2.766566
v 0.366182 0.848709 2.766566
v 0.350474 0.920748 2.469201
v 0.279597 0.992788 2.528674
v 0.250248 0.920748 2.553300
v 0.279597 0.848709 2.528674
v 0.076421 0.920748 2.310976
v 0.060354 0.992788 2.402094
v 0.053701 0.920748 2.439824
v 0.060354 0.848709 2.402094
v -0.235221 0.920748 2.365927
v -0.188960 0.992788 2.446054
v -0.169803 0.920748 2.479234
v -0.188960 0.848709 2.446054
v -0.438631 0.920748 2.608341
v -0.351688 0.992788 2.639986
v -0.315686 0.920748 2.653090
v -0.351688 0.848709 2.639986
v -0.438631 0.920748 2.924791
v -0.351688 0.992788 2.893146
v -0.315686 0.920748 2.880042
v -0.351688 0.848709 2.893146
v -0.235221 0.920748 3.167205
v -0.188960 0.992788 3.087077
v -0.169803 0.920748 3.053898
v -0.188960 0.848709 3.087077
v 0.076421 0.920748 3.222156
v 0.060354 0.992788 3.131038
v 0.053701 0.920748 3.093308
v 0.060354 0.848709 3.131038
v 0.350474 0.920748 3.063931
v 0.279597 0.992788 3.004458
v 0.250248 0.920748 2.979831
v 0.279597 0.848709 3.004458
vn -0.7071 -0.0000 0.7071
vn -0.7071 -0.0000 -0.7071
vn 0.7071 -0.0000 -0.7071
vn 0.7071 -0.0000 0.7071
vn -0.0000 -1.0000 -0.0000
vn -1.0000 -0.0000 -0.0000
vn -0.0000 -0.0000 1.0000
vn -0.0000 1.0000 -0.0000
vn -0.0000 -0.0000 -1.0000
vn 1.0000 -0.0000 -0.0000
vn -0.0000 0.2033 -0.9791
vn -0.0000 0.2033 0.9791
vn -0.1482 -0.9778 -0.1482
vn 0.6935 0.0756 0.7164
vn 0.9791 0.2033 -0.0000
vn -0.9791 0.2033 -0.0000
vn -0.1482 -0.9778 0.1482
vn -0.6935 0.0756 0.7164
vn 0.6914 0.2096 0.6914
vn -0.6914 0.2096 -0.6914
vn 0.6914 0.2096 -0.6914
vn -0.6914 0.2096 0.6914
vn 0.1482 0.9778 -0.1482
vn -0.6935 0.0756 -0.7165
vn 0.7164 0.0756 -0.6935
vn 0.1482 -0.9778 -0.1482
vn 0.1482 0.9778 0.1482
vn -0.7165 0.0756 -0.6935
vn 0.1482 -0.9778 0.1482
vn -0.1482 0.9778 0.1482
vn -0.7164 0.0756 0.6935
vn -0.1482 0.9778 -0.1482
vn 0.7164 0.0756 0.6935
vn 0.6935 0.0756 -0.7165
vn 0.5995 0.7700 -0.2182
vn -0.8406 0.4470 0.3059
vn -0.8406 -0.4470 0.3059
vn 0.5995 -0.7700 -0.2182
vn 0.3190 0.7700 -0.5525
vn -0.4473 0.4470 0.7747
vn -0.4473 -0.4470 0.7747
vn 0.3190 -0.7700 -0.5525
vn -0.1108 0.7700 -0.6283
vn 0.1553 0.4470 0.8809
vn 0.1553 -0.4470 0.8809
vn -0.1108 -0.7700 -0.6283
vn -0.4888 0.7700 -0.4101
vn 0.6852 0.4470 0.5750
vn 0.6852 -0.4470 0.5750
vn -0.4888 -0.7700 -0.4101
vn -0.6380 0.7700 -0.0000
vn 0.8945 0.4470 -0.0000
vn 0.8945 -0.4470 -0.0000
vn -0.6380 -0.7700 -0.0000
vn -0.4888 0.7700 0.4101
vn 0.6852 0.4470 -0.5750
vn 0.6852 -0.4470 -0.5750
vn -0.4888 -0.7700 0.4101
vn -0.1108 0.7700 0.6283
vn 0.1553 0.4470 -0.8809
vn 0.1553 -0.4470 -0.8809
vn -0.1108 -0.7700 0.6283
vn 0.3190 0.7700 0.5525
vn -0.4473 0.4470 -0.7747
vn -0.4473 -0.4470 -0.7747
vn 0.3190 -0.7700 0.5525
vn 0.5995 0.7700 0.2182
vn -0.8406 0.4470 -0.3059
vn -0.8406 -0.4470 -0.3059
vn 0.5995 -0.7700 0.2182
vt 0.641257 0.412126
vt 0.602971 0.412126
vt 0.603662 0.390573
vt 0.641948 0.390573
vt 0.602971 0.332319
vt 0.641257 0.332319
vt 0.641948 0.353872
vt 0.603662 0.353872
vt 0.980453 0.408819
vt 0.942183 0.408819
vt 0.941323 0.385903
vt 0.979594 0.385903
vt 0.988535 0.234357
vt 0.950265 0.234357
vt 0.951124 0.211441
vt 0.989395 0.211441
vt 0.853953 0.317936
vt 0.875506 0.339489
vt 0.875506 0.376190
vt 0.853953 0.397743
vt 0.817252 0.397743
vt 0.795699 0.376190
vt 0.795699 0.339489
vt 0.817252 0.317936
vt 0.988638 0.270980
vt 0.950367 0.270980
vt 0.737188 0.408013
vt 0.700487 0.408013
vt 0.713454 0.379815
vt 0.724220 0.379815
vt 0.941426 0.349280
vt 0.979697 0.349280
vt 0.641948 0.423171
vt 0.641948 0.384900
vt 0.678649 0.384900
vt 0.678649 0.423171
vt 0.903097 0.308745
vt 0.894694 0.302051
vt 0.927355 0.260813
vt 0.935758 0.267507
vt 0.758741 0.349759
vt 0.758741 0.386460
vt 0.730543 0.373492
vt 0.730543 0.362726
vt 0.678934 0.349759
vt 0.700487 0.328206
vt 0.713454 0.356404
vt 0.707132 0.362726
vt 0.678934 0.386460
vt 0.707132 0.373492
vt 0.737188 0.328206
vt 0.724220 0.356404
vt 0.934397 0.253660
vt 0.941323 0.259177
vt 0.941323 0.403332
vt 0.932920 0.410025
vt 0.900259 0.368787
vt 0.908662 0.362094
vt 0.927494 0.414001
vt 0.894833 0.372763
vt 0.678731 0.260174
vt 0.678934 0.266497
vt 0.626307 0.266497
vt 0.626105 0.260174
vt 0.769507 0.390793
vt 0.758741 0.390793
vt 0.758741 0.338188
vt 0.769507 0.338188
vt 0.678934 0.277263
vt 0.626307 0.277263
vt 0.908524 0.312721
vt 0.941185 0.271483
vt 0.678731 0.283585
vt 0.626105 0.283585
vt 0.746965 0.274260
vt 0.741753 0.279472
vt 0.732879 0.279472
vt 0.727667 0.274260
vt 0.727667 0.265386
vt 0.732879 0.260174
vt 0.741753 0.260174
vt 0.746965 0.265386
vt 0.894694 0.360458
vt 0.901621 0.354940
vt 0.941323 0.280360
vt 0.950265 0.280360
vt 0.950265 0.349280
vt 0.941323 0.349280
vt 0.789573 0.382647
vt 0.779540 0.383660
vt 0.779540 0.329219
vt 0.789573 0.328206
vt 0.759687 0.328206
vt 0.768562 0.328206
vt 0.616343 0.276317
vt 0.616343 0.267442
vt 0.894694 0.384147
vt 0.885753 0.384147
vt 0.885753 0.315227
vt 0.894694 0.315227
vt 0.603138 0.218709
vt 0.613102 0.217763
vt 0.675410 0.342337
vt 0.668689 0.342628
vt 0.669870 0.332559
vt 0.675410 0.332319
vt 0.612900 0.211441
vt 0.602971 0.213497
vt 0.661968 0.342337
vt 0.661968 0.332319
vt 0.667508 0.332559
vt 0.613102 0.325996
vt 0.612900 0.332319
vt 0.602971 0.330262
vt 0.603138 0.325051
vt 0.678934 0.216652
vt 0.684145 0.211441
vt 0.894694 0.218594
vt 0.901736 0.211441
vt 0.941323 0.211441
vt 0.950265 0.211441
vt 0.950265 0.280360
vt 0.941323 0.280360
vt 0.684145 0.328206
vt 0.678934 0.322994
vt 0.651958 0.384900
vt 0.641948 0.383715
vt 0.641948 0.332319
vt 0.651958 0.333504
vt 0.876812 0.384147
vt 0.876812 0.315227
vt 0.795699 0.322994
vt 0.790487 0.328206
vt 0.661968 0.383715
vt 0.790487 0.211441
vt 0.795699 0.216652
vt 0.934282 0.312721
vt 0.941323 0.319875
vt 0.769507 0.382647
vt 0.769507 0.328206
vt 0.779540 0.329219
vt 0.970902 0.144881
vt 0.925373 0.199141
vt 0.915018 0.181206
vt 0.951442 0.137798
vt 0.828552 0.264688
vt 0.827931 0.317936
vt 0.811604 0.312424
vt 0.812161 0.264688
vt 0.795699 0.317936
vt 0.796320 0.264688
vt 0.588660 0.081133
vt 0.588660 0.137798
vt 0.569199 0.144881
vt 0.569199 0.074050
vt 0.855618 0.211441
vt 0.859214 0.191046
vt 0.862476 0.314890
vt 0.861623 0.267763
vt 0.878110 0.265897
vt 0.878875 0.308146
vt 0.893841 0.268100
vt 0.625083 0.181206
vt 0.614729 0.199141
vt 0.794276 0.176025
vt 0.810141 0.162713
vt 0.862476 0.211441
vt 0.878875 0.215405
vt 0.894694 0.211778
vt 0.680887 0.191046
vt 0.684484 0.211441
vt 0.770051 0.109466
vt 0.790760 0.109466
vt 0.570751 0.354921
vt 0.569199 0.311513
vt 0.585653 0.308580
vt 0.587044 0.347495
vt 0.601419 0.311513
vt 0.602971 0.354921
vt 0.729961 0.162713
vt 0.745825 0.176025
vt 0.794276 0.042906
vt 0.810141 0.056218
vt 0.569199 0.254848
vt 0.585653 0.257781
vt 0.601419 0.254848
vt 0.749341 0.109466
vt 0.770051 0.109466
vt 0.855618 0.007491
vt 0.859214 0.027886
vt 0.570751 0.211441
vt 0.587044 0.218867
vt 0.602971 0.211441
vt 0.729961 0.056218
vt 0.745825 0.042906
vt 0.925373 0.019790
vt 0.915018 0.037725
vt 0.860770 0.211441
vt 0.845137 0.265897
vt 0.844372 0.215405
vt 0.829405 0.268100
vt 0.828552 0.211778
vt 0.680887 0.027886
vt 0.684484 0.007491
vt 0.970902 0.074050
vt 0.951442 0.081133
vt 0.860770 0.314890
vt 0.844372 0.308146
vt 0.828552 0.315227
vt 0.625083 0.037725
vt 0.614729 0.019790
vt 0.827931 0.211441
vt 0.811604 0.216953
vt 0.795699 0.211441
s 0
usemtl Material.004
f 97/201/51 100/202/51 99/203/51 98/204/51
f 103/205/52 102/206/52 101/207/52 104/208/52
f 111/209/53 110/210/53 109/211/53 112/212/53
f 107/213/54 106/214/54 105/215/54 108/216/54
f 101/217/55 102/218/55 109/219/55 110/220/55 105/221/55 106/222/55 97/223/55 98/224/55
f 98/204/56 99/203/56 104/208/56 101/207/56
f 106/214/57 107/213/57 100/225/57 97/226/57
f 104/227/58 99/228/58 114/229/58 115/230/58
f 102/231/59 103/232/59 112/212/59 109/211/59
f 110/233/60 111/234/60 108/235/60 105/236/60
f 117/237/59 116/238/59 124/239/59 125/240/59
f 112/241/58 103/242/58 116/243/58 117/244/58
f 107/245/58 108/246/58 119/247/58 120/248/58
f 100/249/58 107/245/58 120/248/58 113/250/58
f 111/251/58 112/241/58 117/244/58 118/252/58
f 103/242/58 104/227/58 115/230/58 116/243/58
f 99/228/58 100/249/58 113/250/58 114/229/58
f 108/246/58 111/251/58 118/252/58 119/247/58
f 125/240/61 124/239/61 132/253/61 133/254/61
f 113/255/57 120/256/57 128/257/57 121/258/57
f 120/256/54 119/259/54 127/260/54 128/257/54
f 116/261/52 115/262/52 123/263/52 124/264/52
f 119/265/60 118/266/60 126/267/60 127/268/60
f 115/262/56 114/269/56 122/270/56 123/263/56
f 118/271/53 117/237/53 125/240/53 126/272/53
f 114/269/51 113/273/51 121/274/51 122/270/51
f 134/275/58 133/276/58 132/277/58 131/278/58 130/279/58 129/280/58 136/281/58 135/282/58
f 121/258/62 128/257/62 136/283/62 129/284/62
f 124/285/63 123/286/63 139/287/63 140/288/63
f 134/289/64 126/290/64 142/291/64 150/292/64
f 127/268/65 126/267/65 134/293/65 135/294/65
f 123/263/66 122/270/66 130/295/66 131/296/66
f 122/297/67 121/298/67 137/299/67 138/300/67
f 123/263/68 131/296/68 147/301/68 139/302/68
f 144/303/69 143/304/69 151/305/69 152/306/69
f 140/307/70 139/302/70 147/301/70 148/308/70
f 142/304/71 141/309/71 149/310/71 150/311/71
f 138/312/72 137/313/72 145/314/72 146/315/72
f 129/280/73 130/279/73 146/316/73 145/317/73
f 130/295/74 122/270/74 138/312/74 146/315/74
f 132/253/75 124/239/75 140/318/75 148/319/75
f 126/320/76 125/321/76 141/322/76 142/323/76
f 131/278/77 132/277/77 148/324/77 147/325/77
f 125/326/78 133/327/78 149/328/78 141/329/78
f 128/298/79 127/330/79 143/331/79 144/299/79
f 133/276/80 134/275/80 150/332/80 149/333/80
f 136/334/81 128/326/81 144/329/81 152/310/81
f 135/282/82 136/281/82 152/335/82 151/336/82
f 121/258/83 129/284/83 145/337/83 137/338/83
f 127/290/84 135/339/84 151/340/84 143/341/84
f 153/342/85 157/343/85 158/344/85 154/345/85
f 154/346/86 158/347/86 159/348/86 155/349/86
f 155/349/87 159/348/87 160/350/87 156/351/87
f 156/352/88 160/353/88 157/354/88 153/355/88
f 157/343/89 161/356/89 162/357/89 158/344/89
f 158/358/90 162/359/90 163/360/90 159/361/90
f 159/361/91 163/360/91 164/362/91 160/300/91
f 160/353/92 164/363/92 161/364/92 157/354/92
f 161/356/93 165/365/93 166/366/93 162/357/93
f 162/359/94 166/367/94 167/368/94 163/360/94
f 163/360/95 167/368/95 168/369/95 164/362/95
f 164/363/96 168/370/96 165/371/96 161/364/96
f 165/365/97 169/372/97 170/373/97 166/366/97
f 166/374/98 170/375/98 171/376/98 167/377/98
f 167/377/99 171/376/99 172/378/99 168/379/99
f 168/370/100 172/380/100 169/381/100 165/371/100
f 169/372/101 173/382/101 174/383/101 170/373/101
f 170/375/102 174/384/102 175/385/102 171/376/102
f 171/376/103 175/385/103 176/386/103 172/378/103
f 172/380/104 176/387/104 173/388/104 169/381/104
f 173/382/105 177/389/105 178/390/105 174/383/105
f 174/384/106 178/391/106 179/392/106 175/385/106
f 175/385/107 179/392/107 180/393/107 176/386/107
f 176/387/108 180/394/108 177/395/108 173/388/108
f 177/389/109 181/396/109 182/397/109 178/390/109
f 178/398/110 182/359/110 183/399/110 179/400/110
f 179/400/111 183/399/111 184/401/111 180/402/111
f 180/394/112 184/403/112 181/404/112 177/395/112
f 181/396/113 185/405/113 186/406/113 182/397/113
f 182/359/114 186/407/114 187/408/114 183/399/114
f 183/399/115 187/408/115 188/409/115 184/401/115
f 184/403/116 188/410/116 185/411/116 181/404/116
f 185/405/117 153/342/117 154/345/117 186/406/117
f 186/412/118 154/346/118 155/349/118 187/413/118
f 187/413/119 155/349/119 156/351/119 188/414/119
f 188/410/120 156/352/120 153/355/120 185/411/120
