# Blender 5.0.1
# www.blender.org
mtllib standingVent_clean.mtl
o Cube
v -0.767202 0.554653 1.000000
v -0.767202 0.554653 -1.000000
v 0.767202 0.554653 1.000000
v 0.767202 6.636659 1.000000
v 0.767202 0.554653 -1.000000
v 0.767202 6.636659 -1.000000
v -0.369243 1.452246 1.387759
v -0.369243 5.739067 1.387759
v -0.369243 5.739067 -1.387759
v -0.369243 1.452246 -1.387759
v 0.767202 1.452246 -1.387759
v 0.767202 5.739067 -1.387759
v 0.767202 5.739067 1.387759
v 0.767202 1.452246 1.387759
v -0.666067 -0.028414 -0.868177
v -0.666067 -0.028414 0.868177
v 0.666067 -0.028414 -0.868177
v 0.666067 -0.028414 0.868177
v 0.767202 6.373396 -0.842093
v 0.767202 0.817916 -0.842093
v 0.767202 0.817916 0.842093
v 0.767202 6.373396 0.842093
v 0.767202 5.553509 -1.168621
v 0.767202 1.637803 -1.168621
v 0.767202 5.553509 1.168621
v 0.767202 1.637803 1.168621
v 0.469033 6.158578 -0.707237
v 0.469033 1.032734 -0.707237
v 0.469033 1.032734 0.707237
v 0.469033 6.158578 0.707237
v 0.469033 5.402098 -0.981475
v 0.469033 1.789214 -0.981475
v 0.469033 5.402098 0.981475
v 0.469033 1.789214 0.981475
v 0.394715 6.636659 1.000000
v -0.767202 5.474742 1.000000
v -0.369262 5.739109 1.387741
v -0.767202 5.474742 -1.000000
v 0.394715 6.636659 -1.000000
v -0.369262 5.739109 -1.387741
vn -0.0000 -0.3966 -0.9180
vn 1.0000 -0.0000 -0.0000
vn -0.0000 -0.2205 -0.9754
vn -0.0000 -0.0000 -1.0000
vn -0.0000 -0.0000 1.0000
vn -0.0000 -0.3966 0.9180
vn -0.0000 -1.0000 -0.0000
vn -0.9853 -0.1709 -0.0000
vn 0.9853 -0.1709 -0.0000
vn -0.0000 -0.2205 0.9754
vn 0.5860 -0.2886 -0.7572
vn 0.5845 0.8114 -0.0000
vn 0.5316 -0.0000 -0.8470
vn 0.5860 0.2886 0.7572
vn 0.5316 -0.0000 0.8470
vn 0.5845 -0.8114 -0.0000
vn 0.5860 0.2886 -0.7572
vn 0.5860 -0.2886 0.7572
vn -0.6870 0.6870 0.2367
vn -0.6870 0.6870 -0.2367
vn -0.7071 0.7071 -0.0000
vn -0.6979 -0.0000 0.7162
vn -1.0000 -0.0000 -0.0000
vn -0.0000 1.0000 -0.0000
vn -0.0000 0.3966 0.9180
vn -0.0000 0.3966 -0.9180
vn -0.6979 -0.0000 -0.7162
vt 0.267832 0.370711
vt 0.179072 0.371186
vt 0.199533 0.317807
vt 0.265272 0.317455
vt 0.156496 0.016994
vt 0.179072 0.069249
vt 0.166313 0.080051
vt 0.147302 0.032320
vt 0.179072 0.318811
vt 0.166313 0.308009
vt 0.262852 0.405010
vt 0.185792 0.405423
vt 0.199533 0.068495
vt 0.265272 0.068142
vt 0.270392 0.317455
vt 0.270392 0.068142
vt 0.336131 0.068495
vt 0.336131 0.317807
vt 0.040051 0.016994
vt 0.049245 0.032320
vt 0.356592 0.371186
vt 0.267832 0.370711
vt 0.095035 0.506188
vt 0.017475 0.506188
vt 0.017475 0.405094
vt 0.095035 0.405094
vt 0.379168 0.315745
vt 0.495613 0.315745
vt 0.487938 0.350072
vt 0.386843 0.350072
vt 0.040051 0.371066
vt 0.156496 0.371066
vt 0.148821 0.405094
vt 0.047726 0.405094
vt 0.349872 0.405423
vt 0.272812 0.405010
vt 0.536327 0.016994
vt 0.538483 0.065564
vt 0.519999 0.073954
vt 0.518189 0.029214
vt 0.463288 0.350072
vt 0.463288 0.448129
vt 0.445928 0.440278
vt 0.445928 0.357924
vt 0.538483 0.293294
vt 0.519999 0.284072
vt 0.017475 0.318811
vt 0.030234 0.308009
vt 0.049245 0.355739
vt 0.147302 0.355739
vt 0.017475 0.069249
vt 0.030234 0.080051
vt 0.534155 0.638496
vt 0.534155 0.340089
vt 0.616509 0.340089
vt 0.616509 0.638496
vt 0.518189 0.594457
vt 0.518189 0.384128
vt 0.632476 0.384128
vt 0.632476 0.594457
vt 0.540638 0.340089
vt 0.538483 0.293294
vt 0.556966 0.284072
vt 0.558777 0.327322
vt 0.538483 0.065564
vt 0.556966 0.073954
vt 0.480649 0.357924
vt 0.480649 0.440278
vt 0.536327 0.340089
vt 0.518189 0.327322
vt 0.540638 0.016994
vt 0.558777 0.029214
vt 0.424241 0.372647
vt 0.356592 0.372647
vt 0.379761 0.350072
vt 0.356592 0.489092
vt 0.424241 0.489092
vt 0.379761 0.511667
vt 0.356593 0.016994
vt 0.379168 0.030342
vt 0.356592 0.265665
vt 0.356592 0.016997
vt 0.495613 0.030342
vt 0.445928 0.489092
vt 0.445928 0.372647
vt 0.267832 0.016994
vt 0.289379 0.017110
vt 0.336132 0.068492
vt 0.199532 0.068492
vt 0.246285 0.017110
vt 0.267832 0.016994
vt 0.518188 0.016994
vt 0.518189 0.016997
vt 0.518189 0.265665
s 0
usemtl Material.001
f 5/1/1 2/2/1 10/3/1 11/4/1
f 4/5/2 13/6/2 25/7/2 22/8/2
f 13/6/2 14/9/2 26/10/2 25/7/2
f 2/2/3 5/1/3 17/11/3 15/12/3
f 10/3/4 9/13/4 12/14/4 11/4/4
f 14/15/5 13/16/5 8/17/5 7/18/5
f 6/19/2 4/5/2 22/8/2 19/20/2
f 1/21/6 3/22/6 14/15/6 7/18/6
f 15/23/7 17/24/7 18/25/7 16/26/7
f 1/27/8 2/28/8 15/29/8 16/30/8
f 5/31/9 3/32/9 18/33/9 17/34/9
f 3/22/10 1/21/10 16/35/10 18/36/10
f 22/37/11 25/38/11 33/39/11 30/40/11
f 21/41/12 20/42/12 28/43/12 29/44/12
f 25/38/13 26/45/13 34/46/13 33/39/13
f 5/31/2 11/47/2 24/48/2 20/49/2
f 3/32/2 5/31/2 20/49/2 21/50/2
f 11/47/2 12/51/2 23/52/2 24/48/2
f 14/9/2 3/32/2 21/50/2 26/10/2
f 12/51/2 6/19/2 19/20/2 23/52/2
f 28/53/2 27/54/2 30/55/2 29/56/2
f 27/54/2 28/53/2 32/57/2 31/58/2
f 29/56/2 30/55/2 33/59/2 34/60/2
f 20/61/14 24/62/14 32/63/14 28/64/14
f 24/62/15 23/65/15 31/66/15 32/63/15
f 19/42/16 22/41/16 30/67/16 27/68/16
f 26/45/17 21/69/17 29/70/17 34/46/17
f 23/65/18 19/71/18 27/72/18 31/66/18
f 35/73/19 36/74/19 37/75/19
f 38/76/20 39/77/20 40/78/20
f 35/73/21 39/77/21 38/76/21 36/74/21
f 37/79/22 36/80/22 1/27/22 7/81/22 8/82/22
f 1/27/23 36/80/23 38/83/23 2/28/23
f 6/84/24 39/77/24 35/73/24 4/85/24
f 4/86/25 35/87/25 37/88/25 8/17/25 13/16/25
f 40/89/26 39/90/26 6/91/26 12/14/26 9/13/26
f 2/28/27 38/83/27 40/92/27 9/93/27 10/94/27
