# Blender 5.0.1
# www.blender.org
mtllib standingLamp.mtl
o Cylinder
v 0.000000 4.518481 -0.758622
v 0.000000 5.149432 -0.758622
v 0.593115 4.518481 -0.472993
v 0.593115 5.149432 -0.472993
v 0.739602 4.518481 0.168809
v 0.739602 5.149432 0.168809
v 0.329154 4.518481 0.683495
v 0.329154 5.149432 0.683495
v -0.329154 4.518481 0.683495
v -0.329154 5.149432 0.683495
v -0.739602 4.518481 0.168809
v -0.739602 5.149432 0.168809
v -0.593115 4.518481 -0.472993
v -0.593115 5.149432 -0.472993
v 0.388676 6.260429 -0.309959
v -0.000000 6.260429 -0.497136
v 0.484672 6.260429 0.110623
v 0.215699 6.260429 0.447904
v -0.215699 6.260429 0.447904
v -0.484672 6.260429 0.110623
v -0.388676 6.260429 -0.309959
v -0.004068 4.518481 -0.691872
v 0.530254 4.518481 -0.434556
v 0.662221 4.518481 0.143629
v 0.292458 4.518481 0.607296
v -0.300595 4.518481 0.607296
v -0.670357 4.518481 0.143629
v -0.538391 4.518481 -0.434556
vn 0.4339 -0.0000 -0.9010
vn 0.9749 -0.0000 -0.2225
vn 0.7818 -0.0000 0.6235
vn -0.0000 -0.0000 1.0000
vn -0.7818 -0.0000 0.6235
vn -0.0000 0.2074 0.9782
vn -0.9749 -0.0000 -0.2225
vn -0.4339 -0.0000 -0.9010
vn -0.0000 -1.0000 -0.0000
vn -0.0000 1.0000 -0.0000
vn -0.4244 0.2074 -0.8814
vn 0.9537 0.2074 -0.2177
vn -0.7648 0.2074 0.6099
vn 0.4244 0.2074 -0.8814
vn 0.7648 0.2074 0.6099
vn -0.9537 0.2074 -0.2177
vt 0.395492 0.275949
vt 0.395492 0.186341
vt 0.489499 0.186341
vt 0.489499 0.275949
vt 0.548111 0.178676
vt 0.548111 0.268284
vt 0.125651 0.526851
vt 0.125651 0.437242
vt 0.219657 0.437242
vt 0.219657 0.526851
vt 0.125651 0.268284
vt 0.125651 0.178676
vt 0.184262 0.186341
vt 0.184262 0.275949
vt 0.278269 0.186341
vt 0.278269 0.275949
vt 0.162055 0.020024
vt 0.200464 0.025047
vt 0.336881 0.178676
vt 0.336881 0.268284
vt 0.336881 0.268284
vt 0.336881 0.178676
vt 0.352094 0.275949
vt 0.425591 0.334561
vt 0.415618 0.340525
vt 0.349406 0.287723
vt 0.533813 0.289657
vt 0.560542 0.345160
vt 0.533813 0.400663
vt 0.473754 0.414371
vt 0.425591 0.375962
vt 0.425591 0.314358
vt 0.473754 0.275949
vt 0.373285 0.020024
vt 0.411694 0.025047
vt 0.473297 0.025047
vt 0.511707 0.020024
vt 0.262067 0.025047
vt 0.141852 0.275949
vt 0.203455 0.275949
vt 0.300477 0.020024
vt 0.352094 0.487179
vt 0.260444 0.466261
vt 0.266842 0.459170
vt 0.349406 0.478015
vt 0.219657 0.381564
vt 0.260444 0.296867
vt 0.266842 0.306568
vt 0.230097 0.382869
vt 0.425591 0.428567
vt 0.415618 0.425213
s 0
usemtl Material.001
f 1/1/1 2/2/1 4/3/1 3/4/1
f 3/4/2 4/3/2 6/5/2 5/6/2
f 5/7/3 6/8/3 8/9/3 7/10/3
f 7/11/4 8/12/4 10/13/4 9/14/4
f 9/14/5 10/13/5 12/15/5 11/16/5
f 10/13/6 8/12/6 18/17/6 19/18/6
f 11/16/7 12/15/7 14/19/7 13/20/7
f 13/21/8 14/22/8 2/2/8 1/1/8
f 7/23/9 9/24/9 26/25/9 25/26/9
f 15/27/10 16/28/10 21/29/10 20/30/10 19/31/10 18/32/10 17/33/10
f 2/2/11 14/22/11 21/34/11 16/35/11
f 6/5/12 4/3/12 15/36/12 17/37/12
f 12/15/13 10/13/13 19/18/13 20/38/13
f 4/3/14 2/2/14 16/35/14 15/36/14
f 8/9/15 6/8/15 17/39/15 18/40/15
f 14/19/16 12/15/16 20/38/16 21/41/16
f 13/42/9 1/43/9 22/44/9 28/45/9
f 3/46/9 5/47/9 24/48/9 23/49/9
f 9/24/9 11/50/9 27/51/9 26/25/9
f 1/43/9 3/46/9 23/49/9 22/44/9
f 5/47/9 7/23/9 25/26/9 24/48/9
f 11/50/9 13/42/9 28/45/9 27/51/9
o Cube
v -0.070972 0.005618 0.070972
v -0.070972 4.981101 0.070972
v -0.070972 0.005618 -0.070972
v -0.070972 4.981101 -0.070972
v 0.070972 0.005618 0.070972
v 0.070972 4.981101 0.070972
v 0.070972 0.005618 -0.070972
v 0.070972 4.981101 -0.070972
vn -1.0000 -0.0000 -0.0000
vn -0.0000 -0.0000 -1.0000
vn 1.0000 -0.0000 -0.0000
vn -0.0000 -0.0000 1.0000
vt 0.015568 0.603711
vt 0.015568 0.013477
vt 0.032407 0.013477
vt 0.032407 0.603711
vt 0.049245 0.013477
vt 0.049245 0.603711
vt 0.049245 0.603711
vt 0.049245 0.013477
vt 0.066084 0.013477
vt 0.066084 0.603711
vt 0.082923 0.013477
vt 0.082923 0.603711
s 0
usemtl Material.003
f 29/52/17 30/53/17 32/54/17 31/55/17
f 31/55/18 32/54/18 36/56/18 35/57/18
f 35/58/19 36/59/19 34/60/19 33/61/19
f 33/61/20 34/60/20 30/62/20 29/63/20
o Cylinder.001
v 0.000000 -0.005947 -1.000000
v 0.000000 0.124053 -1.000000
v 0.781831 -0.005947 -0.623490
v 0.781831 0.124053 -0.623490
v 0.974928 -0.005947 0.222521
v 0.974928 0.124053 0.222521
v 0.433884 -0.005947 0.900969
v 0.433884 0.124053 0.900969
v -0.433884 -0.005947 0.900969
v -0.433884 0.124053 0.900969
v -0.974928 -0.005947 0.222521
v -0.974928 0.124053 0.222521
v -0.781831 -0.005947 -0.623490
v -0.781831 0.124053 -0.623490
vn 0.4339 -0.0000 -0.9010
vn 0.9749 -0.0000 -0.2225
vn 0.7818 -0.0000 0.6235
vn -0.0000 -0.0000 1.0000
vn -0.7818 -0.0000 0.6235
vn -0.0000 1.0000 -0.0000
vn -0.9749 -0.0000 -0.2225
vn -0.4339 -0.0000 -0.9010
vt 0.816388 0.108808
vt 0.801760 0.108808
vt 0.801760 0.011168
vt 0.816388 0.011168
vt 0.787133 0.230562
vt 0.772506 0.230562
vt 0.772506 0.169685
vt 0.787133 0.169685
vt 0.772506 0.072045
vt 0.787133 0.072045
vt 0.772506 0.011168
vt 0.787133 0.011168
vt 0.801760 0.169685
vt 0.787133 0.169685
vt 0.787133 0.072045
vt 0.801760 0.072045
vt 0.730141 0.032895
vt 0.772506 0.120865
vt 0.730141 0.208835
vt 0.634950 0.230562
vt 0.558612 0.169685
vt 0.558612 0.072045
vt 0.634950 0.011168
vt 0.787133 0.011168
vt 0.816388 0.169685
vt 0.801760 0.169685
s 0
usemtl Material.002
f 37/64/21 38/65/21 40/66/21 39/67/21
f 39/68/22 40/69/22 42/70/22 41/71/22
f 41/71/23 42/70/23 44/72/23 43/73/23
f 43/73/24 44/72/24 46/74/24 45/75/24
f 45/76/25 46/77/25 48/78/25 47/79/25
f 40/80/26 38/81/26 50/82/26 48/83/26 46/84/26 44/85/26 42/86/26
f 47/79/27 48/78/27 50/87/27 49/66/27
f 49/88/28 50/89/28 38/65/28 37/64/28
