# Blender 5.0.1
# www.blender.org
mtllib metalBuildingRib.mtl
o Cube
v 0.566504 -0.005019 -0.105119
v 0.566504 -0.005019 0.105119
v -0.180736 2.998747 -0.105119
v -0.178061 -0.005019 -0.105119
v -0.180736 2.998747 0.105119
v -0.178061 -0.005019 0.105119
v 0.110594 2.998747 -0.105119
v 0.297219 2.829014 -0.105119
v 0.297219 2.829014 0.105119
v 0.110594 2.998747 0.105119
vn -1.0000 -0.0009 -0.0000
vn -0.0000 -1.0000 -0.0000
vn 0.6728 0.7398 -0.0000
vn -0.0000 -0.0000 -1.0000
vn 0.9955 0.0946 -0.0000
vn -0.0000 1.0000 -0.0000
vn -0.0000 -0.0000 1.0000
vt 0.280667 0.484069
vt 0.280667 0.012108
vt 0.313700 0.012108
vt 0.313700 0.484069
vt 0.346733 0.012108
vt 0.346733 0.129097
vt 0.313700 0.129097
vt 0.313700 0.012108
vt 0.012816 0.012108
vt 0.045849 0.012108
vt 0.045849 0.041431
vt 0.012816 0.041431
vt 0.046270 0.484069
vt 0.091624 0.012108
vt 0.120947 0.038777
vt 0.163258 0.484069
vt 0.012816 0.488728
vt 0.045849 0.488728
vt 0.346733 0.174871
vt 0.313700 0.174871
vt 0.313700 0.129097
vt 0.163258 0.484069
vt 0.205569 0.038777
vt 0.234892 0.012108
vt 0.280667 0.012108
vt 0.280246 0.484069
s 0
usemtl Material
f 6/1/1 5/2/1 3/3/1 4/4/1
f 4/5/2 1/6/2 2/7/2 6/8/2
f 7/9/3 10/10/3 9/11/3 8/12/3
f 4/13/4 3/10/4 7/14/4 8/15/4 1/16/4
f 1/17/5 8/12/5 9/11/5 2/18/5
f 7/6/6 3/19/6 5/20/6 10/21/6
f 2/22/7 9/23/7 10/24/7 5/25/7 6/26/7
