# Blender 5.0.1
# www.blender.org
mtllib cameraCCTV.mtl
o Cube
v 0.372746 2.437601 -1.744110
v 0.372746 0.690781 -2.300962
v 0.372746 1.830157 0.161412
v 0.372746 0.083338 -0.395441
v -0.372746 2.437601 -1.744110
v -0.372746 0.690781 -2.300962
v -0.372746 1.830157 0.161412
v -0.372746 0.083338 -0.395441
v 0.372746 2.000896 -1.883323
v 0.372746 1.564191 -2.022536
v 0.372746 1.127486 -2.161749
v -0.372746 0.520043 -0.256227
v -0.372746 0.956747 -0.117014
v -0.372746 1.393452 0.022199
v 0.372746 1.393452 0.022199
v 0.372746 0.956747 -0.117014
v 0.372746 0.520043 -0.256227
v -0.372746 2.000896 -1.883323
v -0.372746 1.564191 -2.022536
v -0.372746 1.127486 -2.161749
v 0.485062 2.000896 -1.883323
v 0.485062 1.564191 -2.022536
v -0.485062 0.956747 -0.117014
v -0.485062 1.393452 0.022199
v 0.485062 1.393452 0.022199
v 0.485062 0.956747 -0.117014
v -0.485062 2.000896 -1.883323
v -0.485062 1.564191 -2.022536
v 0.372746 2.084463 -2.145469
v 0.372746 1.647758 -2.284683
v 0.372746 1.211053 -2.423896
v -0.372746 2.084463 -2.145469
v -0.372746 1.647758 -2.284683
v -0.372746 1.211053 -2.423896
v -0.326309 1.339048 0.004856
v -0.326309 1.721348 0.126726
v 0.326309 0.574447 -0.238884
v 0.326309 0.192147 -0.360754
v 0.326309 1.721348 0.126726
v -0.326309 0.192147 -0.360754
v -0.326309 0.574447 -0.238884
v -0.326309 0.956747 -0.117014
v 0.326309 1.339048 0.004856
v 0.326309 0.956747 -0.117014
v -0.326309 1.262993 0.243436
v -0.326309 1.645293 0.365306
v 0.326309 0.498392 -0.000304
v 0.326309 0.116092 -0.122174
v 0.326309 1.645293 0.365306
v -0.326309 0.116092 -0.122174
v -0.326309 0.498392 -0.000304
v -0.326309 0.880693 0.121566
v 0.326309 1.262993 0.243436
v 0.326309 0.880693 0.121566
vn -0.0000 0.9528 0.3037
vn -0.0000 -0.3037 0.9528
vn -1.0000 -0.0000 -0.0000
vn -0.0000 -0.9528 -0.3037
vn 1.0000 -0.0000 -0.0000
vn -0.0000 0.3037 -0.9528
vt 0.852948 0.364461
vt 0.783771 0.364461
vt 0.783771 0.178874
vt 0.852948 0.178874
vt 0.794193 0.008744
vt 0.863370 0.008744
vt 0.859061 0.019341
vt 0.798502 0.019341
vt 0.741238 0.405450
vt 0.698706 0.405450
vt 0.698706 0.219863
vt 0.741238 0.219863
vt 0.922125 0.364461
vt 0.922125 0.178874
vt 0.698705 0.405450
vt 0.656173 0.405450
vt 0.656173 0.219862
vt 0.916325 0.162986
vt 0.873792 0.162986
vt 0.873792 0.093809
vt 0.916325 0.093809
vt 0.826304 0.433638
vt 0.783771 0.433638
vt 0.826304 0.364462
vt 0.741238 0.034275
vt 0.698706 0.034275
vt 0.698706 0.008744
vt 0.741238 0.008744
vt 0.571108 0.194331
vt 0.613640 0.194331
vt 0.613640 0.219862
vt 0.571108 0.219862
vt 0.656173 0.194331
vt 0.613640 0.008744
vt 0.656173 0.008744
vt 0.571108 0.008743
vt 0.908730 0.364461
vt 0.908730 0.406994
vt 0.898308 0.406994
vt 0.898308 0.364461
vt 0.783771 0.219863
vt 0.783771 0.034275
vt 0.919152 0.364461
vt 0.919152 0.406994
vt 0.863370 0.093809
vt 0.863370 0.136341
vt 0.859061 0.131043
vt 0.859061 0.093809
vt 0.794193 0.093809
vt 0.794193 0.051276
vt 0.798502 0.056575
vt 0.798502 0.093809
vt 0.863370 0.178874
vt 0.859061 0.168277
vt 0.631667 0.405450
vt 0.589134 0.405450
vt 0.589134 0.219862
vt 0.631667 0.219862
vt 0.783771 0.405450
vt 0.945361 0.364461
vt 0.945361 0.178874
vt 0.955783 0.178874
vt 0.955783 0.364461
vt 0.966205 0.178874
vt 0.966205 0.364461
vt 0.976628 0.178874
vt 0.976628 0.364461
vt 0.966206 0.364461
vt 0.966206 0.178874
vt 0.783771 0.093809
vt 0.783771 0.051276
vt 0.987050 0.178874
vt 0.987050 0.364461
vt 0.863370 0.051276
vt 0.873792 0.051276
vt 0.942969 0.051276
vt 0.942969 0.093809
vt 0.873792 0.008744
vt 0.942969 0.008744
vt 0.941857 0.093809
vt 0.941857 0.162986
vt 0.851835 0.364462
vt 0.851835 0.433638
vt 0.528575 0.194331
vt 0.528575 0.219862
vt 0.656173 0.034275
vt 0.875072 0.364461
vt 0.875072 0.425020
vt 0.851835 0.425020
vt 0.851835 0.364461
vt 0.654903 0.257096
vt 0.654903 0.294330
vt 0.631667 0.294330
vt 0.631667 0.257096
vt 0.922125 0.290576
vt 0.922125 0.253342
vt 0.945361 0.253342
vt 0.945361 0.290576
vt 0.898308 0.425020
vt 0.794193 0.136341
vt 0.798502 0.131043
vt 0.859061 0.056575
vt 0.794193 0.178874
vt 0.798502 0.168277
vt 0.528575 0.257096
vt 0.589134 0.257096
vt 0.528575 0.368798
vt 0.528575 0.331564
vt 0.589134 0.331564
vt 0.589134 0.368798
vt 0.528575 0.294330
vt 0.589134 0.294330
vt 0.654903 0.219862
vt 0.922125 0.216108
vt 0.922125 0.178874
vt 0.945361 0.178874
vt 0.945361 0.216108
vt 0.654903 0.331564
vt 0.654903 0.368798
vt 0.631667 0.368798
vt 0.631667 0.331564
vt 0.922125 0.327810
vt 0.945361 0.327810
s 0
usemtl Material.001
f 1/1/1 5/2/1 7/3/1 3/4/1
f 3/5/2 7/6/2 36/7/2 39/8/2
f 14/9/3 7/10/3 5/11/3 18/12/3
f 6/13/4 2/1/4 4/4/4 8/14/4
f 9/15/5 1/16/5 3/17/5 15/11/5
f 18/18/6 5/19/6 1/20/6 9/21/6
f 6/22/6 20/23/6 11/2/6 2/24/6
f 20/25/3 19/26/3 33/27/3 34/28/3
f 10/29/5 11/30/5 31/31/5 30/32/5
f 2/33/5 11/30/5 17/34/5 4/35/5
f 11/30/5 10/29/5 16/36/5 17/34/5
f 18/37/6 19/38/6 28/39/6 27/40/6
f 8/41/3 12/12/3 20/25/3 6/42/3
f 12/12/3 13/11/3 19/26/3 20/25/3
f 10/38/6 9/37/6 21/43/6 22/44/6
f 13/45/2 12/46/2 41/47/2 42/48/2
f 16/49/2 15/50/2 43/51/2 44/52/2
f 12/46/2 8/53/2 40/54/2 41/47/2
f 22/55/5 21/56/5 25/57/5 26/58/5
f 23/59/3 24/9/3 27/12/3 28/41/3
f 19/60/4 13/61/4 23/62/4 28/63/4
f 9/63/1 15/62/1 25/64/1 21/65/1
f 14/66/1 18/67/1 27/68/1 24/69/1
f 15/50/2 16/49/2 26/70/2 25/71/2
f 16/72/4 10/73/4 22/67/4 26/66/4
f 13/45/2 14/74/2 24/75/2 23/20/2
f 34/20/6 33/75/6 30/76/6 31/77/6
f 33/75/6 32/78/6 29/79/6 30/76/6
f 18/18/1 9/21/1 29/80/1 32/81/1
f 11/22/4 20/24/4 34/82/4 31/83/4
f 9/84/5 10/29/5 30/32/5 29/85/5
f 19/26/3 18/86/3 32/35/3 33/27/3
f 40/87/4 38/88/4 48/89/4 50/90/4
f 35/91/3 42/92/3 52/93/3 45/94/3
f 37/95/5 44/96/5 54/97/5 47/98/5
f 39/40/1 36/99/1 46/88/1 49/87/1
f 17/100/2 16/49/2 44/52/2 37/101/2
f 7/6/2 14/74/2 35/102/2 36/7/2
f 14/74/2 13/45/2 42/48/2 35/102/2
f 4/103/2 17/100/2 37/101/2 38/104/2
f 15/50/2 3/5/2 39/8/2 43/51/2
f 8/53/2 4/103/2 38/104/2 40/54/2
f 53/105/2 49/85/2 46/57/2 45/106/2
f 48/107/2 47/108/2 51/109/2 50/110/2
f 47/108/2 54/111/2 52/112/2 51/109/2
f 54/111/2 53/105/2 45/106/2 52/112/2
f 36/113/3 35/91/3 45/94/3 46/58/3
f 43/114/5 39/115/5 49/116/5 53/117/5
f 41/118/3 40/119/3 50/120/3 51/121/3
f 38/122/5 37/95/5 47/98/5 48/123/5
f 44/96/5 43/114/5 53/117/5 54/97/5
f 42/92/3 41/118/3 51/121/3 52/93/3
o Cylinder
v 0.000000 1.563050 0.302004
v 0.000000 1.468369 0.599015
v 0.181515 1.500105 0.281938
v 0.181515 1.405424 0.578949
v 0.278097 1.340722 0.231130
v 0.278097 1.246041 0.528141
v 0.244555 1.159479 0.173353
v 0.244555 1.064797 0.470365
v 0.096582 1.041181 0.135642
v 0.096582 0.946499 0.432653
v -0.096582 1.041181 0.135642
v -0.096582 0.946499 0.432653
v -0.244555 1.159479 0.173353
v -0.244555 1.064797 0.470365
v -0.278097 1.340722 0.231130
v -0.278097 1.246041 0.528141
v -0.181515 1.500105 0.281938
v -0.181515 1.405424 0.578949
v 0.154184 1.374391 0.569057
v 0.000000 1.427858 0.586101
v 0.236224 1.239006 0.525899
v 0.207732 1.085053 0.476821
v 0.082040 0.984567 0.444788
v -0.082040 0.984567 0.444788
v -0.207732 1.085053 0.476821
v -0.236224 1.239006 0.525899
v -0.154184 1.374391 0.569057
v 0.154184 1.423527 0.414919
v 0.000000 1.476994 0.431964
v 0.236224 1.288142 0.371761
v 0.207732 1.134189 0.322684
v 0.082040 1.033703 0.290651
v -0.082040 1.033703 0.290651
v -0.207732 1.134189 0.322684
v -0.236224 1.288142 0.371761
v -0.154184 1.423527 0.414919
vn 0.3420 0.8953 0.2854
vn 0.8660 0.4764 0.1519
vn 0.9848 -0.1654 -0.0527
vn 0.6428 -0.7299 -0.2327
vn -0.0000 -0.9528 -0.3037
vn -0.6428 -0.7299 -0.2327
vn -0.9848 -0.1654 -0.0527
vn -0.0000 -0.3037 0.9528
vn -0.8660 0.4764 0.1519
vn -0.3420 0.8953 0.2854
vn -0.9848 0.1654 0.0527
vn 0.9848 0.1654 0.0527
vn -0.6428 0.7299 0.2327
vn -0.3420 -0.8953 -0.2854
vn 0.8660 -0.4764 -0.1519
vn -0.0000 0.9528 0.3037
vn -0.8660 -0.4764 -0.1519
vn 0.3420 -0.8953 -0.2854
vn 0.6428 0.7299 0.2327
vt 0.285872 0.250575
vt 0.211434 0.250575
vt 0.211434 0.207231
vt 0.285872 0.207231
vt 0.080640 0.227229
vt 0.006202 0.227229
vt 0.006202 0.183886
vt 0.080640 0.183886
vt 0.006202 0.140542
vt 0.080640 0.140542
vt 0.211434 0.237337
vt 0.136995 0.237337
vt 0.136995 0.202004
vt 0.211434 0.202004
vt 0.136995 0.155879
vt 0.211434 0.155879
vt 0.136995 0.120545
vt 0.211434 0.120545
vt 0.285872 0.207231
vt 0.211434 0.207231
vt 0.211434 0.163888
vt 0.285872 0.163888
vt 0.121220 0.117480
vt 0.081274 0.140542
vt 0.079511 0.130544
vt 0.113442 0.110954
vt 0.211434 0.120545
vt 0.285872 0.120545
vt 0.285872 0.293918
vt 0.211434 0.293918
vt 0.119271 0.170556
vt 0.119271 0.209736
vt 0.080640 0.209736
vt 0.080640 0.170556
vt 0.035850 0.132533
vt 0.040927 0.123740
vt 0.006202 0.097199
vt 0.015742 0.093727
vt 0.006202 0.051074
vt 0.015742 0.054547
vt 0.035850 0.015740
vt 0.040927 0.024533
vt 0.081274 0.007731
vt 0.079511 0.017730
vt 0.136995 0.074137
vt 0.126842 0.074137
vt 0.121220 0.030793
vt 0.113442 0.037320
vt 0.248095 0.044548
vt 0.248095 0.083728
vt 0.222911 0.113741
vt 0.184326 0.120545
vt 0.150396 0.100955
vt 0.136995 0.064138
vt 0.150396 0.027321
vt 0.184326 0.007731
vt 0.222911 0.014534
vt 0.248095 0.076924
vt 0.248095 0.037744
vt 0.286726 0.037744
vt 0.286726 0.076924
vt 0.119271 0.140542
vt 0.006202 0.300863
vt 0.006202 0.264046
vt 0.044832 0.264046
vt 0.044832 0.300863
vt 0.248095 0.106938
vt 0.286726 0.106938
vt 0.136995 0.276517
vt 0.136995 0.237337
vt 0.175626 0.237337
vt 0.175626 0.276517
vt 0.119271 0.239749
vt 0.080640 0.239749
vt 0.006202 0.227229
vt 0.044832 0.227229
vt 0.248095 0.007731
vt 0.286726 0.007731
s 0
usemtl Material.002
f 55/124/7 56/125/7 58/126/7 57/127/7
f 57/128/8 58/129/8 60/130/8 59/131/8
f 59/131/9 60/130/9 62/132/9 61/133/9
f 61/134/10 62/135/10 64/136/10 63/137/10
f 63/137/11 64/136/11 66/138/11 65/139/11
f 65/139/12 66/138/12 68/140/12 67/141/12
f 67/142/13 68/143/13 70/144/13 69/145/13
f 56/146/14 72/147/14 81/148/14 74/149/14
f 69/145/15 70/144/15 72/150/15 71/151/15
f 71/152/16 72/153/16 56/125/16 55/124/16
f 76/154/17 75/155/17 84/156/17 85/157/17
f 72/147/14 70/158/14 80/159/14 81/148/14
f 70/158/14 68/160/14 79/161/14 80/159/14
f 68/160/14 66/162/14 78/163/14 79/161/14
f 66/162/14 64/164/14 77/165/14 78/163/14
f 64/164/14 62/166/14 76/167/14 77/165/14
f 58/168/14 56/146/14 74/149/14 73/169/14
f 62/166/14 60/170/14 75/171/14 76/167/14
f 60/170/14 58/168/14 73/169/14 75/171/14
f 82/172/14 83/173/14 90/174/14 89/175/14 88/176/14 87/177/14 86/178/14 85/179/14 84/180/14
f 80/181/18 79/182/18 88/183/18 89/184/18
f 77/185/19 76/154/19 85/157/19 86/133/19
f 73/186/20 74/187/20 83/188/20 82/189/20
f 81/190/21 80/181/21 89/184/21 90/191/21
f 78/192/22 77/193/22 86/194/22 87/195/22
f 75/155/23 73/196/23 82/197/23 84/156/23
f 74/187/24 81/198/24 90/199/24 83/188/24
f 79/182/25 78/200/25 87/201/25 88/183/25
o Cylinder.001
v 0.000000 0.891569 0.104955
v 0.000000 0.832760 0.289436
v 0.112744 0.852472 0.092492
v 0.112744 0.793663 0.276973
v 0.172733 0.753476 0.060934
v 0.172733 0.694667 0.245415
v 0.151899 0.640901 0.025047
v 0.151899 0.582092 0.209528
v 0.059990 0.567423 0.001624
v 0.059990 0.508614 0.186105
v -0.059990 0.567423 0.001624
v -0.059990 0.508614 0.186105
v -0.151899 0.640901 0.025047
v -0.151899 0.582092 0.209528
v -0.172733 0.753476 0.060934
v -0.172733 0.694667 0.245415
v -0.112744 0.852472 0.092492
v -0.112744 0.793663 0.276973
v 0.080228 0.756743 0.265203
v 0.000000 0.784564 0.274072
v 0.122916 0.686297 0.242747
v 0.108090 0.606190 0.217210
v 0.042688 0.553903 0.200542
v -0.042688 0.553903 0.200542
v -0.108090 0.606190 0.217210
v -0.122916 0.686297 0.242747
v -0.080228 0.756743 0.265203
v 0.080228 0.787262 0.169465
v 0.000000 0.815084 0.178333
v 0.122916 0.716817 0.147008
v 0.108090 0.636709 0.121471
v 0.042688 0.584423 0.104803
v -0.042688 0.584423 0.104803
v -0.108090 0.636709 0.121471
v -0.122916 0.716817 0.147008
v -0.080228 0.787262 0.169465
vn 0.3420 0.8953 0.2854
vn 0.8660 0.4764 0.1519
vn 0.9848 -0.1654 -0.0527
vn 0.6428 -0.7299 -0.2327
vn -0.0000 -0.9528 -0.3037
vn -0.6428 -0.7299 -0.2327
vn -0.9848 -0.1654 -0.0527
vn -0.0000 -0.3037 0.9528
vn -0.8660 0.4764 0.1519
vn -0.3420 0.8953 0.2854
vn -0.9848 0.1654 0.0527
vn 0.9848 0.1654 0.0527
vn -0.6428 0.7299 0.2327
vn -0.3420 -0.8953 -0.2854
vn 0.8660 -0.4764 -0.1519
vn -0.0000 0.9528 0.3037
vn -0.8660 -0.4764 -0.1519
vn 0.3420 -0.8953 -0.2854
vn 0.6428 0.7299 0.2327
vt 0.521908 0.188547
vt 0.461380 0.188547
vt 0.461380 0.153303
vt 0.521908 0.153303
vt 0.355027 0.184449
vt 0.294498 0.184449
vt 0.294498 0.149205
vt 0.355027 0.149205
vt 0.294498 0.113961
vt 0.355027 0.113961
vt 0.461380 0.177783
vt 0.400851 0.177783
vt 0.400851 0.149052
vt 0.461380 0.149052
vt 0.400851 0.111547
vt 0.461380 0.111547
vt 0.400851 0.082815
vt 0.461380 0.082815
vt 0.521908 0.153303
vt 0.461380 0.153303
vt 0.461380 0.118059
vt 0.521908 0.118059
vt 0.307326 0.095208
vt 0.294498 0.059965
vt 0.310311 0.059965
vt 0.319439 0.085044
vt 0.461380 0.082815
vt 0.521908 0.082815
vt 0.521908 0.223791
vt 0.461380 0.223791
vt 0.386439 0.134406
vt 0.386439 0.161095
vt 0.355027 0.161095
vt 0.355027 0.134406
vt 0.307326 0.024721
vt 0.319439 0.034885
vt 0.339807 0.005968
vt 0.342553 0.021541
vt 0.376743 0.012480
vt 0.368836 0.026175
vt 0.400851 0.041212
vt 0.385991 0.046620
vt 0.400851 0.078717
vt 0.385991 0.073309
vt 0.339807 0.113961
vt 0.342553 0.098388
vt 0.376743 0.107449
vt 0.368836 0.093754
vt 0.459376 0.078181
vt 0.433092 0.082815
vt 0.409979 0.069471
vt 0.400851 0.044392
vt 0.409979 0.019312
vt 0.433092 0.005968
vt 0.459376 0.010602
vt 0.476531 0.031047
vt 0.476531 0.057736
vt 0.476531 0.053102
vt 0.476531 0.026413
vt 0.507943 0.026413
vt 0.507943 0.053102
vt 0.386439 0.113961
vt 0.355027 0.113961
vt 0.400851 0.227942
vt 0.400851 0.202863
vt 0.432263 0.202863
vt 0.432263 0.227942
vt 0.476531 0.073546
vt 0.507943 0.073546
vt 0.432263 0.177783
vt 0.458952 0.177783
vt 0.458952 0.209196
vt 0.432263 0.209196
vt 0.386439 0.181540
vt 0.355027 0.181540
vt 0.476531 0.005968
vt 0.507943 0.005968
s 0
usemtl Material.003
f 91/202/26 92/203/26 94/204/26 93/205/26
f 93/206/27 94/207/27 96/208/27 95/209/27
f 95/209/28 96/208/28 98/210/28 97/211/28
f 97/212/29 98/213/29 100/214/29 99/215/29
f 99/215/30 100/214/30 102/216/30 101/217/30
f 101/217/31 102/216/31 104/218/31 103/219/31
f 103/220/32 104/221/32 106/222/32 105/223/32
f 92/224/33 108/225/33 117/226/33 110/227/33
f 105/223/34 106/222/34 108/228/34 107/229/34
f 107/230/35 108/231/35 92/203/35 91/202/35
f 112/232/36 111/233/36 120/234/36 121/235/36
f 108/225/33 106/236/33 116/237/33 117/226/33
f 106/236/33 104/238/33 115/239/33 116/237/33
f 104/238/33 102/240/33 114/241/33 115/239/33
f 102/240/33 100/242/33 113/243/33 114/241/33
f 100/242/33 98/244/33 112/245/33 113/243/33
f 94/246/33 92/224/33 110/227/33 109/247/33
f 98/244/33 96/248/33 111/249/33 112/245/33
f 96/248/33 94/246/33 109/247/33 111/249/33
f 118/250/33 119/251/33 126/252/33 125/253/33 124/254/33 123/255/33 122/256/33 121/257/33 120/258/33
f 116/259/37 115/260/37 124/261/37 125/262/37
f 113/263/38 112/232/38 121/235/38 122/264/38
f 109/265/39 110/266/39 119/267/39 118/268/39
f 117/269/40 116/259/40 125/262/40 126/270/40
f 114/271/41 113/272/41 122/273/41 123/274/41
f 111/233/42 109/275/42 118/276/42 120/234/42
f 110/266/43 117/213/43 126/271/43 119/267/43
f 115/260/44 114/277/44 123/278/44 124/261/44
o Cube.001
v -0.134341 1.331074 -2.012365
v -0.134341 1.506201 -2.216131
v -0.498457 0.238156 -3.305952
v -0.134341 0.128051 -3.400582
v 0.134341 1.331074 -2.012365
v 0.134341 1.506201 -2.216131
v -0.498457 0.419329 -3.319646
v 0.134341 0.128051 -3.400582
v -0.134341 0.160463 -3.018446
v -0.498457 0.433023 -3.138473
v 0.134341 0.160463 -3.018446
v -0.498457 0.251851 -3.124779
v -0.134341 1.899907 -5.042350
v -0.134341 1.692368 -5.220719
v 0.134341 1.692368 -5.220719
v 0.134341 1.899907 -5.042350
v -0.134341 0.036664 -3.294250
v -0.134341 0.050358 -3.113077
v 0.134341 0.050358 -3.113077
v 0.134341 0.036664 -3.294250
v -0.134341 0.433023 -3.138473
v -0.134341 0.419329 -3.319646
v -0.134341 0.238156 -3.305952
v -0.134341 0.251851 -3.124779
v 0.134341 0.419329 -3.319646
v 0.134341 0.433023 -3.138473
v 0.134341 0.251851 -3.124779
v 0.134341 0.238156 -3.305952
v 0.498457 0.238156 -3.305952
v 0.498457 0.419329 -3.319646
v 0.498457 0.433023 -3.138473
v 0.498457 0.251851 -3.124779
vn -0.0000 0.9972 -0.0754
vn -0.0000 0.7584 0.6518
vn -0.0000 -0.6518 0.7584
vn -0.0000 0.0754 0.9972
vn -0.0000 -0.0754 -0.9972
vn 1.0000 -0.0000 -0.0000
vn -1.0000 -0.0000 -0.0000
vn -0.0000 0.6518 -0.7584
vn -0.0000 -0.9972 0.0754
vn -0.0000 -0.7584 -0.6518
vt 0.895106 0.684621
vt 0.895106 0.661911
vt 0.940618 0.661911
vt 0.940618 0.684621
vt 0.861523 0.661911
vt 0.861523 0.684621
vt 0.816011 0.684621
vt 0.816011 0.661911
vt 0.861523 0.833436
vt 0.861523 0.809690
vt 0.895106 0.809690
vt 0.895106 0.833436
vt 0.712416 0.814332
vt 0.678833 0.814332
vt 0.678833 0.621400
vt 0.712416 0.621400
vt 0.648176 0.929607
vt 0.632118 0.929607
vt 0.632118 0.884095
vt 0.648176 0.884095
vt 0.600001 0.884096
vt 0.616059 0.884096
vt 0.616059 0.929607
vt 0.600001 0.929607
vt 0.664234 0.884095
vt 0.686944 0.884095
vt 0.686944 0.906805
vt 0.664234 0.906805
vt 0.686944 0.906805
vt 0.686944 0.884096
vt 0.709654 0.884096
vt 0.709654 0.906805
vt 0.861523 0.436960
vt 0.895106 0.436960
vt 0.895106 0.461146
vt 0.861523 0.461146
vt 0.632118 0.884096
vt 0.974201 0.736942
vt 0.940618 0.736942
vt 0.940618 0.436960
vt 0.974201 0.436960
vt 0.583943 0.929607
vt 0.583943 0.884095
vt 0.600001 0.884095
vt 0.567885 0.929607
vt 0.567885 0.884095
vt 0.648176 0.884096
vt 0.664234 0.884096
vt 0.664234 0.929607
vt 0.974201 0.770526
vt 0.940618 0.770526
vt 0.940618 0.754467
vt 0.974201 0.754467
vt 0.712416 0.832479
vt 0.678833 0.832479
vt 0.727233 0.884096
vt 0.727233 0.866570
vt 0.743292 0.850512
vt 0.761438 0.850512
vt 0.761438 0.868037
vt 0.745380 0.884096
vt 0.777497 0.884096
vt 0.779585 0.850512
vt 0.795644 0.866570
vt 0.795644 0.884096
vt 0.727233 0.834454
vt 0.727233 0.550530
vt 0.761438 0.550530
vt 0.534301 0.884096
vt 0.534301 0.850512
vt 0.711175 0.850512
vt 0.811702 0.850512
vt 0.988576 0.850512
vt 0.988576 0.884096
vt 0.795644 0.834454
vt 0.795644 0.550530
s 0
usemtl Material.004
f 147/279/45 148/280/45 133/281/45 136/282/45
f 151/283/45 152/284/45 157/285/45 156/286/45
f 131/287/46 132/288/46 128/289/46 127/290/46
f 135/291/47 137/292/47 131/293/47 127/294/47
f 150/295/48 147/296/48 136/297/48 138/298/48
f 148/299/49 149/300/49 129/301/49 133/302/49
f 156/303/50 157/304/50 158/305/50 155/306/50
f 136/307/51 133/308/51 129/309/51 138/310/51
f 141/311/52 140/312/52 139/313/52 142/314/52
f 149/300/53 150/315/53 138/296/53 129/301/53
f 134/316/54 130/317/54 140/318/54 141/319/54
f 153/302/53 154/320/53 155/321/53 158/322/53
f 154/320/49 151/323/49 156/324/49 155/321/49
f 152/325/48 153/326/48 158/327/48 157/295/48
f 145/328/53 144/329/53 143/330/53 146/331/53
f 147/279/45 152/284/45 151/283/45 148/280/45
f 143/330/54 130/317/54 134/316/54 146/331/54
f 144/332/47 145/333/47 137/292/47 135/291/47
f 135/334/51 150/335/51 149/336/51 130/337/51 143/338/51 144/339/51
f 145/340/50 146/338/50 134/337/50 154/341/50 153/342/50 137/343/50
f 130/337/51 149/336/51 148/344/51 139/345/51 140/346/51
f 152/284/52 147/279/52 128/289/52 132/288/52
f 148/280/46 151/283/46 142/314/46 139/313/46
f 127/347/51 128/348/51 147/349/51 150/335/51 135/334/51
f 137/343/50 153/342/50 152/350/50 132/351/50 131/352/50
f 151/353/50 154/341/50 134/337/50 141/346/50 142/354/50
o Cube.002
v -0.507086 -0.182234 -4.542346
v -0.507086 1.817766 -4.542346
v 0.507086 -0.182234 -4.542346
v 0.507086 1.817766 -4.542346
v -0.507086 0.484433 -4.092522
v -0.507086 1.151099 -4.092522
v -0.507086 1.151099 -4.542346
v -0.507086 0.484433 -4.542346
v 0.507086 1.151099 -4.542346
v 0.507086 0.484433 -4.542346
v 0.507086 1.151099 -4.092522
v 0.507086 0.484433 -4.092522
v -0.507086 0.484433 -4.542346
v 0.507086 0.484433 -4.542346
v -0.507086 1.151099 -4.542346
v 0.507086 1.151099 -4.542346
v -0.250506 -0.182234 -3.812397
v -0.507086 -0.182234 -4.068976
v -0.507086 1.817766 -4.068976
v -0.250506 1.817766 -3.812397
v 0.507086 -0.182234 -4.068976
v 0.250506 -0.182234 -3.812397
v 0.250506 1.817766 -3.812397
v 0.507086 1.817766 -4.068976
v 0.250506 0.484433 -3.812397
v 0.507086 0.484433 -4.068976
v 0.507086 0.484433 -4.068976
v -0.507086 0.484433 -4.068976
v -0.250506 0.484433 -3.812397
v -0.507086 0.484433 -4.068976
v -0.250506 1.151099 -3.812397
v -0.507086 1.151099 -4.068976
v -0.507086 1.151099 -4.068976
v 0.507086 1.151099 -4.068976
v 0.250506 1.151099 -3.812397
v 0.507086 1.151099 -4.068976
vn -0.0000 -0.0000 -1.0000
vn -0.0000 -0.0000 1.0000
vn 1.0000 -0.0000 -0.0000
vn -0.0000 1.0000 -0.0000
vn -1.0000 -0.0000 -0.0000
vn -0.7071 -0.0000 0.7071
vn 0.7071 -0.0000 0.7071
vn -0.0000 -1.0000 -0.0000
vt 0.111210 0.833660
vt 0.012500 0.833660
vt 0.012500 0.683496
vt 0.111210 0.683496
vt 0.111210 0.983823
vt 0.012500 0.983823
vt 0.327370 0.928173
vt 0.327370 0.829463
vt 0.393973 0.829463
vt 0.393973 0.928173
vt 0.397460 0.932370
vt 0.209920 0.983823
vt 0.111210 0.833660
vt 0.209920 0.833660
vt 0.397460 0.632043
vt 0.397460 0.533332
vt 0.464063 0.533332
vt 0.464063 0.632043
vt 0.111210 0.683496
vt 0.209920 0.683496
vt 0.327370 0.571323
vt 0.228660 0.571323
vt 0.228660 0.533332
vt 0.327370 0.533332
vt 0.228660 0.795669
vt 0.327370 0.795669
vt 0.327370 0.833660
vt 0.228660 0.833660
vt 0.327370 0.721487
vt 0.228660 0.721487
vt 0.228660 0.683496
vt 0.327370 0.683496
vt 0.228660 0.645505
vt 0.327370 0.645505
vt 0.327370 0.683496
vt 0.209920 0.932370
vt 0.280010 0.833660
vt 0.280010 0.932370
vt 0.120580 0.533332
vt 0.120580 0.683496
vt 0.050490 0.683496
vt 0.012500 0.645505
vt 0.012500 0.571323
vt 0.050490 0.533332
vt 0.327370 0.632043
vt 0.327370 0.533332
vt 0.228660 0.533332
vt 0.228660 0.683496
vt 0.158570 0.683496
vt 0.120580 0.645505
vt 0.120580 0.571323
vt 0.158570 0.533332
vt 0.327370 0.730753
vt 0.397460 0.730753
vt 0.397460 0.829463
vt 0.397460 0.670033
vt 0.435450 0.632043
vt 0.438937 0.632043
vt 0.438937 0.782206
vt 0.435450 0.782206
vt 0.397460 0.744216
vt 0.438937 0.932370
vt 0.435450 0.932370
vt 0.397460 0.894379
vt 0.397460 0.820197
vt 0.435450 0.782206
s 0
usemtl Material.005
f 173/355/55 160/356/55 162/357/55 174/358/55
f 170/359/56 169/360/56 164/356/56 163/355/56
f 168/361/57 167/362/57 169/363/57 170/364/57
f 171/365/58 166/365/58 168/365/58 172/365/58
f 166/366/55 165/359/55 167/367/55 168/368/55
f 163/369/59 164/370/59 165/371/59 166/372/59
f 159/368/55 171/367/55 172/373/55 161/374/55
f 165/365/58 173/365/58 174/365/58 167/365/58
f 183/365/58 184/365/58 185/365/58
f 186/365/58 187/365/58 188/365/58
f 189/365/58 190/365/58 191/365/58
f 192/365/58 193/365/58 194/365/58
f 189/375/60 178/376/60 177/377/60 190/378/60
f 183/379/61 180/380/61 179/381/61 184/382/61
f 175/383/60 187/384/60 186/385/60 176/386/60
f 181/387/61 193/388/61 192/389/61 182/385/61
f 176/390/59 186/368/59 171/391/59 159/392/59
f 159/393/62 161/394/62 179/395/62 180/396/62 175/397/62 176/398/62
f 180/380/56 183/379/56 187/384/56 175/383/56
f 193/388/56 181/387/56 178/376/56 189/375/56
f 190/399/59 177/400/59 160/370/59 173/369/59
f 162/401/58 160/402/58 177/403/58 178/404/58 181/405/58 182/406/58
f 161/407/57 172/399/57 184/369/57 179/408/57
f 174/362/57 162/407/57 182/408/57 192/409/57
f 183/410/58 185/411/58 170/412/58 163/413/58 188/414/58 187/415/58
f 172/365/59 168/365/59 170/365/59 185/365/59 184/365/59
f 186/365/58 188/365/58 163/365/58 166/365/58 171/365/58
f 164/365/58 191/365/58 190/365/58 173/365/58 165/365/58
f 169/416/62 194/417/62 193/418/62 189/419/62 191/420/62 164/413/62
f 167/365/59 174/365/59 192/365/59 194/365/59 169/365/59
