# Blender 5.0.1
# www.blender.org
mtllib ganymedePillar.mtl
o Cube.002
v -0.670053 -0.085399 3.243322
v -0.670053 -0.085399 2.943385
v 0.670053 -0.085399 3.243322
v 0.670053 -0.085399 2.943385
v -0.217936 4.020786 3.243322
v -0.321162 3.805422 3.243322
v -0.321162 3.805422 2.943385
v -0.217936 4.020786 2.943385
v 0.321162 3.805422 3.243322
v 0.217936 4.020786 3.243322
v 0.217936 4.020786 2.943385
v 0.321162 3.805422 2.943385
vn -0.0000 -1.0000 -0.0000
vn -0.9018 0.4322 -0.0000
vn 0.9018 0.4322 -0.0000
vn -0.0000 -0.0000 1.0000
vn -0.9960 0.0893 -0.0000
vn -0.0000 1.0000 -0.0000
vn -0.0000 -0.0000 -1.0000
vn 0.9960 0.0893 -0.0000
vt 0.982317 0.011752
vt 0.982317 0.163640
vt 0.948322 0.163640
vt 0.948322 0.011752
vt 0.880332 0.011752
vt 0.914327 0.011752
vt 0.914327 0.038389
vt 0.880332 0.038389
vt 0.948322 0.038389
vt 0.576556 0.477148
vt 0.616100 0.036162
vt 0.627799 0.011752
vt 0.677201 0.011752
vt 0.688901 0.036162
vt 0.728444 0.477148
vt 0.880332 0.474090
vt 0.914327 0.474090
vt 0.982317 0.213042
vt 0.948322 0.213042
vt 0.767988 0.036162
vt 0.779687 0.011752
vt 0.829089 0.011752
vt 0.840789 0.036162
vt 0.880332 0.477148
vt 0.948322 0.474090
s 0
usemtl Material.003
f 2/1/1 4/2/1 3/3/1 1/4/1
f 5/5/2 8/6/2 7/7/2 6/8/2
f 11/6/3 10/4/3 9/9/3 12/7/3
f 3/10/4 9/11/4 10/12/4 5/13/4 6/14/4 1/15/4
f 1/16/5 6/8/5 7/7/5 2/17/5
f 11/2/6 8/18/6 5/19/6 10/3/6
f 2/15/7 7/20/7 8/21/7 11/22/7 12/23/7 4/24/7
f 4/17/8 12/7/8 9/9/8 3/25/8
