# Blender 5.0.1
# www.blender.org
mtllib ganymedeDoorFrame.mtl
o Cube.001
v -0.286694 3.376006 -3.267042
v -0.286694 3.774975 -3.267042
v -0.286694 3.376006 -6.226490
v -0.286694 3.774975 -6.226490
v 0.286694 3.376006 -3.267042
v 0.286694 3.774975 -3.267042
v 0.286694 3.376006 -6.226490
v 0.286694 3.774975 -6.226490
v -0.286694 3.376006 -5.803712
v -0.449804 3.376006 -5.380934
v -0.449804 3.376006 -4.958156
v -0.449804 3.376006 -4.535377
v -0.449804 3.376006 -4.112599
v -0.286694 3.376006 -3.689821
v -0.286694 3.774975 -3.689821
v -0.449804 3.774975 -4.112599
v -0.449804 3.774975 -4.535377
v -0.449804 3.774975 -4.958156
v -0.449804 3.774975 -5.380934
v -0.286694 3.774975 -5.803712
v 0.286694 3.376006 -3.689821
v 0.449804 3.376006 -4.112599
v 0.449804 3.376006 -4.535377
v 0.449804 3.376006 -4.958156
v 0.449804 3.376006 -5.380934
v 0.286694 3.376006 -5.803712
v 0.286694 3.774975 -5.803712
v 0.449804 3.774975 -5.380934
v 0.449804 3.774975 -4.958156
v 0.449804 3.774975 -4.535377
v 0.449804 3.774975 -4.112599
v 0.286694 3.774975 -3.689821
v -0.286694 -0.038603 -3.689821
v -0.286694 -0.038603 -3.267042
v 0.286694 -0.038603 -6.226490
v -0.286694 -0.038603 -6.226490
v 0.286694 -0.038603 -5.803712
v 0.286694 -0.038603 -3.267042
v -0.286694 -0.038603 -5.803712
v 0.286694 -0.038603 -3.689821
v 0.286694 3.376006 -3.689821
v -0.286694 3.376006 -3.689821
v 0.286694 -0.038603 -3.689821
v -0.286694 -0.038603 -3.689821
v 0.209379 3.376006 -5.803712
v -0.209379 3.376006 -5.803712
v 0.209379 -0.038603 -5.803712
v -0.209379 -0.038603 -5.803712
v 0.209379 3.376006 -3.689821
v -0.209379 3.376006 -3.689821
v 0.209379 -0.038603 -3.689821
v -0.209379 -0.038603 -3.689821
v 0.209379 3.376006 -5.803712
v -0.209379 3.376006 -5.803712
v 0.209379 -0.038603 -5.803712
v -0.209379 -0.038603 -5.803712
v 0.209379 3.376006 -3.689821
v -0.209379 3.376006 -3.689821
v 0.209379 -0.038603 -3.689821
v -0.209379 -0.038603 -3.689821
v 0.209379 3.376006 -3.755029
v -0.209379 3.376006 -3.755029
v 0.209379 -0.038603 -3.755029
v -0.209379 -0.038603 -3.755029
v 0.209379 3.376006 -5.705225
v -0.209379 3.376006 -5.705225
v 0.209379 -0.038603 -5.705225
v -0.209379 -0.038603 -5.705225
v -0.286694 3.875568 -3.689821
v -0.449804 3.875568 -4.112599
v -0.449804 3.875568 -4.535377
v -0.449804 3.875568 -4.958156
v -0.449804 3.875568 -5.380934
v -0.286694 3.875568 -5.803712
v 0.286694 3.875568 -5.803712
v 0.449804 3.875568 -5.380934
v 0.449804 3.875568 -4.958156
v 0.449804 3.875568 -4.535377
v 0.449804 3.875568 -4.112599
v 0.286694 3.875568 -3.689821
vn -1.0000 -0.0000 -0.0000
vn -0.0000 -0.0000 -1.0000
vn 1.0000 -0.0000 -0.0000
vn -0.0000 -0.0000 1.0000
vn -0.0000 1.0000 -0.0000
vn 0.9330 -0.0000 -0.3599
vn -0.0000 -1.0000 -0.0000
vn 0.9330 -0.0000 0.3599
vn -0.9330 -0.0000 0.3599
vn -0.9330 -0.0000 -0.3599
vt 0.947873 0.670299
vt 0.974984 0.670301
vt 0.974982 0.699029
vt 0.947872 0.699027
vt 0.954693 0.900123
vt 0.981803 0.900125
vt 0.981800 0.939086
vt 0.954690 0.939085
vt 0.947860 0.871394
vt 0.974970 0.871396
vt 0.974968 0.900124
vt 0.947858 0.900122
vt 0.981797 0.978048
vt 0.954687 0.978047
vt 0.715834 0.900106
vt 0.715836 0.871378
vt 0.715851 0.648900
vt 0.676889 0.648898
vt 0.676891 0.620170
vt 0.715853 0.620173
vt 0.715849 0.677628
vt 0.676887 0.677626
vt 0.974988 0.612845
vt 0.974990 0.584117
vt 0.981825 0.584118
vt 0.981823 0.612845
vt 0.974978 0.756484
vt 0.974980 0.727757
vt 0.981815 0.727757
vt 0.981813 0.756485
vt 0.715845 0.741919
vt 0.676883 0.741917
vt 0.676883 0.735081
vt 0.715845 0.735084
vt 0.974972 0.842668
vt 0.974974 0.813940
vt 0.981809 0.813941
vt 0.981807 0.842669
vt 0.974992 0.555389
vt 0.981827 0.555390
vt 0.722666 0.939068
vt 0.722669 0.900107
vt 0.572219 0.547951
vt 0.572221 0.508989
vt 0.600950 0.497907
vt 0.600946 0.559036
vt 0.629678 0.497909
vt 0.629674 0.559038
vt 0.658406 0.497911
vt 0.658402 0.559040
vt 0.687134 0.497913
vt 0.687130 0.559042
vt 0.715861 0.508999
vt 0.715858 0.547961
vt 0.947870 0.727755
vt 0.947868 0.756483
vt 0.974976 0.785212
vt 0.947865 0.785210
vt 0.947864 0.813938
vt 0.947862 0.842666
vt 0.947885 0.497931
vt 0.974996 0.497933
vt 0.974994 0.526661
vt 0.947883 0.526659
vt 0.947881 0.555387
vt 0.947879 0.584115
vt 0.947877 0.612843
vt 0.974986 0.641573
vt 0.947875 0.641571
vt 0.715847 0.706356
vt 0.676885 0.706354
vt 0.715860 0.526643
vt 0.715862 0.497915
vt 0.715844 0.748755
vt 0.676882 0.748752
vt 0.682136 0.748752
vt 0.710591 0.748754
vt 0.715846 0.727739
vt 0.715848 0.699011
vt 0.715850 0.670283
vt 0.722664 0.978030
vt 0.722665 0.962270
vt 0.490641 0.962254
vt 0.490642 0.957000
vt 0.722665 0.957016
vt 0.722664 0.967523
vt 0.490641 0.967507
vt 0.490641 0.967507
vt 0.722664 0.967523
vt 0.722664 0.972777
vt 0.490640 0.972761
vt 0.722664 0.978030
vt 0.490640 0.978014
vt 0.981797 0.984741
vt 0.749773 0.984725
vt 0.749774 0.978032
vt 0.981798 0.978048
vt 0.687389 0.762137
vt 0.715843 0.762139
vt 0.715843 0.766570
vt 0.687388 0.766568
vt 0.722669 0.900107
vt 0.722667 0.928561
vt 0.490644 0.928545
vt 0.490646 0.900090
vt 0.981797 0.989172
vt 0.749773 0.989156
vt 0.715843 0.771001
vt 0.687388 0.770999
vt 0.517749 0.989139
vt 0.517750 0.984708
vt 0.715844 0.755447
vt 0.687389 0.755445
vt 0.687390 0.748753
vt 0.517750 0.978016
vt 0.687389 0.755445
vt 0.715844 0.755447
vt 0.572214 0.609079
vt 0.572217 0.570117
vt 0.600946 0.559036
vt 0.600942 0.620165
vt 0.629670 0.620167
vt 0.658397 0.620169
vt 0.687125 0.620171
vt 0.715857 0.570127
vt 0.715854 0.609089
vt 0.981805 0.871397
vt 0.981811 0.785213
vt 0.981821 0.641573
vt 0.676883 0.741917
vt 0.715845 0.741919
vt 0.981829 0.526662
vt 0.981819 0.670301
s 0
usemtl Material.004
f 9/1/1 20/2/1 4/3/1 3/4/1
f 3/5/2 4/6/2 8/7/2 7/8/2
f 21/9/3 32/10/3 6/11/3 5/12/3
f 5/8/4 6/7/4 2/13/4 1/14/4
f 21/9/3 5/12/3 38/15/3 40/16/3
f 32/17/5 15/18/5 2/19/5 6/20/5
f 8/21/5 4/22/5 20/18/5 27/17/5
f 18/23/1 17/24/1 71/25/1 72/26/1
f 28/27/6 27/28/6 75/29/6 76/30/6
f 15/31/4 32/32/4 80/33/4 69/34/4
f 31/35/3 30/36/3 78/37/3 79/38/3
f 17/24/1 16/39/1 70/40/1 71/25/1
f 3/5/2 7/8/2 35/41/2 36/42/2
f 9/43/7 26/44/7 25/45/7 10/46/7
f 10/46/7 25/45/7 24/47/7 11/48/7
f 11/48/7 24/47/7 23/49/7 12/50/7
f 12/50/7 23/49/7 22/51/7 13/52/7
f 13/52/7 22/51/7 21/53/7 14/54/7
f 7/4/3 8/3/3 27/28/3 26/55/3
f 26/55/6 27/28/6 28/27/6 25/56/6
f 25/56/3 28/27/3 29/57/3 24/58/3
f 24/58/3 29/57/3 30/36/3 23/59/3
f 23/59/3 30/36/3 31/35/3 22/60/3
f 22/60/8 31/35/8 32/10/8 21/9/8
f 1/61/1 2/62/1 15/63/1 14/64/1
f 14/64/9 15/63/9 16/39/9 13/65/9
f 13/65/1 16/39/1 17/24/1 12/66/1
f 12/66/1 17/24/1 18/23/1 11/67/1
f 11/67/1 18/23/1 19/68/1 10/69/1
f 10/69/10 19/68/10 20/2/10 9/1/10
f 33/70/7 40/71/7 38/22/7 34/21/7
f 36/34/7 35/33/7 37/71/7 39/70/7
f 1/61/1 14/64/1 33/72/1 34/73/1
f 42/74/7 41/75/7 49/76/7 50/77/7
f 7/4/3 26/55/3 37/78/3 35/79/3
f 21/20/5 40/20/5 43/20/5 41/20/5
f 9/1/1 3/4/1 36/79/1 39/80/1
f 5/8/4 1/14/4 34/81/4 38/41/4
f 41/82/2 43/83/2 51/84/2 49/85/2
f 14/20/5 21/20/5 41/20/5 42/20/5
f 40/20/5 33/20/5 44/20/5 43/20/5
f 33/20/5 14/20/5 42/20/5 44/20/5
f 52/20/5 50/20/5 58/20/5 60/20/5
f 45/20/5 46/20/5 54/20/5 53/20/5
f 9/86/4 39/87/4 48/83/4 46/82/4
f 44/88/2 42/89/2 50/90/2 52/91/2
f 43/75/5 44/74/5 52/77/5 51/76/5
f 39/20/5 37/20/5 47/20/5 48/20/5
f 26/20/5 9/20/5 46/20/5 45/20/5
f 37/91/4 26/90/4 45/92/4 47/93/4
f 54/94/1 56/95/1 68/96/1 66/97/1
f 58/98/5 57/99/5 61/100/5 62/101/5
f 51/20/5 52/20/5 60/20/5 59/20/5
f 47/20/5 45/20/5 53/20/5 55/20/5
f 48/20/5 47/20/5 55/20/5 56/20/5
f 49/20/5 51/20/5 59/20/5 57/20/5
f 50/20/5 49/20/5 57/20/5 58/20/5
f 46/20/5 48/20/5 56/20/5 54/20/5
f 62/102/2 61/103/2 63/104/2 64/105/2
f 60/95/1 58/94/1 62/106/1 64/107/1
f 59/101/7 60/100/7 64/108/7 63/109/7
f 57/107/3 59/110/3 63/111/3 61/95/3
f 65/103/4 66/85/4 68/84/4 67/104/4
f 53/112/5 54/113/5 66/114/5 65/74/5
f 55/115/3 53/96/3 65/95/3 67/111/3
f 56/99/7 55/98/7 67/116/7 68/117/7
f 75/118/5 74/119/5 73/120/5 76/121/5
f 76/121/5 73/120/5 72/48/5 77/122/5
f 77/122/5 72/48/5 71/50/5 78/123/5
f 78/123/5 71/50/5 70/52/5 79/124/5
f 79/124/5 70/52/5 69/125/5 80/126/5
f 32/10/8 31/35/8 79/38/8 80/127/8
f 29/57/3 28/27/3 76/30/3 77/128/3
f 19/68/1 18/23/1 72/26/1 73/129/1
f 27/74/2 20/75/2 74/130/2 75/131/2
f 16/39/9 15/63/9 69/132/9 70/40/9
f 30/36/3 29/57/3 77/128/3 78/37/3
f 20/2/10 19/68/10 73/129/10 74/133/10
