# Blender 5.0.1
# www.blender.org
mtllib ganymedeDoor.mtl
o Cube.008
v -0.126643 -0.021950 -3.740085
v -0.126643 3.344293 -3.740085
v -0.126643 -0.021950 -5.740085
v -0.126643 3.344293 -5.740085
v 0.126643 -0.021950 -3.740085
v 0.126643 3.344293 -3.740085
v 0.126643 -0.021950 -5.740085
v 0.126643 3.344293 -5.740085
v 0.255286 3.344293 -5.471083
v 0.255286 -0.021950 -5.471083
v 0.255286 -0.021950 -4.009087
v 0.255286 3.344293 -4.009087
v 0.255286 3.344293 -5.471083
v 0.255286 -0.021950 -5.471083
v 0.255286 -0.021950 -4.009087
v 0.255286 3.344293 -4.009087
vn -1.0000 -0.0000 -0.0000
vn -0.0000 -0.0000 -1.0000
vn -0.0000 1.0000 -0.0000
vn -0.0000 -0.0000 1.0000
vn -0.0000 -1.0000 -0.0000
vn 0.9021 -0.0000 -0.4314
vn 0.9021 -0.0000 0.4314
vn 1.0000 -0.0000 -0.0000
vt 0.362313 0.749409
vt 0.362322 0.990196
vt 0.219263 0.990201
vt 0.219254 0.749415
vt 0.076195 0.749420
vt 0.076204 0.990206
vt 0.058086 0.990207
vt 0.058077 0.749421
vt 0.021846 0.847149
vt 0.021851 0.990208
vt 0.012649 0.970967
vt 0.012645 0.866391
vt 0.039969 0.990207
vt 0.039960 0.749421
vt 0.012639 0.704090
vt 0.030756 0.704089
vt 0.030762 0.847148
vt 0.012644 0.847149
vt 0.039964 0.847148
vt 0.114678 0.749419
vt 0.114687 0.990205
vt 0.095445 0.990205
vt 0.095436 0.749419
vt 0.095436 0.749419
vt 0.095445 0.990205
vt 0.039959 0.723330
vt 0.039963 0.827906
s 0
usemtl Material.005
f 1/1/1 2/2/1 4/3/1 3/4/1
f 3/5/2 4/6/2 8/7/2 7/8/2
f 8/9/3 6/10/3 12/11/3 9/12/3
f 5/8/4 6/7/4 2/13/4 1/14/4
f 3/15/5 7/16/5 5/17/5 1/18/5
f 8/9/3 4/19/3 2/13/3 6/10/3
f 12/1/3 11/1/3 15/1/3 16/1/3
f 7/20/6 8/21/6 9/22/6 10/23/6
f 6/6/7 5/5/7 11/24/7 12/25/7
f 5/17/5 7/16/5 10/26/5 11/27/5
f 14/4/8 13/3/8 16/21/8 15/20/8
f 11/1/3 10/1/3 14/1/3 15/1/3
f 9/1/3 12/1/3 16/1/3 13/1/3
f 10/1/3 9/1/3 13/1/3 14/1/3
