# Blender 5.0.1
# www.blender.org
mtllib industrialCableA.mtl
o Cube.001
v -0.156496 -0.034942 0.168478
v -0.156496 0.034942 0.168478
v -0.156496 -0.034942 -0.168478
v -0.156496 0.034942 -0.168478
v 0.078548 -0.034942 0.168478
v 0.078548 0.034942 0.168478
v 0.078548 -0.034942 -0.168478
v 0.078548 0.034942 -0.168478
vn -1.0000 -0.0000 -0.0000
vn -0.0000 -0.0000 -1.0000
vn 1.0000 -0.0000 -0.0000
vn -0.0000 -0.0000 1.0000
vn -0.0000 -1.0000 -0.0000
vn -0.0000 1.0000 -0.0000
vt 0.083668 0.027392
vt 0.078535 0.027392
vt 0.078535 0.002647
vt 0.083668 0.002647
vt 0.049145 0.044653
vt 0.044013 0.044653
vt 0.044013 0.027392
vt 0.049145 0.027392
vt 0.088800 0.027392
vt 0.088800 0.002647
vt 0.054277 0.044653
vt 0.054277 0.027392
vt 0.061274 0.027392
vt 0.044013 0.002647
vt 0.061274 0.002647
s 0
usemtl Material.002
f 1/1/1 2/2/1 4/3/1 3/4/1
f 3/5/2 4/6/2 8/7/2 7/8/2
f 7/9/3 8/1/3 6/4/3 5/10/3
f 5/11/4 6/5/4 2/8/4 1/12/4
f 3/13/5 7/7/5 5/14/5 1/15/5
f 8/2/6 4/13/6 2/15/6 6/3/6
o Cube
v -0.053115 -5.723500 0.144337
v -0.053115 5.723500 0.144337
v -0.053115 -5.723500 0.038106
v -0.053115 5.723500 0.038106
v 0.053115 -5.723500 0.144337
v 0.053115 5.723500 0.144337
v 0.053115 -5.723500 0.038106
v 0.053115 5.723500 0.038106
vn -1.0000 -0.0000 -0.0000
vn -0.0000 -0.0000 -1.0000
vn 1.0000 -0.0000 -0.0000
vn -0.0000 -0.0000 1.0000
vn -0.0000 -1.0000 -0.0000
vn -0.0000 1.0000 -0.0000
vt 0.002522 0.709991
vt 0.002522 0.002448
vt 0.009088 0.002448
vt 0.009088 0.709991
vt 0.015654 0.002448
vt 0.015654 0.709991
vt 0.022221 0.002448
vt 0.022221 0.709991
vt 0.022221 0.709991
vt 0.022221 0.002448
vt 0.028787 0.002448
vt 0.028787 0.709991
vt 0.035353 0.002448
vt 0.035353 0.009014
vt 0.028787 0.009014
vt 0.035353 0.015580
vt 0.028787 0.015580
s 0
usemtl Material.004
f 9/16/7 10/17/7 12/18/7 11/19/7
f 11/19/8 12/18/8 16/20/8 15/21/8
f 15/21/9 16/20/9 14/22/9 13/23/9
f 13/24/10 14/25/10 10/26/10 9/27/10
f 11/28/11 15/29/11 13/30/11 9/26/11
f 16/29/12 12/31/12 10/32/12 14/30/12
o Cube.002
v -0.053115 -5.723500 -0.037142
v -0.053115 5.723500 -0.037142
v -0.053115 -5.723500 -0.143373
v -0.053115 5.723500 -0.143373
v 0.053115 -5.723500 -0.037142
v 0.053115 5.723500 -0.037142
v 0.053115 -5.723500 -0.143373
v 0.053115 5.723500 -0.143373
vn -1.0000 -0.0000 -0.0000
vn -0.0000 -0.0000 -1.0000
vn 1.0000 -0.0000 -0.0000
vn -0.0000 -0.0000 1.0000
vn -0.0000 -1.0000 -0.0000
vn -0.0000 1.0000 -0.0000
vt 0.002522 0.709991
vt 0.002522 0.002448
vt 0.009088 0.002448
vt 0.009088 0.709991
vt 0.015654 0.002448
vt 0.015654 0.709991
vt 0.022221 0.002448
vt 0.022221 0.709991
vt 0.022221 0.709991
vt 0.022221 0.002448
vt 0.028787 0.002448
vt 0.028787 0.709991
vt 0.035353 0.002448
vt 0.035353 0.009014
vt 0.028787 0.009014
vt 0.035353 0.015580
vt 0.028787 0.015580
s 0
usemtl Material.005
f 17/33/13 18/34/13 20/35/13 19/36/13
f 19/36/14 20/35/14 24/37/14 23/38/14
f 23/38/15 24/37/15 22/39/15 21/40/15
f 21/41/16 22/42/16 18/43/16 17/44/16
f 19/45/17 23/46/17 21/47/17 17/43/17
f 24/46/18 20/48/18 18/49/18 22/47/18
o Cube.003
v -0.156496 1.965058 0.168478
v -0.156496 2.034942 0.168478
v -0.156496 1.965058 -0.168478
v -0.156496 2.034942 -0.168478
v 0.078548 1.965058 0.168478
v 0.078548 2.034942 0.168478
v 0.078548 1.965058 -0.168478
v 0.078548 2.034942 -0.168478
vn -1.0000 -0.0000 -0.0000
vn -0.0000 -0.0000 -1.0000
vn 1.0000 -0.0000 -0.0000
vn -0.0000 -0.0000 1.0000
vn -0.0000 -1.0000 -0.0000
vn -0.0000 1.0000 -0.0000
vt 0.083668 0.027392
vt 0.078535 0.027392
vt 0.078535 0.002647
vt 0.083668 0.002647
vt 0.049145 0.044653
vt 0.044013 0.044653
vt 0.044013 0.027392
vt 0.049145 0.027392
vt 0.088800 0.027392
vt 0.088800 0.002647
vt 0.054277 0.044653
vt 0.054277 0.027392
vt 0.061274 0.027392
vt 0.044013 0.002647
vt 0.061274 0.002647
s 0
usemtl Material.006
f 25/50/19 26/51/19 28/52/19 27/53/19
f 27/54/20 28/55/20 32/56/20 31/57/20
f 31/58/21 32/50/21 30/53/21 29/59/21
f 29/60/22 30/54/22 26/57/22 25/61/22
f 27/62/23 31/56/23 29/63/23 25/64/23
f 32/51/24 28/62/24 26/64/24 30/52/24
o Cube.004
v -0.156496 -2.034942 0.168478
v -0.156496 -1.965058 0.168478
v -0.156496 -2.034942 -0.168478
v -0.156496 -1.965058 -0.168478
v 0.078548 -2.034942 0.168478
v 0.078548 -1.965058 0.168478
v 0.078548 -2.034942 -0.168478
v 0.078548 -1.965058 -0.168478
vn -1.0000 -0.0000 -0.0000
vn -0.0000 -0.0000 -1.0000
vn 1.0000 -0.0000 -0.0000
vn -0.0000 -0.0000 1.0000
vn -0.0000 -1.0000 -0.0000
vn -0.0000 1.0000 -0.0000
vt 0.083668 0.027392
vt 0.078535 0.027392
vt 0.078535 0.002647
vt 0.083668 0.002647
vt 0.049145 0.044653
vt 0.044013 0.044653
vt 0.044013 0.027392
vt 0.049145 0.027392
vt 0.088800 0.027392
vt 0.088800 0.002647
vt 0.054277 0.044653
vt 0.054277 0.027392
vt 0.061274 0.027392
vt 0.044013 0.002647
vt 0.061274 0.002647
s 0
usemtl Material.007
f 33/65/25 34/66/25 36/67/25 35/68/25
f 35/69/26 36/70/26 40/71/26 39/72/26
f 39/73/27 40/65/27 38/68/27 37/74/27
f 37/75/28 38/69/28 34/72/28 33/76/28
f 35/77/29 39/71/29 37/78/29 33/79/29
f 40/66/30 36/77/30 34/79/30 38/67/30
o Cube.005
v -0.156496 3.965058 0.168478
v -0.156496 4.034942 0.168478
v -0.156496 3.965058 -0.168478
v -0.156496 4.034942 -0.168478
v 0.078548 3.965058 0.168478
v 0.078548 4.034942 0.168478
v 0.078548 3.965058 -0.168478
v 0.078548 4.034942 -0.168478
vn -1.0000 -0.0000 -0.0000
vn -0.0000 -0.0000 -1.0000
vn 1.0000 -0.0000 -0.0000
vn -0.0000 -0.0000 1.0000
vn -0.0000 -1.0000 -0.0000
vn -0.0000 1.0000 -0.0000
vt 0.083668 0.027392
vt 0.078535 0.027392
vt 0.078535 0.002647
vt 0.083668 0.002647
vt 0.049145 0.044653
vt 0.044013 0.044653
vt 0.044013 0.027392
vt 0.049145 0.027392
vt 0.088800 0.027392
vt 0.088800 0.002647
vt 0.054277 0.044653
vt 0.054277 0.027392
vt 0.061274 0.027392
vt 0.044013 0.002647
vt 0.061274 0.002647
s 0
usemtl Material.008
f 41/80/31 42/81/31 44/82/31 43/83/31
f 43/84/32 44/85/32 48/86/32 47/87/32
f 47/88/33 48/80/33 46/83/33 45/89/33
f 45/90/34 46/84/34 42/87/34 41/91/34
f 43/92/35 47/86/35 45/93/35 41/94/35
f 48/81/36 44/92/36 42/94/36 46/82/36
o Cube.006
v -0.156496 -4.034942 0.168478
v -0.156496 -3.965058 0.168478
v -0.156496 -4.034942 -0.168478
v -0.156496 -3.965058 -0.168478
v 0.078548 -4.034942 0.168478
v 0.078548 -3.965058 0.168478
v 0.078548 -4.034942 -0.168478
v 0.078548 -3.965058 -0.168478
vn -1.0000 -0.0000 -0.0000
vn -0.0000 -0.0000 -1.0000
vn 1.0000 -0.0000 -0.0000
vn -0.0000 -0.0000 1.0000
vn -0.0000 -1.0000 -0.0000
vn -0.0000 1.0000 -0.0000
vt 0.083668 0.027392
vt 0.078535 0.027392
vt 0.078535 0.002647
vt 0.083668 0.002647
vt 0.049145 0.044653
vt 0.044013 0.044653
vt 0.044013 0.027392
vt 0.049145 0.027392
vt 0.088800 0.027392
vt 0.088800 0.002647
vt 0.054277 0.044653
vt 0.054277 0.027392
vt 0.061274 0.027392
vt 0.044013 0.002647
vt 0.061274 0.002647
s 0
usemtl Material.009
f 49/95/37 50/96/37 52/97/37 51/98/37
f 51/99/38 52/100/38 56/101/38 55/102/38
f 55/103/39 56/95/39 54/98/39 53/104/39
f 53/105/40 54/99/40 50/102/40 49/106/40
f 51/107/41 55/101/41 53/108/41 49/109/41
f 56/96/42 52/107/42 50/109/42 54/97/42
