# Blender 5.0.1
# www.blender.org
mtllib medicalConsole.mtl
o Cube.001
v 2.934762 3.358969 -1.639636
v 2.934762 3.099091 -1.639636
v 2.934762 3.358969 1.639636
v 2.934762 3.099091 1.639636
v -2.934762 3.358969 -1.639636
v -2.934762 3.099091 -1.639636
v -2.934762 3.358969 1.639636
v -2.934762 3.099091 1.639636
v 2.775332 3.358969 1.466553
v -2.775332 3.358969 1.466553
v 2.775332 3.358969 -1.466553
v -2.775332 3.358969 -1.466553
v 2.775332 3.203579 1.466553
v -2.775332 3.203579 1.466553
v 2.775332 3.203579 -1.466553
v -2.775332 3.203579 -1.466553
vn -0.0000 1.0000 -0.0000
vn -0.0000 -0.0000 1.0000
vn -1.0000 -0.0000 -0.0000
vn -0.0000 -1.0000 -0.0000
vn 1.0000 -0.0000 -0.0000
vn -0.0000 -0.0000 -1.0000
vt 0.651072 0.287398
vt 0.493328 0.287413
vt 0.501653 0.279743
vt 0.642746 0.279730
vt 0.821317 0.287381
vt 0.808816 0.287382
vt 0.808788 0.005038
vt 0.821289 0.005037
vt 0.846333 0.429784
vt 0.833832 0.429786
vt 0.833817 0.272041
vt 0.846318 0.272040
vt 0.651044 0.005054
vt 0.858835 0.429783
vt 0.858819 0.272039
vt 0.833818 0.287380
vt 0.821289 0.005037
vt 0.833790 0.005036
vt 0.858833 0.413131
vt 0.858819 0.272039
vt 0.866294 0.272038
vt 0.866308 0.413131
vt 0.493300 0.005069
vt 0.642719 0.012724
vt 0.501627 0.012738
vt 0.974883 0.005022
vt 0.974909 0.272027
vt 0.873768 0.272037
vt 0.873783 0.413130
vt 0.982357 0.005021
vt 0.982384 0.272027
vt 0.989832 0.005020
vt 0.989859 0.272026
s 0
usemtl Material.001
f 5/1/1 7/2/1 10/3/1 12/4/1
f 4/5/2 3/6/2 7/7/2 8/8/2
f 8/9/3 7/10/3 5/11/3 6/12/3
f 6/7/4 2/6/4 4/1/4 8/13/4
f 2/14/5 1/9/5 3/12/5 4/15/5
f 6/16/6 5/5/6 1/17/6 2/18/6
f 9/19/3 11/20/3 15/21/3 13/22/3
f 3/23/1 1/13/1 11/24/1 9/25/1
f 1/13/1 5/1/1 12/4/1 11/24/1
f 7/2/1 3/23/1 9/25/1 10/3/1
f 15/26/1 16/27/1 14/11/1 13/18/1
f 12/22/5 10/21/5 14/28/5 16/29/5
f 10/27/6 9/26/6 13/30/6 14/31/6
f 11/31/2 12/30/2 16/32/2 15/33/2
o Cube.002
v -2.772535 -0.185275 1.462595
v -2.772535 3.129790 1.462595
v -2.772535 -0.185275 1.251895
v -2.772535 3.129790 1.251895
v -2.561834 -0.185275 1.462595
v -2.561834 3.129790 1.462595
v -2.561834 -0.185275 1.251895
v -2.561834 3.129790 1.251895
vn -1.0000 -0.0000 -0.0000
vn -0.0000 -0.0000 -1.0000
vn 1.0000 -0.0000 -0.0000
vn -0.0000 -0.0000 1.0000
vn -0.0000 -1.0000 -0.0000
vn -0.0000 1.0000 -0.0000
vt 0.019966 0.446041
vt 0.019966 0.018580
vt 0.047135 0.018580
vt 0.047135 0.446041
vt 0.074304 0.018580
vt 0.074304 0.446041
vt 0.101473 0.018580
vt 0.101473 0.446041
vt 0.128642 0.018580
vt 0.128642 0.446041
vt 0.155811 0.018580
vt 0.155811 0.045749
vt 0.128642 0.045749
vt 0.155811 0.072918
vt 0.128642 0.072918
s 0
usemtl Material.002
f 17/34/7 18/35/7 20/36/7 19/37/7
f 19/37/8 20/36/8 24/38/8 23/39/8
f 23/39/9 24/38/9 22/40/9 21/41/9
f 21/41/10 22/40/10 18/42/10 17/43/10
f 19/44/11 23/45/11 21/46/11 17/42/11
f 24/45/12 20/47/12 18/48/12 22/46/12
o Cube.003
v -2.161202 0.704606 1.000000
v -2.161202 2.704606 1.000000
v -2.161202 0.704606 -1.000000
v -2.161202 2.704606 -1.000000
v 1.286830 0.704606 1.000000
v 1.286830 2.704606 1.000000
v 1.286830 0.704606 -1.000000
v 1.286830 2.704606 -1.000000
v -1.825346 0.897136 1.000000
v -1.825346 2.507515 1.000000
v 0.950973 2.507515 1.000000
v 0.950973 0.897136 1.000000
v -1.825346 0.897136 0.802244
v -1.825346 2.507515 0.802244
v 0.950973 2.507515 0.802244
v 0.950973 0.897136 0.802244
vn -1.0000 -0.0000 -0.0000
vn -0.0000 -0.0000 -1.0000
vn 1.0000 -0.0000 -0.0000
vn -0.0000 -0.0000 1.0000
vn -0.0000 1.0000 -0.0000
vn -0.0000 -1.0000 -0.0000
vt 0.805022 0.744300
vt 0.694517 0.744300
vt 0.694517 0.633795
vt 0.805022 0.633795
vt 0.716045 0.633795
vt 0.605540 0.633795
vt 0.605540 0.443283
vt 0.716045 0.443283
vt 0.915527 0.744300
vt 0.915527 0.633795
vt 0.716045 0.633795
vt 0.726935 0.461840
vt 0.726935 0.615238
vt 0.937054 0.443283
vt 0.937054 0.633795
vt 0.826549 0.633795
vt 0.826549 0.443283
vt 0.937054 0.596681
vt 0.947981 0.443283
vt 0.947981 0.596681
vt 0.826549 0.633795
vt 0.815912 0.615238
vt 0.815912 0.461840
vt 0.694517 0.787193
vt 0.605540 0.787193
vt 0.605540 0.633795
vt 0.915527 0.722772
vt 0.915527 0.633795
vt 0.926453 0.633795
vt 0.926453 0.722772
vt 0.937054 0.750079
vt 0.947981 0.750079
vt 0.958907 0.443283
vt 0.958907 0.532261
vt 0.947981 0.532261
s 0
usemtl Material.003
f 25/49/13 26/50/13 28/51/13 27/52/13
f 27/53/14 28/54/14 32/55/14 31/56/14
f 31/57/15 32/49/15 30/52/15 29/58/15
f 30/59/16 26/56/16 34/60/16 35/61/16
f 32/62/17 28/63/17 26/64/17 30/65/17
f 35/66/18 34/62/18 38/67/18 39/68/18
f 29/69/16 30/59/16 35/61/16 36/70/16
f 26/56/16 25/65/16 33/71/16 34/60/16
f 25/65/16 29/69/16 36/70/16 33/71/16
f 40/72/16 39/73/16 38/74/16 37/51/16
f 36/75/13 35/76/13 39/77/13 40/78/13
f 33/79/17 36/66/17 40/68/17 37/80/17
f 34/81/15 33/82/15 37/83/15 38/67/15
o Cube.004
v -2.332884 4.224643 -0.224488
v -2.332884 6.886854 -0.918993
v -2.332884 4.071493 -0.811550
v -2.332884 6.733704 -1.506055
v 2.332884 4.224643 -0.224488
v 2.332884 6.886854 -0.918993
v 2.332884 4.071493 -0.811550
v 2.332884 6.733704 -1.506055
v -2.220157 4.321939 -0.249870
v -2.220157 6.789558 -0.893611
v 2.220157 6.789558 -0.893611
v 2.220157 4.321939 -0.249870
v -2.220157 4.276094 -0.425606
v -2.220157 6.743713 -1.069347
v 2.220157 6.743713 -1.069347
v 2.220157 4.276094 -0.425606
vn -1.0000 -0.0000 -0.0000
vn -0.0000 -0.2524 -0.9676
vn 1.0000 -0.0000 -0.0000
vn -0.0000 0.2524 0.9676
vn -0.0000 -0.9676 0.2524
vn -0.0000 0.9676 -0.2524
vt 0.564681 0.482609
vt 0.356337 0.482610
vt 0.356337 0.436667
vt 0.564680 0.436665
vt 0.373412 0.782840
vt 0.373413 0.991183
vt 0.020097 0.991186
vt 0.020096 0.782842
vt 0.581756 0.798067
vt 0.373412 0.798068
vt 0.373412 0.752125
vt 0.581755 0.752124
vt 0.373412 0.782840
vt 0.020096 0.782842
vt 0.028632 0.775228
vt 0.364876 0.775225
vt 0.020094 0.528556
vt 0.373410 0.528553
vt 0.373410 0.574496
vt 0.020094 0.574499
vt 0.020094 0.482612
vt 0.373410 0.482610
vt 0.356337 0.482610
vt 0.020094 0.468859
vt 0.356337 0.468857
vt 0.364874 0.582111
vt 0.028631 0.582113
vt 0.709656 0.798066
vt 0.709657 0.991181
vt 0.373413 0.991183
vt 0.566527 0.752124
vt 0.373412 0.752125
vt 0.373412 0.738372
vt 0.566526 0.738371
vt 0.020094 0.468859
vt 0.020093 0.455106
vt 0.356337 0.455104
vt 0.373412 0.724619
vt 0.566526 0.724618
s 0
usemtl Material.004
f 41/84/19 42/85/19 44/86/19 43/87/19
f 43/88/20 44/89/20 48/90/20 47/91/20
f 47/92/21 48/93/21 46/94/21 45/95/21
f 46/96/22 42/97/22 50/98/22 51/99/22
f 43/100/23 47/101/23 45/102/23 41/103/23
f 48/104/24 44/105/24 42/101/24 46/100/24
f 51/106/23 50/104/23 54/107/23 55/108/23
f 45/102/22 46/96/22 51/99/22 52/109/22
f 42/97/22 41/103/22 49/110/22 50/98/22
f 41/103/22 45/102/22 52/109/22 49/110/22
f 56/111/22 55/112/22 54/113/22 53/93/22
f 52/114/19 51/115/19 55/116/19 56/117/19
f 49/108/24 52/118/24 56/119/24 53/120/24
f 50/121/21 49/122/21 53/117/21 54/116/21
o Cube
v -0.218263 3.189431 -1.013647
v -0.218263 5.576825 -1.013647
v -0.218263 3.189431 -1.450172
v -0.218263 5.576825 -1.450172
v 0.218263 3.189431 -1.013647
v 0.218263 5.576825 -1.013647
v 0.218263 3.189431 -1.450172
v 0.218263 5.576825 -1.450172
vn -0.7071 -0.0000 0.7071
vn -0.7071 -0.0000 -0.7071
vn 0.7071 -0.0000 -0.7071
vn 0.7071 -0.0000 0.7071
vn -0.7071 -0.0000 -0.7072
vn 0.7072 -0.0000 -0.7071
vn 0.7071 -0.0000 0.7072
vn -0.7072 -0.0000 0.7071
vn 0.7071 -0.0000 -0.7072
vn -0.7072 -0.0000 -0.7071
vn -0.7071 -0.0000 0.7072
vn 0.7072 -0.0000 0.7071
vt 0.281277 0.236114
vt 0.281277 0.018622
vt 0.321045 0.018622
vt 0.321045 0.236114
vt 0.360812 0.018622
vt 0.360812 0.236114
vt 0.400580 0.018622
vt 0.400580 0.236114
vt 0.440347 0.018622
vt 0.440347 0.236114
vt 0.480115 0.018622
vt 0.480115 0.058389
vt 0.440347 0.058389
vt 0.480115 0.098157
vt 0.440347 0.098157
s 0
usemtl Material.005
f 57/123/25 58/124/25 60/125/26 59/126/26
f 59/126/26 60/125/26 64/127/27 63/128/27
f 63/128/27 64/127/27 62/129/28 61/130/28
f 61/130/28 62/129/28 58/131/25 57/132/25
f 59/133/29 63/134/30 61/135/31 57/131/32
f 64/134/33 60/136/34 58/137/35 62/135/36
o Cube.005
v 2.934762 0.889777 -1.639636
v 2.934762 0.629899 -1.639636
v 2.934762 0.889777 1.639636
v 2.934762 0.629899 1.639636
v -2.934762 0.889777 -1.639636
v -2.934762 0.629899 -1.639636
v -2.934762 0.889777 1.639636
v -2.934762 0.629899 1.639636
v 2.775332 0.889777 1.466553
v -2.775332 0.889777 1.466553
v 2.775332 0.889777 -1.466553
v -2.775332 0.889777 -1.466553
v 2.775332 0.734387 1.466553
v -2.775332 0.734387 1.466553
v 2.775332 0.734387 -1.466553
v -2.775332 0.734387 -1.466553
vn -0.0000 1.0000 -0.0000
vn -0.0000 -0.0000 1.0000
vn -1.0000 -0.0000 -0.0000
vn -0.0000 -1.0000 -0.0000
vn 1.0000 -0.0000 -0.0000
vn -0.0000 -0.0000 -1.0000
vt 0.651072 0.287398
vt 0.493328 0.287413
vt 0.501653 0.279743
vt 0.642746 0.279730
vt 0.821317 0.287381
vt 0.808816 0.287382
vt 0.808788 0.005038
vt 0.821289 0.005037
vt 0.846333 0.429784
vt 0.833832 0.429786
vt 0.833817 0.272041
vt 0.846318 0.272040
vt 0.651044 0.005054
vt 0.858835 0.429783
vt 0.858819 0.272039
vt 0.833818 0.287380
vt 0.821289 0.005037
vt 0.833790 0.005036
vt 0.858833 0.413131
vt 0.858819 0.272039
vt 0.866294 0.272038
vt 0.866308 0.413131
vt 0.493300 0.005069
vt 0.642719 0.012724
vt 0.501627 0.012738
vt 0.974883 0.005022
vt 0.974909 0.272027
vt 0.873768 0.272037
vt 0.873783 0.413130
vt 0.982357 0.005021
vt 0.982384 0.272027
vt 0.989832 0.005020
vt 0.989859 0.272026
s 0
usemtl Material.006
f 69/138/37 71/139/37 74/140/37 76/141/37
f 68/142/38 67/143/38 71/144/38 72/145/38
f 72/146/39 71/147/39 69/148/39 70/149/39
f 70/144/40 66/143/40 68/138/40 72/150/40
f 66/151/41 65/146/41 67/149/41 68/152/41
f 70/153/42 69/142/42 65/154/42 66/155/42
f 73/156/39 75/157/39 79/158/39 77/159/39
f 67/160/37 65/150/37 75/161/37 73/162/37
f 65/150/37 69/138/37 76/141/37 75/161/37
f 71/139/37 67/160/37 73/162/37 74/140/37
f 79/163/37 80/164/37 78/148/37 77/155/37
f 76/159/41 74/158/41 78/165/41 80/166/41
f 74/164/42 73/163/42 77/167/42 78/168/42
f 75/168/38 76/167/38 80/169/38 79/170/38
o Cube.006
v 2.563346 -0.185275 1.462595
v 2.563346 3.129790 1.462595
v 2.563346 -0.185275 1.251895
v 2.563346 3.129790 1.251895
v 2.774047 -0.185275 1.462595
v 2.774047 3.129790 1.462595
v 2.774047 -0.185275 1.251895
v 2.774047 3.129790 1.251895
vn -1.0000 -0.0000 -0.0000
vn -0.0000 -0.0000 -1.0000
vn 1.0000 -0.0000 -0.0000
vn -0.0000 -0.0000 1.0000
vn -0.0000 -1.0000 -0.0000
vn -0.0000 1.0000 -0.0000
vt 0.019966 0.446041
vt 0.019966 0.018580
vt 0.047135 0.018580
vt 0.047135 0.446041
vt 0.074304 0.018580
vt 0.074304 0.446041
vt 0.101473 0.018580
vt 0.101473 0.446041
vt 0.128642 0.018580
vt 0.128642 0.446041
vt 0.155811 0.018580
vt 0.155811 0.045749
vt 0.128642 0.045749
vt 0.155811 0.072918
vt 0.128642 0.072918
s 0
usemtl Material.007
f 81/171/43 82/172/43 84/173/43 83/174/43
f 83/174/44 84/173/44 88/175/44 87/176/44
f 87/176/45 88/175/45 86/177/45 85/178/45
f 85/178/46 86/177/46 82/179/46 81/180/46
f 83/181/47 87/182/47 85/183/47 81/179/47
f 88/182/48 84/184/48 82/185/48 86/183/48
o Cube.007
v 2.587159 -0.185275 -1.275572
v 2.587159 3.129790 -1.275572
v 2.587159 -0.185275 -1.486273
v 2.587159 3.129790 -1.486273
v 2.797860 -0.185275 -1.275572
v 2.797860 3.129790 -1.275572
v 2.797860 -0.185275 -1.486273
v 2.797860 3.129790 -1.486273
vn -1.0000 -0.0000 -0.0000
vn -0.0000 -0.0000 -1.0000
vn 1.0000 -0.0000 -0.0000
vn -0.0000 -0.0000 1.0000
vn -0.0000 -1.0000 -0.0000
vn -0.0000 1.0000 -0.0000
vt 0.019966 0.446041
vt 0.019966 0.018580
vt 0.047135 0.018580
vt 0.047135 0.446041
vt 0.074304 0.018580
vt 0.074304 0.446041
vt 0.101473 0.018580
vt 0.101473 0.446041
vt 0.128642 0.018580
vt 0.128642 0.446041
vt 0.155811 0.018580
vt 0.155811 0.045749
vt 0.128642 0.045749
vt 0.155811 0.072918
vt 0.128642 0.072918
s 0
usemtl Material.008
f 89/186/49 90/187/49 92/188/49 91/189/49
f 91/189/50 92/188/50 96/190/50 95/191/50
f 95/191/51 96/190/51 94/192/51 93/193/51
f 93/193/52 94/192/52 90/194/52 89/195/52
f 91/196/53 95/197/53 93/198/53 89/194/53
f 96/197/54 92/199/54 90/200/54 94/198/54
o Cube.008
v -2.772535 -0.185275 -1.248352
v -2.772535 3.129790 -1.248352
v -2.772535 -0.185275 -1.459053
v -2.772535 3.129790 -1.459053
v -2.561834 -0.185275 -1.248352
v -2.561834 3.129790 -1.248352
v -2.561834 -0.185275 -1.459053
v -2.561834 3.129790 -1.459053
vn -1.0000 -0.0000 -0.0000
vn -0.0000 -0.0000 -1.0000
vn 1.0000 -0.0000 -0.0000
vn -0.0000 -0.0000 1.0000
vn -0.0000 -1.0000 -0.0000
vn -0.0000 1.0000 -0.0000
vt 0.019966 0.446041
vt 0.019966 0.018580
vt 0.047135 0.018580
vt 0.047135 0.446041
vt 0.074304 0.018580
vt 0.074304 0.446041
vt 0.101473 0.018580
vt 0.101473 0.446041
vt 0.128642 0.018580
vt 0.128642 0.446041
vt 0.155811 0.018580
vt 0.155811 0.045749
vt 0.128642 0.045749
vt 0.155811 0.072918
vt 0.128642 0.072918
s 0
usemtl Material.009
f 97/201/55 98/202/55 100/203/55 99/204/55
f 99/204/56 100/203/56 104/205/56 103/206/56
f 103/206/57 104/205/57 102/207/57 101/208/57
f 101/208/58 102/207/58 98/209/58 97/210/58
f 99/211/59 103/212/59 101/213/59 97/209/59
f 104/212/60 100/214/60 98/215/60 102/213/60
