# Blender 5.0.1
# www.blender.org
mtllib sink.mtl
o Cube
v 1.000000 0.556094 -1.543788
v 0.630401 -0.556094 -1.178990
v 1.000000 0.556094 1.543788
v 0.630401 -0.556094 1.178990
v -1.000000 0.556094 -1.543788
v -1.000000 -0.556094 -1.178990
v -1.000000 0.556094 1.543788
v -1.000000 -0.556094 1.178990
v 0.837181 0.556094 1.375496
v -0.837181 0.556094 1.375496
v 0.837181 0.556094 -1.375496
v -0.837181 0.556094 -1.375496
v 0.581354 -0.361080 1.088377
v -0.837181 -0.361080 1.088377
v 0.581354 -0.361080 -1.088377
v -0.837181 -0.361080 -1.088377
v -1.427460 -0.556094 -1.178990
v -1.427460 -0.556094 1.178990
v -1.427460 0.556094 1.543788
v -1.427460 0.556094 -1.543788
vn -0.0000 1.0000 -0.0000
vn -0.0000 -0.3117 0.9502
vn -0.0000 -1.0000 -0.0000
vn 0.9490 -0.3154 -0.0000
vn -0.0000 -0.3117 -0.9502
vn -0.0000 0.2988 -0.9543
vn -0.0000 0.2988 0.9543
vn -0.9632 0.2687 -0.0000
vn 1.0000 -0.0000 -0.0000
vn -1.0000 -0.0000 -0.0000
vt 0.206689 0.762691
vt 0.044815 0.762691
vt 0.057993 0.749070
vt 0.193511 0.749070
vt 0.542956 0.870197
vt 0.465871 0.900112
vt 0.465871 0.738237
vt 0.542956 0.738237
vt 0.338650 0.703640
vt 0.338650 0.512791
vt 0.373247 0.512791
vt 0.373247 0.703640
vt 0.206689 0.703640
vt 0.206689 0.512791
vt 0.300329 0.924014
vt 0.206689 0.953540
vt 0.206689 0.703640
vt 0.300329 0.733166
vt 0.626941 0.864720
vt 0.549855 0.864720
vt 0.549855 0.702846
vt 0.626941 0.732760
vt 0.451033 0.648310
vt 0.451033 0.512791
vt 0.528819 0.533497
vt 0.528819 0.648310
vt 0.044815 0.512791
vt 0.193511 0.526412
vt 0.057993 0.526412
vt 0.125030 0.938872
vt 0.010217 0.938872
vt 0.010217 0.762691
vt 0.125030 0.762691
vt 0.373247 0.648310
vt 0.451033 0.627604
vt 0.389515 0.926297
vt 0.389515 0.703640
vt 0.465871 0.726878
vt 0.465871 0.903059
vt 0.125030 0.985349
vt 0.198310 0.785930
vt 0.198310 0.962110
vt 0.389515 0.924014
vt 0.300329 0.953540
vt 0.300329 0.703640
vt 0.389515 0.733166
vt 0.010217 0.512791
vt 0.626941 0.899318
vt 0.549855 0.899318
vt 0.465871 0.703640
vt 0.542956 0.703640
s 0
usemtl Material
f 1/1/1 5/2/1 12/3/1 11/4/1
f 4/5/2 3/6/2 7/7/2 8/8/2
f 6/9/3 8/10/3 18/11/3 17/12/3
f 6/9/3 2/13/3 4/14/3 8/10/3
f 2/15/4 1/16/4 3/17/4 4/18/4
f 6/19/5 5/20/5 1/21/5 2/22/5
f 10/23/6 9/24/6 13/25/6 14/26/6
f 7/27/1 3/14/1 9/28/1 10/29/1
f 5/2/1 7/27/1 10/29/1 12/3/1
f 3/14/1 1/1/1 11/4/1 9/28/1
f 15/30/1 16/31/1 14/32/1 13/33/1
f 11/34/7 12/11/7 16/24/7 15/35/7
f 9/36/8 11/37/8 15/38/8 13/39/8
f 12/40/9 10/33/9 14/41/9 16/42/9
f 18/43/10 19/44/10 20/45/10 17/46/10
f 7/27/1 5/2/1 20/32/1 19/47/1
f 5/20/5 6/19/5 17/48/5 20/49/5
f 8/8/2 7/7/2 19/50/2 18/51/2
o Cube.001
v -1.269253 0.508987 0.406723
v -0.836374 1.382224 0.127036
v -1.269253 0.508987 -0.406723
v -0.836374 1.382224 -0.127036
v -0.992395 0.508987 0.406723
v -0.641223 1.382224 0.127036
v -0.992395 0.508987 -0.406723
v -0.641223 1.382224 -0.127036
v -0.966149 1.162265 0.127036
v -0.966149 1.162265 -0.127036
v -0.641223 1.162265 -0.127036
v -0.641223 1.162265 0.127036
v -0.030860 1.382224 -0.127036
v -0.030860 1.382224 0.127036
v -0.030860 1.162265 -0.127036
v -0.030860 1.162265 0.127036
v 0.086842 1.382224 -0.079096
v 0.086842 1.382224 0.079096
v 0.086842 1.162265 -0.079096
v 0.086842 1.162265 0.079096
vn -0.8613 0.5081 -0.0000
vn -0.0000 -0.0000 -1.0000
vn -0.0000 1.0000 -0.0000
vn -0.0000 -0.0000 1.0000
vn -0.0000 0.3936 0.9193
vn 0.8808 -0.4735 -0.0000
vn -0.0000 0.3936 -0.9193
vn -0.9071 0.4209 -0.0000
vn 0.3772 -0.0000 0.9261
vn -0.0000 -1.0000 -0.0000
vn 1.0000 -0.0000 -0.0000
vn 0.3772 -0.0000 -0.9261
vt 0.541416 0.135753
vt 0.541416 0.090478
vt 0.586513 0.090478
vt 0.586513 0.135753
vt 0.776226 0.193587
vt 0.755137 0.153942
vt 0.773335 0.124661
vt 0.806526 0.144835
vt 0.586513 0.074368
vt 0.541416 0.074368
vt 0.541416 0.023983
vt 0.586513 0.023983
vt 0.703748 0.144835
vt 0.736939 0.124661
vt 0.734047 0.193587
vt 0.636157 0.264183
vt 0.661974 0.305723
vt 0.619436 0.407809
vt 0.491773 0.358166
vt 0.491773 0.313069
vt 0.619436 0.263426
vt 0.848300 0.305723
vt 0.874117 0.264183
vt 0.491773 0.263426
vt 0.636157 0.263426
vt 0.680022 0.033082
vt 0.646831 0.053256
vt 0.636157 0.034440
vt 0.669348 0.014267
vt 0.636157 0.305723
vt 0.681254 0.305723
vt 0.681254 0.414061
vt 0.636157 0.414061
vt 0.830252 0.033082
vt 0.863443 0.053256
vt 0.681254 0.343584
vt 0.709332 0.305723
vt 0.709332 0.343584
vt 0.549926 0.014267
vt 0.578004 0.014267
vt 0.672744 0.434952
vt 0.644666 0.434952
vt 0.840926 0.014267
vt 0.874117 0.034440
s 0
usemtl Material.002
f 29/52/11 22/53/11 24/54/11 30/55/11
f 30/56/12 24/57/12 28/58/12 31/59/12
f 28/60/13 26/61/13 34/62/13 33/63/13
f 32/64/14 26/65/14 22/57/14 29/66/14
f 28/60/13 24/54/13 22/53/13 26/61/13
f 25/67/15 32/64/15 29/66/15 21/68/15
f 27/69/16 31/70/16 32/71/16 25/72/16
f 23/73/17 30/56/17 31/59/17 27/74/17
f 21/75/18 29/52/18 30/55/18 23/76/18
f 34/77/19 36/78/19 40/79/19 38/80/19
f 32/81/20 31/82/20 35/83/20 36/84/20
f 26/65/14 32/64/14 36/78/14 34/77/14
f 31/59/12 28/58/12 33/85/12 35/86/12
f 39/87/21 37/82/21 38/88/21 40/89/21
f 33/63/13 34/62/13 38/90/13 37/91/13
f 36/84/20 35/83/20 39/92/20 40/93/20
f 35/86/22 33/85/22 37/94/22 39/95/22
o Cube.002
v -2.205825 -2.190278 0.705499
v -2.205825 0.485975 0.705499
v -2.205825 -2.190278 -0.705499
v -2.205825 0.485975 -0.705499
v -1.205429 -2.190278 0.705499
v -1.205429 0.485975 0.705499
v -1.205429 -2.190278 -0.705499
v -1.205429 0.485975 -0.705499
v -2.205825 -4.127223 -0.705499
v -2.205825 -4.127223 0.705499
v -1.787251 -4.127223 -0.705499
v -1.787251 -4.127223 0.705499
v -2.205825 -1.298193 0.705499
v -2.205825 -0.406109 0.705499
v -2.205825 -0.406109 -0.705499
v -2.205825 -1.298194 -0.705499
v -1.205429 -0.406109 -0.705499
v -1.205429 -1.298194 -0.705499
v -1.205429 -0.406109 0.705499
v -1.205429 -1.298194 0.705499
v -1.205429 -0.538523 -0.428163
v -1.205429 -1.218219 -0.428163
v -1.205429 -0.538523 0.428163
v -1.205429 -1.218219 0.428163
v 0.284808 -0.538523 -0.428163
v 0.284808 -0.642374 -0.428163
v 0.284808 -0.538523 0.428163
v 0.284808 -0.642374 0.428163
v -0.262472 -1.218219 -0.428163
v -0.262472 -1.218219 0.428163
v -0.262472 -0.538523 -0.428163
v -0.262472 -0.538523 0.428163
vn -1.0000 -0.0000 -0.0000
vn -0.0000 -0.0000 -1.0000
vn 1.0000 -0.0000 -0.0000
vn -0.0000 -0.0000 1.0000
vn -0.0000 1.0000 -0.0000
vn -0.0000 -1.0000 -0.0000
vn 0.9577 -0.2877 -0.0000
vn 0.7249 -0.6889 -0.0000
vt 0.124556 0.086611
vt 0.124556 0.017765
vt 0.233450 0.017765
vt 0.233450 0.086611
vt 0.310655 0.017765
vt 0.310655 0.086611
vt 0.015663 0.086180
vt 0.015663 0.017765
vt 0.124556 0.086180
vt 0.387860 0.017765
vt 0.387860 0.086611
vt 0.124556 0.224304
vt 0.233450 0.224304
vt 0.233450 0.373787
vt 0.124556 0.373787
vt 0.465065 0.126658
vt 0.387860 0.126658
vt 0.465065 0.017765
vt 0.472618 0.350560
vt 0.440315 0.350560
vt 0.440315 0.241667
vt 0.472618 0.241667
vt 0.015663 0.223010
vt 0.124556 0.223010
vt 0.124556 0.376575
vt 0.015663 0.376575
vt 0.310655 0.224304
vt 0.387860 0.224304
vt 0.387860 0.373787
vt 0.355557 0.373787
vt 0.265753 0.373787
vt 0.310655 0.155457
vt 0.387860 0.155457
vt 0.015663 0.154595
vt 0.124556 0.154595
vt 0.103153 0.096335
vt 0.037066 0.096335
vt 0.233450 0.155457
vt 0.124556 0.155457
vt 0.247490 0.373787
vt 0.247490 0.439873
vt 0.198607 0.439873
vt 0.198607 0.373787
vt 0.103153 0.148461
vt 0.037066 0.148461
vt 0.190643 0.439873
vt 0.190643 0.373787
vt 0.440315 0.398911
vt 0.387860 0.398911
vt 0.387860 0.356675
vt 0.395875 0.356675
vt 0.453947 0.168894
vt 0.387860 0.168894
vt 0.453947 0.126658
vt 0.387860 0.314439
vt 0.440315 0.314439
vt 0.387860 0.241667
vt 0.453947 0.241667
vt 0.440315 0.471684
vt 0.387860 0.471684
vt 0.124556 0.373787
vt 0.190643 0.446559
vt 0.124556 0.446559
s 0
usemtl Material.001
f 54/96/23 42/97/23 44/98/23 55/99/23
f 55/99/24 44/98/24 48/100/24 57/101/24
f 57/102/25 48/103/25 46/97/25 59/104/25
f 59/101/26 46/100/26 42/105/26 54/106/26
f 41/107/23 43/108/23 49/109/23 50/110/23
f 48/111/27 44/112/27 42/105/27 46/113/27
f 49/114/28 51/115/28 52/116/28 50/117/28
f 47/118/29 45/119/29 52/120/29 51/121/29
f 45/122/26 41/123/26 50/124/26 52/125/26
f 43/108/24 47/122/24 51/126/24 49/109/24
f 45/122/26 60/127/26 53/128/26 41/123/26
f 60/127/26 59/101/26 54/106/26 53/128/26
f 47/118/25 58/129/25 60/130/25 45/119/25
f 57/102/25 59/104/25 63/131/25 61/132/25
f 43/108/24 56/133/24 58/127/24 47/122/24
f 56/133/24 55/99/24 57/101/24 58/127/24
f 41/107/23 53/134/23 56/133/23 43/108/23
f 53/134/23 54/96/23 55/99/23 56/133/23
f 70/135/30 69/136/30 66/137/30 68/138/30
f 59/104/25 60/130/25 64/139/25 63/131/25
f 58/129/25 57/102/25 61/132/25 62/140/25
f 60/130/25 58/129/25 62/140/25 64/139/25
f 66/137/25 65/141/25 67/142/25 68/138/25
f 69/143/24 71/144/24 65/145/24 66/146/24
f 71/147/27 72/148/27 67/112/27 65/149/27
f 72/150/26 70/151/26 68/146/26 67/145/26
f 63/152/26 64/116/26 70/151/26 72/150/26
f 61/153/27 63/152/27 72/148/27 71/147/27
f 62/154/24 61/155/24 71/144/24 69/143/24
f 64/156/28 62/142/28 69/157/28 70/158/28
