# Blender 5.0.1
# www.blender.org
mtllib elevatorMain.mtl
o Cube
v 1.151813 4.683226 -1.404332
v 1.151813 0.022391 -1.404332
v 1.151813 4.683226 1.404332
v 1.151813 0.022391 1.404332
v -2.202291 4.683226 -1.404332
v -2.202291 0.022391 -1.404332
v -2.202291 4.683226 1.404332
v -2.202291 0.022391 1.404332
v 1.151813 3.957388 -1.186933
v 1.151813 0.018079 -1.186933
v 1.151813 3.957388 1.186933
v 1.151813 0.018079 1.186933
v -0.745012 3.957388 -1.186933
v -0.745012 0.018079 -1.186933
v -0.745012 3.957388 1.186933
v -0.745012 0.018079 1.186933
v -1.855785 5.147055 -1.179394
v -2.202291 0.022391 -2.272845
v 1.151813 5.147055 -1.179394
v -2.202291 0.022391 2.272845
v -2.202291 4.683226 2.272845
v -1.855785 5.147055 1.179394
v 1.151813 5.147055 1.179394
v -2.202291 4.683226 -2.272845
v 0.839508 0.022391 -2.272845
v 1.151813 0.022391 -1.960539
v 1.151813 4.683226 -1.960539
v 0.839508 4.683226 -2.272845
v 0.839508 4.683226 2.272845
v 1.151813 4.683226 1.960539
v 1.151813 0.022391 1.960539
v 0.839508 0.022391 2.272845
vn -0.8011 0.5985 -0.0000
vn -1.0000 -0.0000 -0.0000
vn 1.0000 -0.0000 -0.0000
vn -0.0000 1.0000 -0.0000
vn -0.0000 -0.0000 -1.0000
vn -0.0000 -1.0000 -0.0000
vn -0.0000 -0.0000 1.0000
vn -0.0000 0.4364 -0.8998
vn -0.0000 0.4364 0.8998
vn 0.7071 -0.0000 -0.7071
vn 0.7071 -0.0000 0.7071
vt 0.187935 0.580135
vt 0.322138 0.580123
vt 0.311392 0.602287
vt 0.198685 0.602296
vt 0.322119 0.357419
vt 0.187915 0.357431
vt 0.405137 0.580116
vt 0.405117 0.357412
vt 0.415505 0.357205
vt 0.415522 0.545433
vt 0.363618 0.357415
vt 0.363638 0.580119
vt 0.272965 0.137198
vt 0.272955 0.023770
vt 0.363589 0.023762
vt 0.363599 0.137190
vt 0.539321 0.357400
vt 0.539340 0.580104
vt 0.528950 0.545423
vt 0.528933 0.357195
vt 0.218258 0.169200
vt 0.218275 0.357428
vt 0.104847 0.357438
vt 0.104830 0.169210
vt 0.055803 0.602309
vt 0.055787 0.416176
vt 0.146421 0.416168
vt 0.146437 0.602301
vt 0.580791 0.023537
vt 0.580801 0.136965
vt 0.490167 0.136973
vt 0.490157 0.023545
vt 0.104830 0.171305
vt 0.104847 0.357438
vt 0.014213 0.357446
vt 0.014196 0.171313
vt 0.370463 0.357209
vt 0.370448 0.196943
vt 0.393965 0.213497
vt 0.393978 0.357207
vt 0.105551 0.169210
vt 0.105538 0.025500
vt 0.218246 0.025491
vt 0.218258 0.169200
vt 0.370448 0.196943
vt 0.370435 0.036677
vt 0.393950 0.036675
vt 0.393962 0.180384
vt 0.528594 0.602268
vt 0.415887 0.602278
vt 0.146435 0.580138
vt 0.146416 0.357434
vt 0.565917 0.580102
vt 0.565898 0.357398
vt 0.580820 0.357396
vt 0.580840 0.580100
vt 0.363638 0.580119
vt 0.363618 0.357415
vt 0.378541 0.357414
vt 0.378560 0.580118
vt 0.218275 0.357428
vt 0.218256 0.137203
vt 0.055789 0.442043
vt 0.014304 0.602312
vt 0.014291 0.456969
vt 0.029212 0.442045
vt 0.435463 0.196937
vt 0.435477 0.357203
vt 0.408900 0.357205
vt 0.393976 0.342284
vt 0.393964 0.196941
vt 0.580801 0.136966
vt 0.580820 0.357190
vt 0.435477 0.357203
vt 0.435458 0.136978
vt 0.063331 0.171309
vt 0.063317 0.011043
vt 0.104817 0.011039
vt 0.104829 0.156382
vt 0.089908 0.171306
vt 0.393964 0.196941
vt 0.420527 0.036672
vt 0.435450 0.051594
s 0
usemtl Material
f 5/1/1 7/2/1 22/3/1 17/4/1
f 8/5/2 7/2/2 5/1/2 6/6/2
f 3/7/3 4/8/3 12/9/3 11/10/3
f 7/2/2 8/5/2 20/11/2 21/12/2
f 12/13/4 10/14/4 14/15/4 16/16/4
f 2/17/3 1/18/3 9/19/3 10/20/3
f 1/18/3 3/7/3 11/10/3 9/19/3
f 14/21/3 13/22/3 15/23/3 16/24/3
f 11/25/5 12/26/5 16/27/5 15/28/5
f 9/29/6 11/30/6 15/31/6 13/32/6
f 10/33/7 9/34/7 13/35/7 14/36/7
f 1/37/8 5/38/8 17/39/8 19/40/8
f 19/41/4 17/42/4 22/43/4 23/44/4
f 7/45/9 3/46/9 23/47/9 22/48/9
f 3/7/3 1/18/3 19/49/3 23/50/3
f 6/6/2 5/1/2 24/51/2 18/52/2
f 27/53/10 26/54/10 25/55/10 28/56/10
f 29/57/11 32/58/11 31/59/11 30/60/11
f 18/16/5 24/58/5 28/61/5 25/62/5
f 1/18/3 2/17/3 26/54/3 27/53/3
f 2/63/6 6/25/6 18/64/6 25/65/6 26/66/6
f 5/67/4 1/68/4 27/69/4 28/70/4 24/71/4
f 4/8/3 3/7/3 30/60/3 31/59/3
f 32/72/7 29/73/7 21/74/7 20/75/7
f 3/76/4 7/77/4 21/78/4 29/79/4 30/80/4
f 8/81/6 4/47/6 31/82/6 32/83/6 20/67/6
o Cube.006
v 1.128472 4.145207 0.566485
v 1.128472 4.976555 0.566485
v 1.128472 4.145207 -0.566485
v 1.128472 4.976555 -0.566485
v 1.274580 4.145207 0.566485
v 1.274580 4.976555 0.566485
v 1.274580 4.145207 -0.566485
v 1.274580 4.976555 -0.566485
vn -1.0000 -0.0000 -0.0000
vn -0.0000 -0.0000 -1.0000
vn 1.0000 -0.0000 -0.0000
vn -0.0000 -0.0000 1.0000
vn -0.0000 -1.0000 -0.0000
vn -0.0000 1.0000 -0.0000
vt 0.356701 0.753983
vt 0.356704 0.690524
vt 0.443187 0.690529
vt 0.443184 0.753988
vt 0.293246 0.690521
vt 0.356704 0.701677
vt 0.293245 0.701674
vt 0.356698 0.817442
vt 0.443180 0.817447
vt 0.356703 0.712830
vt 0.293244 0.712827
vt 0.356697 0.828595
vt 0.356698 0.817442
vt 0.443180 0.817447
vt 0.443180 0.828599
vt 0.356697 0.839748
vt 0.443179 0.839752
s 0
usemtl Material.009
f 33/84/12 34/85/12 36/86/12 35/87/12
f 35/88/13 36/85/13 40/89/13 39/90/13
f 39/91/14 40/84/14 38/87/14 37/92/14
f 37/90/15 38/89/15 34/93/15 33/94/15
f 35/95/16 39/96/16 37/97/16 33/98/16
f 40/99/17 36/95/17 34/98/17 38/100/17
