# Blender 5.0.1
# www.blender.org
mtllib arrowSign.mtl
o Cube.005
v 1.000683 2.412861 -7.235456
v 1.000683 2.676694 -6.971623
v 1.000683 3.029099 -6.971623
v 1.000683 3.292933 -7.235456
v 1.000683 2.676694 -8.634512
v 1.000683 2.412861 -8.370679
v 1.000683 3.292933 -8.370679
v 1.000683 3.029099 -8.634512
v 1.107720 2.676694 -6.971623
v 1.107720 2.412861 -7.235456
v 1.107720 3.292933 -7.235456
v 1.107720 3.029099 -6.971623
v 1.107720 2.412861 -8.370679
v 1.107720 2.676694 -8.634512
v 1.107720 3.029099 -8.634512
v 1.107720 3.292933 -8.370679
vn -0.0000 -0.7071 -0.7071
vn -0.0000 0.7071 -0.7071
vn -0.0000 -0.7071 0.7071
vn -0.0000 0.7071 0.7071
vn -0.0000 -1.0000 -0.0000
vn -0.0000 -0.0000 1.0000
vn -0.0000 1.0000 -0.0000
vn -0.0000 -0.0000 -1.0000
vn 1.0000 -0.0000 -0.0000
vt 0.414963 0.874044
vt 0.414964 0.860722
vt 0.447799 0.860723
vt 0.447799 0.874044
vt 0.414964 0.847401
vt 0.447799 0.847401
vt 0.273680 0.860721
vt 0.273680 0.874042
vt 0.240845 0.874042
vt 0.240845 0.860721
vt 0.273681 0.847400
vt 0.240845 0.847400
vt 0.284704 0.847400
vt 0.240846 0.834078
vt 0.284704 0.834079
vt 0.328562 0.847400
vt 0.328562 0.834079
vt 0.447798 0.906879
vt 0.447798 0.950737
vt 0.414962 0.983572
vt 0.273679 0.983571
vt 0.240844 0.950736
vt 0.240845 0.906877
s 0
usemtl Material.009
f 13/1/1 6/2/1 5/3/1 14/4/1
f 7/2/2 16/5/2 15/6/2 8/3/2
f 1/7/3 10/8/3 9/9/3 2/10/3
f 11/11/4 4/7/4 3/10/4 12/12/4
f 6/2/5 13/1/5 10/8/5 1/7/5
f 9/13/6 12/12/6 3/14/6 2/15/6
f 16/5/7 7/2/7 4/7/7 11/11/7
f 5/16/8 8/13/8 15/15/8 14/17/8
f 13/1/9 14/18/9 15/19/9 16/20/9 11/21/9 12/22/9 9/23/9 10/8/9
