# Blender 5.0.1
# www.blender.org
mtllib hospitalSign.mtl
o Cube.004
v 0.979820 2.167902 -3.711267
v 0.979820 3.537891 -3.711267
v 0.979820 2.167902 -5.642874
v 0.979820 3.537891 -5.642874
v 1.128583 2.167902 -3.711267
v 1.128583 3.537891 -3.711267
v 1.128583 2.167902 -5.642874
v 1.128583 3.537891 -5.642874
vn -0.0000 -0.0000 -1.0000
vn 1.0000 -0.0000 -0.0000
vn -0.0000 -0.0000 1.0000
vn -0.0000 -1.0000 -0.0000
vn -0.0000 1.0000 -0.0000
vt 0.914100 0.313569
vt 0.740503 0.313556
vt 0.740504 0.294706
vt 0.914101 0.294719
vt 0.985262 0.351275
vt 0.985249 0.524872
vt 0.740487 0.524854
vt 0.740500 0.351257
vt 0.740506 0.275856
vt 0.914103 0.275869
vt 0.985263 0.332425
vt 0.740500 0.351257
vt 0.740502 0.332407
vt 0.985265 0.313575
vt 0.985263 0.332425
vt 0.740503 0.313556
s 0
usemtl Material.006
f 3/1/1 4/2/1 8/3/1 7/4/1
f 7/5/2 8/6/2 6/7/2 5/8/2
f 5/4/3 6/3/3 2/9/3 1/10/3
f 3/11/4 7/5/4 5/12/4 1/13/4
f 8/14/5 4/15/5 2/13/5 6/16/5
