# Blender 5.0.1
# www.blender.org
mtllib noEntrySign.mtl
o Cylinder
v 0.963506 0.734004 -2.901517
v 1.144897 0.734004 -2.901517
v 0.963506 -0.132022 -2.401517
v 1.144897 -0.132022 -2.401517
v 0.963506 -0.132022 -1.401517
v 1.144897 -0.132022 -1.401517
v 0.963506 0.734004 -0.901517
v 1.144897 0.734004 -0.901517
v 0.963506 1.600029 -1.401517
v 1.144897 1.600029 -1.401517
v 0.963506 1.600029 -2.401517
v 1.144897 1.600029 -2.401517
vn -0.0000 -0.5000 -0.8660
vn -0.0000 -1.0000 -0.0000
vn -0.0000 -0.5000 0.8660
vn -0.0000 0.5000 0.8660
vn 1.0000 -0.0000 -0.0000
vn -0.0000 1.0000 -0.0000
vn -0.0000 0.5000 -0.8660
vt 0.261336 0.572935
vt 0.261335 0.595609
vt 0.198833 0.595608
vt 0.198834 0.572933
vt 0.073829 0.595604
vt 0.073830 0.572930
vt 0.011327 0.595602
vt 0.011328 0.572928
vt 0.011328 0.550253
vt 0.011329 0.527579
vt 0.136333 0.527582
vt 0.136332 0.550257
vt 0.192681 0.300314
vt 0.255180 0.408572
vt 0.192675 0.516827
vt 0.067671 0.516824
vt 0.005172 0.408565
vt 0.067677 0.300310
vt 0.073830 0.550255
vt 0.073830 0.572930
vt 0.198834 0.550258
vt 0.198834 0.572933
s 0
usemtl Material.004
f 1/1/1 2/2/1 4/3/1 3/4/1
f 3/4/2 4/3/2 6/5/2 5/6/2
f 5/6/3 6/5/3 8/7/3 7/8/3
f 7/9/4 8/10/4 10/11/4 9/12/4
f 4/13/5 2/14/5 12/15/5 10/16/5 8/17/5 6/18/5
f 9/8/6 10/9/6 12/19/6 11/20/6
f 11/20/7 12/19/7 2/21/7 1/22/7
