# Blender 5.0.1
# www.blender.org
mtllib underCostructionSign.mtl
o Cube.009
v -0.208609 4.458955 1.218751
v -0.208609 4.714934 1.218751
v -0.208609 4.458955 -1.281572
v -0.208609 4.714934 -1.281572
v 0.208609 4.458955 1.218751
v 0.208609 4.714934 1.218751
v 0.208609 4.458955 -1.281572
v 0.208609 4.714934 -1.281572
v 0.000000 4.458955 -1.281572
v 0.000000 4.714934 -1.281572
v 0.000000 4.458955 1.218751
v 0.000000 4.714934 1.218751
v -1.201912 0.026476 -1.281572
v -1.201912 0.026476 1.218751
v -0.993303 0.026476 -1.281572
v -0.993303 0.026476 1.218751
v 1.182284 0.026476 1.218751
v 1.182284 0.026476 -1.281572
v 0.973675 0.026476 1.218751
v 0.973675 0.026476 -1.281572
vn -1.0000 -0.0000 -0.0000
vn -0.0000 -0.0000 -1.0000
vn 1.0000 -0.0000 -0.0000
vn -0.0000 -0.0000 1.0000
vn -0.9767 -0.2146 -0.0000
vn -0.0000 1.0000 -0.0000
vn 0.9758 -0.2187 -0.0000
vn -0.0000 -1.0000 -0.0000
vn -0.9758 0.2187 -0.0000
vn 0.9767 0.2146 -0.0000
vt 0.012267 0.027157
vt 0.012267 0.014286
vt 0.137990 0.014286
vt 0.137990 0.027157
vt 0.324149 0.027157
vt 0.324149 0.014286
vt 0.334638 0.014286
vt 0.334638 0.027157
vt 0.263713 0.014286
vt 0.263713 0.027157
vt 0.197438 0.262837
vt 0.197438 0.249966
vt 0.207928 0.249966
vt 0.207928 0.262837
vt 0.012267 0.250104
vt 0.137990 0.250104
vt 0.137990 0.472912
vt 0.012267 0.472912
vt 0.394086 0.140009
vt 0.383597 0.140009
vt 0.383597 0.014286
vt 0.394086 0.014286
vt 0.404576 0.140009
vt 0.404576 0.014286
vt 0.263713 0.250034
vt 0.389436 0.250034
vt 0.389436 0.472981
vt 0.263713 0.472981
vt 0.186949 0.262837
vt 0.186949 0.249966
vt 0.313659 0.027157
vt 0.313659 0.014286
vt 0.399926 0.375757
vt 0.389436 0.375757
vt 0.389436 0.250034
vt 0.399926 0.250034
vt 0.274203 0.250034
vt 0.257874 0.485714
vt 0.247385 0.485714
vt 0.410415 0.375757
vt 0.410415 0.250034
vt 0.263713 0.249966
vt 0.137990 0.249966
vt 0.383597 0.250034
vt 0.373108 0.250034
vt 0.148479 0.485714
vt 0.137990 0.485714
s 0
usemtl Material.011
f 1/1/1 2/2/1 4/3/1 3/4/1
f 9/5/2 10/6/2 8/7/2 7/8/2
f 7/4/3 8/3/3 6/9/3 5/10/3
f 11/11/4 12/12/4 2/13/4 1/14/4
f 11/15/5 9/16/5 20/17/5 19/18/5
f 10/19/6 4/20/6 2/21/6 12/22/6
f 8/23/6 10/19/6 12/22/6 6/24/6
f 9/25/7 11/26/7 16/27/7 15/28/7
f 5/29/4 6/30/4 12/12/4 11/11/4
f 3/31/2 4/32/2 10/6/2 9/5/2
f 13/33/8 15/34/8 16/35/8 14/36/8
f 3/31/2 9/5/2 15/37/2 13/25/2
f 1/1/9 3/4/9 13/16/9 14/15/9
f 11/11/4 1/14/4 14/38/4 16/39/4
f 20/40/8 18/33/8 17/36/8 19/41/8
f 7/4/10 5/10/10 17/42/10 18/43/10
f 9/5/2 7/8/2 18/44/2 20/45/2
f 5/29/4 11/11/4 19/46/4 17/47/4
