# Blender 5.0.1
# www.blender.org
mtllib warningSign.mtl
o Cube
v 1.134714 1.734004 -10.687353
v 1.134714 1.734004 -10.385839
v 0.973689 1.734004 -10.687353
v 0.973689 1.734004 -10.385839
v 1.134714 -0.265996 -11.418316
v 1.134714 -0.049906 -11.553604
v 1.134714 -0.049906 -9.519588
v 1.134714 -0.265996 -9.654877
v 0.973689 -0.049906 -11.553604
v 0.973689 -0.265996 -11.418316
v 0.973689 -0.265996 -9.654877
v 0.973689 -0.049906 -9.519588
vn -0.0000 1.0000 -0.0000
vn -0.0000 -0.5307 -0.8476
vn -0.0000 -0.5307 0.8476
vn -0.0000 0.4368 -0.8996
vn 1.0000 -0.0000 -0.0000
vn -0.0000 -1.0000 -0.0000
vn -0.0000 0.4368 0.8996
vt 0.014050 0.066998
vt 0.014052 0.049718
vt 0.028185 0.049720
vt 0.028182 0.066999
vt 0.241373 0.032467
vt 0.241371 0.049746
vt 0.226853 0.049744
vt 0.226855 0.032465
vt 0.255504 0.049748
vt 0.255502 0.067027
vt 0.240984 0.067025
vt 0.240986 0.049746
vt 0.014054 0.032439
vt 0.217796 0.067022
vt 0.232311 0.090212
vt 0.139333 0.281627
vt 0.106978 0.281623
vt 0.014047 0.090185
vt 0.028567 0.066999
vt 0.203285 0.015183
vt 0.203283 0.032462
vt 0.014054 0.032439
vt 0.014056 0.015160
s 0
usemtl Material
f 1/1/1 3/2/1 4/3/1 2/4/1
f 5/5/2 10/6/2 9/7/2 6/8/2
f 11/9/3 8/10/3 7/11/3 12/12/3
f 9/7/4 3/2/4 1/13/4 6/8/4
f 5/14/5 6/15/5 1/16/5 2/17/5 7/18/5 8/19/5
f 10/20/6 5/21/6 8/22/6 11/23/6
f 7/11/7 2/4/7 4/3/7 12/12/7
