# Blender 5.0.1
# www.blender.org
mtllib MetalBuildingWall.mtl
o Cube
v 0.164492 2.989806 -2.995552
v 0.453403 -0.024289 -2.995552
v 0.164492 2.989806 2.995552
v 0.453403 -0.024289 2.995552
v -0.164492 2.989806 -2.995552
v -0.164492 -0.024289 -2.995552
v -0.164492 2.989806 2.995552
v -0.164492 -0.024289 2.995552
vn -0.0000 1.0000 -0.0000
vn -0.0000 -0.0000 1.0000
vn -1.0000 -0.0000 -0.0000
vn -0.0000 -1.0000 -0.0000
vn 0.9954 0.0954 -0.0000
vn -0.0000 -0.0000 -1.0000
vt 0.937120 0.449401
vt 0.913250 0.449401
vt 0.913250 0.014701
vt 0.937120 0.014701
vt 0.937120 0.233396
vt 0.958083 0.014701
vt 0.981953 0.014701
vt 0.981953 0.233396
vt 0.868417 0.449401
vt 0.649722 0.449401
vt 0.649722 0.014701
vt 0.868417 0.014701
vt 0.430024 0.449401
vt 0.430024 0.014701
vt 0.649722 0.014701
vt 0.937120 0.452091
vt 0.937120 0.233396
vt 0.960991 0.233396
vt 0.981953 0.452091
s 0
usemtl Material
f 1/1/1 5/2/1 7/3/1 3/4/1
f 4/5/2 3/6/2 7/7/2 8/8/2
f 8/9/3 7/10/3 5/11/3 6/12/3
f 6/2/4 2/9/4 4/12/4 8/3/4
f 2/10/5 1/13/5 3/14/5 4/15/5
f 6/16/6 5/17/6 1/18/6 2/19/6
