# Blender 5.0.1
# www.blender.org
mtllib box.mtl
o Cube
v -1.019060 -0.148784 0.601428
v -1.019060 1.054072 0.601428
v -1.019060 -0.148784 -0.601428
v -1.019060 1.054072 -0.601428
v 1.019060 -0.148784 0.601428
v 1.019060 1.054072 0.601428
v 1.019060 -0.148784 -0.601428
v 1.019060 1.054072 -0.601428
v -1.019060 -0.148784 0.000000
v -1.019060 1.054072 0.000000
v 1.019060 -0.148784 0.000000
v 1.019060 1.054072 0.000000
v -1.019060 1.176021 0.000000
v -1.019060 1.054072 -0.601428
v 1.019060 1.054072 -0.601428
v 1.019060 1.176021 0.000000
v 1.019060 1.054072 0.601428
v -1.019060 1.054072 0.601428
vn -1.0000 -0.0000 -0.0000
vn -0.0000 -0.0000 -1.0000
vn 1.0000 -0.0000 -0.0000
vn -0.0000 -0.0000 1.0000
vn -0.0000 -1.0000 -0.0000
vn -0.0000 0.9801 0.1987
vn -0.0000 0.9801 -0.1987
vn -0.0000 1.0000 -0.0000
vt 0.261669 0.470107
vt 0.261669 0.313857
vt 0.339794 0.313857
vt 0.339794 0.470107
vt 0.181261 0.295734
vt 0.025011 0.295734
vt 0.025011 0.030984
vt 0.181261 0.030984
vt 0.420201 0.470107
vt 0.420201 0.313857
vt 0.498326 0.313857
vt 0.498326 0.470107
vt 0.339794 0.295734
vt 0.183544 0.295734
vt 0.183544 0.030984
vt 0.339794 0.030984
vt 0.420201 0.030984
vt 0.420201 0.295734
vt 0.342077 0.295734
vt 0.342077 0.030984
vt 0.342077 0.313857
vt 0.420201 0.298016
vt 0.498326 0.030984
vt 0.498326 0.295734
vt 0.342077 0.470107
vt 0.183544 0.470107
vt 0.183544 0.313857
vt 0.103136 0.298017
vt 0.103136 0.562766
vt 0.025011 0.562766
vt 0.025011 0.298017
vt 0.181261 0.298017
vt 0.181261 0.562766
vt 0.261669 0.298016
vt 0.183544 0.472390
vt 0.185827 0.472390
s 0
usemtl Material.001
f 9/1/1 10/2/1 4/3/1 3/4/1
f 3/5/2 4/6/2 8/7/2 7/8/2
f 11/9/3 12/10/3 6/11/3 5/12/3
f 5/13/4 6/14/4 2/15/4 1/16/4
f 9/17/5 11/18/5 5/19/5 1/20/5
f 12/10/3 8/21/3 15/21/3 16/22/3
f 6/11/3 12/10/3 16/22/3 17/11/3
f 3/23/5 7/24/5 11/18/5 9/17/5
f 7/25/3 8/21/3 12/10/3 11/9/3
f 1/26/1 2/27/1 10/2/1 9/1/1
f 16/28/6 13/29/6 18/30/6 17/31/6
f 15/32/7 14/33/7 13/29/7 16/28/7
f 10/2/1 2/27/1 18/27/1 13/34/1
f 4/3/1 10/2/1 13/34/1 14/3/1
f 2/35/8 6/35/8 17/35/8 18/35/8
f 8/36/8 4/36/8 14/36/8 15/36/8
