# Blender 5.0.1
# www.blender.org
mtllib boxCarrier.mtl
o Cube.001
v -1.036766 -0.261569 0.688388
v -1.036766 -0.147314 0.688388
v -1.036766 -0.261569 -0.688388
v -1.036766 -0.147314 -0.688388
v 1.036766 -0.261569 0.688388
v 1.036766 -0.147314 0.688388
v 1.036766 -0.261569 -0.688388
v 1.036766 -0.147314 -0.688388
v -1.036766 -0.147314 -0.816632
v -1.036766 -0.261569 -0.816632
v 1.036766 -0.261569 -0.816632
v 1.036766 -0.147314 -0.816632
v -1.036766 0.571486 -0.688388
v 1.036766 0.571486 -0.688388
v -1.036766 0.571486 -0.816632
v 1.036766 0.571486 -0.816632
vn -1.0000 -0.0000 -0.0000
vn 1.0000 -0.0000 -0.0000
vn -0.0000 -0.0000 1.0000
vn -0.0000 -1.0000 -0.0000
vn -0.0000 1.0000 -0.0000
vn -0.0000 -0.0000 -1.0000
vt 0.345128 0.922272
vt 0.334635 0.922272
vt 0.334635 0.795829
vt 0.345128 0.795829
vt 0.256431 0.910494
vt 0.266924 0.910494
vt 0.266924 0.922272
vt 0.256431 0.922272
vt 0.256431 0.784051
vt 0.266924 0.784051
vt 0.188720 0.974484
vt 0.178227 0.974484
vt 0.178227 0.784051
vt 0.188720 0.784051
vt 0.145282 0.591922
vt 0.145282 0.782355
vt 0.018839 0.782355
vt 0.018839 0.591922
vt 0.158756 0.591922
vt 0.349189 0.591922
vt 0.349189 0.718365
vt 0.158756 0.718365
vt 0.095347 0.974484
vt 0.084854 0.974484
vt 0.084854 0.784051
vt 0.095347 0.784051
vt 0.157060 0.591922
vt 0.157060 0.782355
vt 0.190416 0.922272
vt 0.190416 0.910494
vt 0.334635 0.784051
vt 0.345128 0.784051
vt 0.164753 0.974484
vt 0.164753 0.784051
vt 0.176531 0.784051
vt 0.176531 0.974484
vt 0.163058 0.784051
vt 0.163058 0.974484
vt 0.097043 0.974484
vt 0.097043 0.784051
vt 0.018839 0.974484
vt 0.018839 0.784051
vt 0.268620 0.795829
vt 0.268620 0.784051
s 0
usemtl Material.002
f 1/1/1 2/2/1 4/3/1 3/4/1
f 8/5/2 7/6/2 11/7/2 12/8/2
f 7/6/2 8/5/2 6/9/2 5/10/2
f 5/11/3 6/12/3 2/13/3 1/14/3
f 3/15/4 7/16/4 5/17/4 1/18/4
f 8/19/5 4/20/5 2/21/5 6/22/5
f 10/23/6 9/24/6 12/25/6 11/26/6
f 7/16/4 3/15/4 10/27/4 11/28/4
f 8/5/2 12/8/2 16/29/2 14/30/2
f 3/4/1 4/3/1 9/31/1 10/32/1
f 13/33/5 14/34/5 16/35/5 15/36/5
f 4/37/3 8/38/3 14/39/3 13/40/3
f 12/25/6 9/24/6 15/41/6 16/42/6
f 9/31/1 4/3/1 13/43/1 15/44/1
o Cylinder
v -1.366914 -0.174509 -1.403766
v -1.066914 -0.174509 -1.403766
v -1.366914 -0.436139 -1.295396
v -1.066914 -0.436139 -1.295396
v -1.366914 -0.544509 -1.033766
v -1.066914 -0.544509 -1.033766
v -1.366914 -0.436139 -0.772137
v -1.066914 -0.436139 -0.772137
v -1.366914 -0.174509 -0.663766
v -1.066914 -0.174509 -0.663766
v -1.366914 0.087120 -0.772137
v -1.066913 0.087120 -0.772137
v -1.366914 0.195491 -1.033766
v -1.066913 0.195491 -1.033766
v -1.366914 0.087120 -1.295396
v -1.066913 0.087120 -1.295396
vn -0.0000 -0.3827 -0.9239
vn -0.0000 -0.9239 -0.3827
vn -0.0000 -0.9239 0.3827
vn -0.0000 -0.3827 0.9239
vn -0.0000 0.3827 0.9239
vn -0.0000 0.9239 0.3827
vn 1.0000 -0.0000 -0.0000
vn -0.0000 0.9239 -0.3827
vn -0.0000 0.3827 -0.9239
vn -1.0000 -0.0000 -0.0000
vt 0.915337 0.594783
vt 0.915337 0.677969
vt 0.836814 0.677969
vt 0.836814 0.594783
vt 0.970861 0.679572
vt 0.970861 0.762757
vt 0.915337 0.762757
vt 0.915337 0.679572
vt 0.836814 0.762757
vt 0.836814 0.679572
vt 0.970861 0.764360
vt 0.970861 0.847546
vt 0.915337 0.847546
vt 0.915337 0.764360
vt 0.836814 0.847546
vt 0.836814 0.764360
vt 0.970861 0.849149
vt 0.970861 0.932334
vt 0.915337 0.932334
vt 0.915337 0.849149
vt 0.701163 0.784355
vt 0.645639 0.728830
vt 0.645639 0.650307
vt 0.701163 0.594783
vt 0.779686 0.594783
vt 0.835211 0.650307
vt 0.835211 0.728830
vt 0.779686 0.784355
vt 0.836814 0.932334
vt 0.836814 0.849149
vt 0.970861 0.594783
vt 0.970861 0.677969
vt 0.645639 0.920005
vt 0.645639 0.841482
vt 0.701163 0.785958
vt 0.779686 0.785958
vt 0.835211 0.841482
vt 0.835211 0.920005
vt 0.779686 0.975529
vt 0.701163 0.975529
s 0
usemtl Material.003
f 17/45/7 18/46/7 20/47/7 19/48/7
f 19/49/8 20/50/8 22/51/8 21/52/8
f 21/52/9 22/51/9 24/53/9 23/54/9
f 23/55/10 24/56/10 26/57/10 25/58/10
f 25/58/11 26/57/11 28/59/11 27/60/11
f 27/61/12 28/62/12 30/63/12 29/64/12
f 20/65/13 18/66/13 32/67/13 30/68/13 28/69/13 26/70/13 24/71/13 22/72/13
f 29/64/14 30/63/14 32/73/14 31/74/14
f 31/75/15 32/76/15 18/46/15 17/45/15
f 17/77/16 19/78/16 21/79/16 23/80/16 25/81/16 27/82/16 29/83/16 31/84/16
o Cube.002
v 0.797152 -0.042676 -1.059549
v 0.797152 2.047572 -1.059549
v 0.797153 -0.042676 -0.823296
v 0.797153 2.047572 -0.823296
v 0.604732 -0.042676 -1.059549
v 0.604732 2.047572 -1.059549
v 0.604732 -0.042676 -0.823296
v 0.604732 2.047572 -0.823296
v 0.797152 3.580708 -1.463179
v 0.797152 3.580708 -1.226925
v 0.604732 3.580708 -1.226925
v 0.604732 3.580708 -1.463179
v 0.797152 3.779816 -1.463179
v 0.797152 3.779816 -1.226925
v 0.604732 3.779816 -1.226925
v 0.604732 3.779816 -1.463179
vn 1.0000 -0.0000 -0.0000
vn -0.0000 -0.0000 1.0000
vn -1.0000 -0.0000 -0.0000
vn -0.0000 -0.0000 -1.0000
vn -0.0000 -1.0000 -0.0000
vn -0.0000 -0.2546 -0.9670
vn -0.0000 0.2546 0.9670
vn -0.0000 1.0000 -0.0000
vt 0.520100 0.547828
vt 0.550762 0.272578
vt 0.581872 0.276044
vt 0.551210 0.551294
vt 0.646206 0.547739
vt 0.646206 0.271800
vt 0.671701 0.271800
vt 0.671701 0.547739
vt 0.613815 0.551294
vt 0.583153 0.276044
vt 0.614263 0.272578
vt 0.644925 0.547828
vt 0.672982 0.547739
vt 0.672982 0.271800
vt 0.698477 0.271800
vt 0.698477 0.547739
vt 0.725253 0.069853
vt 0.699758 0.069853
vt 0.699758 0.038550
vt 0.725253 0.038550
vt 0.520100 0.064769
vt 0.551210 0.068235
vt 0.671701 0.064835
vt 0.646206 0.064835
vt 0.646206 0.038550
vt 0.671701 0.038550
vt 0.672982 0.064835
vt 0.698477 0.064835
vt 0.613815 0.068235
vt 0.644925 0.064769
vt 0.725253 0.102437
vt 0.699758 0.102437
vt 0.699758 0.071134
vt 0.725253 0.071134
vt 0.610894 0.042016
vt 0.642004 0.038550
vt 0.523021 0.038550
vt 0.554131 0.042015
vt 0.672982 0.038550
vt 0.698477 0.038550
s 0
usemtl Material.004
f 33/85/17 34/86/17 36/87/17 35/88/17
f 35/89/18 36/90/18 40/91/18 39/92/18
f 39/93/19 40/94/19 38/95/19 37/96/19
f 37/97/20 38/98/20 34/99/20 33/100/20
f 35/101/21 39/102/21 37/103/21 33/104/21
f 36/87/17 34/86/17 41/105/17 42/106/17
f 43/107/18 42/108/18 46/109/18 47/110/18
f 34/99/22 38/98/22 44/111/22 41/112/22
f 40/91/23 36/90/23 42/108/23 43/107/23
f 38/95/19 40/94/19 43/113/19 44/114/19
f 47/115/24 46/116/24 45/117/24 48/118/24
f 44/114/19 43/113/19 47/119/19 48/120/19
f 42/106/17 41/105/17 45/121/17 46/122/17
f 41/112/20 44/111/20 48/123/20 45/124/20
o Cube.003
v -1.246836 3.597882 -1.326995
v -1.246836 3.851977 -1.326995
v -1.246836 3.597882 -1.581090
v -1.246836 3.851977 -1.581090
v 1.147336 3.597882 -1.326995
v 1.147336 3.851977 -1.326995
v 1.147336 3.597882 -1.581090
v 1.147336 3.851977 -1.581090
vn -1.0000 -0.0000 -0.0000
vn -0.0000 -0.0000 -1.0000
vn 1.0000 -0.0000 -0.0000
vn -0.0000 -0.0000 1.0000
vn -0.0000 -1.0000 -0.0000
vn -0.0000 1.0000 -0.0000
vt 0.920245 0.068150
vt 0.885980 0.068150
vt 0.885980 0.033886
vt 0.920245 0.033886
vt 0.779272 0.356739
vt 0.745007 0.356739
vt 0.745007 0.033886
vt 0.779272 0.033886
vt 0.920245 0.103394
vt 0.885980 0.103394
vt 0.885980 0.069129
vt 0.920245 0.069129
vt 0.814515 0.356739
vt 0.780250 0.356739
vt 0.780250 0.033886
vt 0.814515 0.033886
vt 0.849758 0.033886
vt 0.849758 0.356739
vt 0.815494 0.356739
vt 0.815494 0.033886
vt 0.885002 0.033886
vt 0.885002 0.356739
vt 0.850737 0.356739
vt 0.850737 0.033886
s 0
usemtl Material.005
f 49/125/25 50/126/25 52/127/25 51/128/25
f 51/129/26 52/130/26 56/131/26 55/132/26
f 55/133/27 56/134/27 54/135/27 53/136/27
f 53/137/28 54/138/28 50/139/28 49/140/28
f 51/141/29 55/142/29 53/143/29 49/144/29
f 56/145/30 52/146/30 50/147/30 54/148/30
o Cylinder.001
v 0.881273 -0.174509 -1.403766
v 1.181273 -0.174509 -1.403766
v 0.881273 -0.436139 -1.295396
v 1.181273 -0.436139 -1.295396
v 0.881273 -0.544509 -1.033766
v 1.181273 -0.544509 -1.033766
v 0.881273 -0.436139 -0.772137
v 1.181273 -0.436139 -0.772137
v 0.881273 -0.174509 -0.663766
v 1.181273 -0.174509 -0.663766
v 0.881273 0.087120 -0.772137
v 1.181274 0.087120 -0.772137
v 0.881273 0.195491 -1.033766
v 1.181274 0.195491 -1.033766
v 0.881273 0.087120 -1.295396
v 1.181274 0.087120 -1.295396
vn -0.0000 -0.3827 -0.9239
vn -0.0000 -0.9239 -0.3827
vn -0.0000 -0.9239 0.3827
vn -0.0000 -0.3827 0.9239
vn -0.0000 0.3827 0.9239
vn -0.0000 0.9239 0.3827
vn 1.0000 -0.0000 -0.0000
vn -0.0000 0.9239 -0.3827
vn -0.0000 0.3827 -0.9239
vn -1.0000 -0.0000 -0.0000
vt 0.915337 0.594783
vt 0.915337 0.677969
vt 0.836814 0.677969
vt 0.836814 0.594783
vt 0.970861 0.679572
vt 0.970861 0.762757
vt 0.915337 0.762757
vt 0.915337 0.679572
vt 0.836814 0.762757
vt 0.836814 0.679572
vt 0.970861 0.764360
vt 0.970861 0.847546
vt 0.915337 0.847546
vt 0.915337 0.764360
vt 0.836814 0.847546
vt 0.836814 0.764360
vt 0.970861 0.849149
vt 0.970861 0.932334
vt 0.915337 0.932334
vt 0.915337 0.849149
vt 0.701163 0.784355
vt 0.645639 0.728830
vt 0.645639 0.650307
vt 0.701163 0.594783
vt 0.779686 0.594783
vt 0.835211 0.650307
vt 0.835211 0.728830
vt 0.779686 0.784355
vt 0.836814 0.932334
vt 0.836814 0.849149
vt 0.970861 0.594783
vt 0.970861 0.677969
vt 0.645639 0.920005
vt 0.645639 0.841482
vt 0.701163 0.785958
vt 0.779686 0.785958
vt 0.835211 0.841482
vt 0.835211 0.920005
vt 0.779686 0.975529
vt 0.701163 0.975529
s 0
usemtl Material.006
f 57/149/31 58/150/31 60/151/31 59/152/31
f 59/153/32 60/154/32 62/155/32 61/156/32
f 61/156/33 62/155/33 64/157/33 63/158/33
f 63/159/34 64/160/34 66/161/34 65/162/34
f 65/162/35 66/161/35 68/163/35 67/164/35
f 67/165/36 68/166/36 70/167/36 69/168/36
f 60/169/37 58/170/37 72/171/37 70/172/37 68/173/37 66/174/37 64/175/37 62/176/37
f 69/168/38 70/167/38 72/177/38 71/178/38
f 71/179/39 72/180/39 58/150/39 57/149/39
f 57/181/40 59/182/40 61/183/40 63/184/40 65/185/40 67/186/40 69/187/40 71/188/40
o Cube.004
v -0.775873 -0.042676 -1.059549
v -0.775873 2.047572 -1.059549
v -0.775873 -0.042676 -0.823296
v -0.775873 2.047572 -0.823296
v -0.968293 -0.042676 -1.059549
v -0.968293 2.047572 -1.059549
v -0.968293 -0.042676 -0.823296
v -0.968293 2.047572 -0.823296
v -0.775873 3.580708 -1.463179
v -0.775873 3.580708 -1.226925
v -0.968293 3.580708 -1.226925
v -0.968293 3.580708 -1.463179
v -0.775873 3.779816 -1.463179
v -0.775873 3.779816 -1.226925
v -0.968293 3.779816 -1.226925
v -0.968293 3.779816 -1.463179
vn 1.0000 -0.0000 -0.0000
vn -0.0000 -0.0000 1.0000
vn -1.0000 -0.0000 -0.0000
vn -0.0000 -0.0000 -1.0000
vn -0.0000 -1.0000 -0.0000
vn -0.0000 -0.2546 -0.9670
vn -0.0000 0.2546 0.9670
vn -0.0000 1.0000 -0.0000
vt 0.520100 0.547828
vt 0.550762 0.272578
vt 0.581872 0.276044
vt 0.551210 0.551294
vt 0.646206 0.547739
vt 0.646206 0.271800
vt 0.671701 0.271800
vt 0.671701 0.547739
vt 0.613815 0.551294
vt 0.583153 0.276044
vt 0.614263 0.272578
vt 0.644925 0.547828
vt 0.672982 0.547739
vt 0.672982 0.271800
vt 0.698477 0.271800
vt 0.698477 0.547739
vt 0.725253 0.069853
vt 0.699758 0.069853
vt 0.699758 0.038550
vt 0.725253 0.038550
vt 0.520100 0.064769
vt 0.551210 0.068235
vt 0.671701 0.064835
vt 0.646206 0.064835
vt 0.646206 0.038550
vt 0.671701 0.038550
vt 0.672982 0.064835
vt 0.698477 0.064835
vt 0.613815 0.068235
vt 0.644925 0.064769
vt 0.725253 0.102437
vt 0.699758 0.102437
vt 0.699758 0.071134
vt 0.725253 0.071134
vt 0.610894 0.042016
vt 0.642004 0.038550
vt 0.523021 0.038550
vt 0.554131 0.042015
vt 0.672982 0.038550
vt 0.698477 0.038550
s 0
usemtl Material.007
f 73/189/41 74/190/41 76/191/41 75/192/41
f 75/193/42 76/194/42 80/195/42 79/196/42
f 79/197/43 80/198/43 78/199/43 77/200/43
f 77/201/44 78/202/44 74/203/44 73/204/44
f 75/205/45 79/206/45 77/207/45 73/208/45
f 76/191/41 74/190/41 81/209/41 82/210/41
f 83/211/42 82/212/42 86/213/42 87/214/42
f 74/203/46 78/202/46 84/215/46 81/216/46
f 80/195/47 76/194/47 82/212/47 83/211/47
f 78/199/43 80/198/43 83/217/43 84/218/43
f 87/219/48 86/220/48 85/221/48 88/222/48
f 84/218/43 83/217/43 87/223/43 88/224/43
f 82/210/41 81/209/41 85/225/41 86/226/41
f 81/216/44 84/215/44 88/227/44 85/228/44
