# Blender 5.0.1
# www.blender.org
mtllib workshipSign.mtl
o Cube
v 0.094576 0.626689 -1.774217
v 0.094576 -0.626689 -1.774217
v 0.094576 0.626689 1.774217
v 0.094576 -0.626689 1.774217
v -0.094576 0.626689 -1.774217
v -0.094576 -0.626689 -1.774217
v -0.094576 0.626689 1.774217
v -0.094576 -0.626689 1.774217
vn -0.0000 1.0000 -0.0000
vn -0.0000 -0.0000 1.0000
vn -0.0000 -1.0000 -0.0000
vn 1.0000 -0.0000 -0.0000
vn -0.0000 -0.0000 -1.0000
vt 0.466530 0.504505
vt 0.466527 0.528417
vt 0.017934 0.528356
vt 0.017937 0.504444
vt 0.176392 0.478165
vt 0.017940 0.478143
vt 0.017944 0.454231
vt 0.176396 0.454252
vt 0.466533 0.479398
vt 0.466530 0.503311
vt 0.017937 0.503250
vt 0.017940 0.479337
vt 0.466526 0.529611
vt 0.466505 0.688063
vt 0.017912 0.688002
vt 0.017933 0.529550
vt 0.176396 0.453059
vt 0.017944 0.453037
vt 0.017947 0.429124
vt 0.176399 0.429146
s 0
usemtl Material
f 1/1/1 5/2/1 7/3/1 3/4/1
f 4/5/2 3/6/2 7/7/2 8/8/2
f 6/9/3 2/10/3 4/11/3 8/12/3
f 2/13/4 1/14/4 3/15/4 4/16/4
f 6/17/5 5/18/5 1/19/5 2/20/5
